<svg xmlns="http://www.w3.org/2000/svg" xmlns:xlink="http://www.w3.org/1999/xlink" width="500" zoomAndPan="magnify" viewBox="0 0 375 374.999991" height="500" preserveAspectRatio="xMidYMid meet" version="1.0"><defs><clipPath id="3dff17802a"><path d="M 24.398438 33.089844 L 355.148438 33.089844 L 355.148438 363.839844 L 24.398438 363.839844 Z M 24.398438 33.089844 " clip-rule="nonzero"/></clipPath><clipPath id="0584d3bb37"><path d="M 189.839844 33.089844 C 98.46875 33.089844 24.398438 107.160156 24.398438 198.527344 C 24.398438 289.898438 98.46875 363.96875 189.839844 363.96875 C 281.207031 363.96875 355.277344 289.898438 355.277344 198.527344 C 355.277344 107.160156 281.207031 33.089844 189.839844 33.089844 Z M 189.839844 33.089844 " clip-rule="nonzero"/></clipPath><clipPath id="c8f12f629a"><path d="M 13.367188 22.058594 L 366.617188 22.058594 L 366.617188 375 L 13.367188 375 Z M 13.367188 22.058594 " clip-rule="nonzero"/></clipPath></defs><g clip-path="url(#3dff17802a)"><g clip-path="url(#0584d3bb37)"><path stroke-linecap="butt" transform="matrix(0.75, 0, 0, 0.75, 24.39892, 33.089851)" fill="none" stroke-linejoin="miter" d="M 220.587899 -0.0000102361 C 98.759773 -0.0000102361 -0.000643464 98.760407 -0.000643464 220.588532 C -0.000643464 342.411449 98.759773 441.171865 220.587899 441.171865 C 342.410815 441.171865 441.171232 342.411449 441.171232 220.588532 C 441.171232 98.760407 342.410815 -0.0000102361 220.587899 -0.0000102361 Z M 220.587899 -0.0000102361 " stroke="#ffffff" stroke-width="18" stroke-opacity="1" stroke-miterlimit="4"/></g></g><g clip-path="url(#c8f12f629a)"><path fill="#ffffff" d="M 127.699219 165.398438 C 110.546875 177.546875 100.460938 193.375 95.160156 211.042969 C 91.773438 222.378906 90.300781 234.453125 90.300781 246.675781 C 88.09375 242.035156 86.105469 237.25 84.558594 232.316406 C 81.171875 221.71875 79.332031 210.304688 79.332031 198.527344 C 79.332031 167.972656 91.699219 140.367188 111.726562 120.34375 C 131.75 100.316406 159.355469 87.949219 189.910156 87.949219 C 205.515625 87.949219 220.386719 91.1875 233.785156 97.003906 C 244.460938 101.644531 254.253906 107.828125 262.867188 115.410156 C 267.136719 119.164062 268.167969 123.359375 265.886719 127.777344 C 261.394531 136.464844 253.371094 145.300781 241.886719 152.144531 C 229 159.875 211.847656 165.101562 190.425781 165.03125 L 190.351562 165.03125 C 185.269531 165.03125 181.148438 163.632812 178.054688 161.347656 C 175.332031 159.289062 173.269531 156.488281 171.945312 153.324219 C 170.546875 149.9375 169.8125 146.109375 169.8125 142.132812 C 169.8125 135.066406 172.019531 127.703125 176.363281 121.886719 C 177.984375 119.753906 177.542969 116.734375 175.40625 115.1875 C 173.269531 113.570312 170.253906 114.011719 168.707031 116.144531 C 163.113281 123.65625 160.242188 133.078125 160.242188 142.132812 C 160.242188 147.359375 161.199219 152.515625 163.183594 157.078125 C 164.878906 161.128906 167.382812 164.734375 170.621094 167.605469 C 157.371094 171.140625 145.515625 178.132812 136.09375 187.558594 C 123.429688 200.21875 115.113281 217.375 113.785156 236.367188 L 113.785156 241.960938 C 113.785156 263.164062 122.398438 282.378906 136.3125 296.292969 C 150.226562 310.207031 169.441406 318.820312 190.644531 318.820312 C 223.847656 318.820312 253.886719 305.347656 275.601562 283.632812 C 297.320312 261.914062 310.792969 231.804688 310.792969 198.675781 C 310.792969 198.527344 310.792969 198.378906 310.792969 198.230469 C 310.792969 194.332031 310.71875 188.808594 310.71875 181.667969 C 310.71875 175.632812 310.71875 170.773438 310.71875 167.089844 C 310.71875 166.28125 310.71875 165.546875 310.71875 164.734375 C 310.71875 162.085938 308.585938 159.949219 305.933594 159.949219 C 303.285156 159.949219 301.148438 162.085938 301.148438 164.734375 L 301.148438 167.3125 C 300.78125 186.230469 295.332031 202.132812 284.804688 215.089844 C 275.015625 227.089844 260.65625 236.660156 241.957031 243.65625 C 239.308594 244.390625 236.65625 245.347656 233.859375 246.453125 C 231.503906 247.335938 230.253906 249.914062 231.0625 252.34375 C 231.871094 254.847656 234.523438 256.246094 237.101562 255.433594 L 237.394531 255.363281 C 239.898438 254.550781 242.328125 253.742188 244.683594 252.859375 C 248.804688 251.679688 252.632812 250.871094 256.167969 250.574219 C 261.542969 250.132812 266.105469 250.648438 269.785156 252.195312 C 272.214844 253.226562 275.015625 252.046875 276.042969 249.617188 C 277.074219 247.191406 275.898438 244.390625 273.46875 243.359375 C 271.773438 242.699219 270.082031 242.109375 268.242188 241.742188 C 277.886719 235.851562 285.910156 229.078125 292.316406 221.203125 C 295.554688 217.226562 298.425781 212.957031 300.855469 208.464844 C 298.570312 235.117188 286.792969 259.117188 268.902344 276.933594 C 248.878906 296.957031 221.269531 309.324219 190.71875 309.324219 C 172.167969 309.324219 155.382812 301.816406 143.160156 289.667969 C 131.011719 277.519531 123.503906 260.660156 123.503906 242.109375 L 123.503906 238.574219 C 124.386719 221.421875 131.75 205.960938 143.085938 194.550781 C 155.234375 182.402344 172.019531 174.894531 190.644531 174.894531 L 190.792969 174.894531 C 214.128906 174.96875 232.976562 169.152344 247.1875 160.6875 C 265.296875 149.863281 275.972656 134.476562 279.136719 120.929688 L 279.136719 120.785156 C 279.285156 120.121094 279.285156 119.460938 279.136719 118.871094 L 279.136719 118.722656 C 278.914062 117.839844 278.546875 117.101562 277.886719 116.441406 C 266.769531 104.585938 253.222656 95.015625 238.058594 88.464844 C 223.40625 82.132812 207.285156 78.601562 190.351562 78.601562 C 170.105469 78.601562 151.039062 83.605469 134.328125 92.441406 C 126.523438 96.710938 119.011719 101.789062 111.796875 107.902344 C 109.589844 109.816406 107.457031 111.800781 105.394531 113.863281 C 97.738281 121.445312 91.183594 130.132812 85.8125 139.558594 C 84.265625 142.429688 82.792969 145.300781 81.394531 148.097656 C 74.179688 163.484375 70.203125 180.710938 70.203125 198.820312 C 70.203125 211.632812 72.191406 223.925781 75.945312 235.558594 C 79.773438 247.558594 85.515625 258.746094 92.65625 268.761719 C 94.203125 270.894531 97.222656 271.410156 99.355469 269.863281 C 100.902344 268.761719 101.566406 266.917969 101.269531 265.152344 C 99.578125 247.558594 100.09375 229.960938 104.878906 213.988281 C 109.589844 198.304688 118.570312 184.171875 133.738281 173.421875 C 135.871094 171.875 136.386719 168.929688 134.839844 166.722656 C 132.855469 164.367188 129.835938 163.925781 127.699219 165.398438 Z M 310.058594 78.378906 C 340.828125 109.152344 359.824219 151.628906 359.824219 198.601562 C 359.824219 245.570312 340.828125 288.046875 310.058594 318.820312 C 279.285156 349.59375 236.804688 368.589844 189.835938 368.589844 C 142.867188 368.589844 100.386719 349.59375 69.613281 318.820312 C 38.914062 287.976562 19.847656 245.496094 19.847656 198.527344 C 19.847656 151.558594 38.839844 109.078125 69.613281 78.304688 C 100.386719 47.605469 142.941406 28.539062 189.835938 28.539062 C 236.804688 28.539062 279.285156 47.605469 310.058594 78.378906 Z M 189.835938 22.058594 C 238.570312 22.058594 282.671875 41.789062 314.621094 73.742188 C 346.574219 105.691406 366.300781 149.789062 366.300781 198.527344 C 366.300781 247.261719 346.574219 291.359375 314.621094 323.3125 C 282.671875 355.261719 238.570312 374.992188 189.835938 374.992188 C 141.097656 374.992188 97 355.261719 65.050781 323.3125 C 33.097656 291.433594 13.367188 247.261719 13.367188 198.527344 C 13.367188 149.789062 33.097656 105.691406 65.050781 73.742188 C 97 41.789062 141.097656 22.058594 189.835938 22.058594 Z M 303.429688 85.003906 C 278.472656 60.046875 245.417969 43.335938 208.535156 39.066406 L 208.535156 34.945312 C 246.523438 39.214844 280.609375 56.441406 306.300781 82.132812 C 331.996094 107.828125 349.222656 141.914062 353.492188 179.902344 L 349.445312 179.902344 C 345.101562 143.015625 328.316406 109.886719 303.429688 85.003906 Z M 353.492188 217.226562 C 349.222656 255.214844 331.996094 289.300781 306.300781 314.992188 C 280.609375 340.6875 246.523438 357.914062 208.535156 362.183594 L 208.535156 358.0625 C 245.417969 353.789062 278.472656 337.003906 303.429688 312.121094 C 328.386719 287.164062 345.101562 254.109375 349.371094 217.226562 Z M 171.210938 39.066406 C 134.328125 43.335938 101.269531 60.121094 76.3125 85.003906 C 51.355469 109.886719 34.644531 143.015625 30.300781 179.902344 L 26.179688 179.902344 C 30.449219 141.914062 47.675781 107.828125 73.371094 82.132812 C 99.0625 56.441406 133.148438 39.214844 171.136719 34.945312 L 171.136719 39.066406 Z M 30.375 217.226562 C 34.644531 254.109375 51.429688 287.164062 76.3125 312.121094 C 101.269531 337.078125 134.328125 353.789062 171.210938 358.0625 L 171.210938 362.183594 C 133.222656 357.914062 99.136719 340.6875 73.441406 314.992188 C 47.75 289.300781 30.523438 255.214844 26.253906 217.226562 Z M 278.695312 120.488281 Z M 190.203125 174.675781 Z M 236.585938 255.214844 Z M 218.621094 281.203125 C 227.898438 277.960938 236.511719 273.25 244.167969 267.140625 C 246.230469 265.519531 249.246094 265.890625 250.867188 267.949219 C 252.484375 270.011719 252.117188 273.03125 250.058594 274.648438 C 241.515625 281.421875 231.945312 286.648438 221.714844 290.257812 C 211.554688 293.789062 200.804688 295.632812 189.761719 295.632812 C 174.890625 295.632812 161.492188 289.59375 151.773438 279.875 C 142.054688 270.160156 136.019531 256.6875 136.019531 241.890625 C 136.019531 239.238281 138.15625 237.101562 140.804688 237.101562 C 143.457031 237.101562 145.589844 239.238281 145.589844 241.890625 C 145.589844 254.109375 150.523438 265.152344 158.546875 273.105469 C 166.5 281.054688 177.542969 286.0625 189.761719 286.0625 C 199.847656 286.0625 209.566406 284.367188 218.621094 281.203125 Z M 242.03125 131.460938 C 237.910156 131.460938 234.597656 128.144531 234.597656 124.023438 C 234.597656 119.902344 237.910156 116.585938 242.03125 116.585938 C 246.15625 116.585938 249.46875 119.902344 249.46875 124.023438 C 249.46875 128.144531 246.15625 131.460938 242.03125 131.460938 Z M 242.03125 131.460938 " fill-opacity="1" fill-rule="evenodd"/></g></svg>