<svg xmlns="http://www.w3.org/2000/svg" xmlns:xlink="http://www.w3.org/1999/xlink" width="500" zoomAndPan="magnify" viewBox="0 0 375 374.999991" height="500" preserveAspectRatio="xMidYMid meet" version="1.0"><defs><clipPath id="c72652c591"><path d="M 187.5 0 C 83.945312 0 0 83.945312 0 187.5 C 0 291.054688 83.945312 375 187.5 375 C 291.054688 375 375 291.054688 375 187.5 C 375 83.945312 291.054688 0 187.5 0 Z M 187.5 0 " clip-rule="nonzero"/></clipPath><clipPath id="c80742643f"><path d="M 31.648438 31.648438 L 343.648438 31.648438 L 343.648438 343.648438 L 31.648438 343.648438 Z M 31.648438 31.648438 " clip-rule="nonzero"/></clipPath></defs><g clip-path="url(#c72652c591)"><path stroke-linecap="butt" transform="matrix(0.75, 0, 0, 0.75, 0.0000045, 0)" fill="none" stroke-linejoin="miter" d="M 250.00001 0 C 111.927085 0 -0.000006 111.927091 -0.000006 250.000016 C -0.000006 388.072942 111.927085 500.000033 250.00001 500.000033 C 388.072936 500.000033 500.000027 388.072942 500.000027 250.000016 C 500.000027 111.927091 388.072936 0 250.00001 0 Z M 250.00001 0 " stroke="#ffffff" stroke-width="60" stroke-opacity="1" stroke-miterlimit="4"/></g><g clip-path="url(#c80742643f)"><path fill="#ffffff" d="M 132.621094 158.234375 C 117.46875 168.964844 108.5625 182.941406 103.882812 198.546875 C 100.890625 208.558594 99.589844 219.222656 99.589844 230.015625 C 97.640625 225.917969 95.882812 221.695312 94.519531 217.335938 C 91.527344 207.976562 89.902344 197.898438 89.902344 187.496094 C 89.902344 160.511719 100.824219 136.128906 118.511719 118.445312 C 136.195312 100.761719 160.578125 89.835938 187.558594 89.835938 C 201.34375 89.835938 214.476562 92.699219 226.308594 97.835938 C 235.738281 101.929688 244.386719 107.390625 251.992188 114.089844 C 255.761719 117.40625 256.671875 121.109375 254.65625 125.011719 C 250.691406 132.683594 243.605469 140.488281 233.460938 146.53125 C 222.082031 153.359375 206.933594 157.976562 188.015625 157.910156 L 187.949219 157.910156 C 183.464844 157.910156 179.820312 156.675781 177.089844 154.660156 C 174.6875 152.839844 172.867188 150.371094 171.695312 147.574219 C 170.460938 144.582031 169.808594 141.203125 169.808594 137.691406 C 169.808594 131.449219 171.761719 124.945312 175.597656 119.8125 C 177.027344 117.925781 176.636719 115.257812 174.75 113.894531 C 172.867188 112.464844 170.199219 112.855469 168.835938 114.738281 C 163.894531 121.371094 161.355469 129.695312 161.355469 137.691406 C 161.355469 142.308594 162.203125 146.859375 163.957031 150.890625 C 165.453125 154.464844 167.664062 157.652344 170.523438 160.1875 C 158.820312 163.308594 148.355469 169.484375 140.03125 177.808594 C 128.847656 188.988281 121.5 204.140625 120.332031 220.914062 L 120.332031 225.855469 C 120.332031 244.578125 127.9375 261.550781 140.226562 273.839844 C 152.515625 286.125 169.484375 293.734375 188.210938 293.734375 C 217.53125 293.734375 244.058594 281.835938 263.238281 262.65625 C 282.421875 243.476562 294.320312 216.882812 294.320312 187.625 C 294.320312 187.496094 294.320312 187.363281 294.320312 187.234375 C 294.320312 183.789062 294.253906 178.910156 294.253906 172.605469 C 294.253906 167.273438 294.253906 162.984375 294.253906 159.730469 C 294.253906 159.015625 294.253906 158.367188 294.253906 157.652344 C 294.253906 155.3125 292.367188 153.425781 290.027344 153.425781 C 287.6875 153.425781 285.800781 155.3125 285.800781 157.652344 L 285.800781 159.925781 C 285.476562 176.636719 280.664062 190.679688 271.367188 202.125 C 262.71875 212.722656 250.042969 221.171875 233.527344 227.351562 C 231.1875 228 228.84375 228.847656 226.375 229.820312 C 224.292969 230.601562 223.1875 232.875 223.902344 235.023438 C 224.621094 237.234375 226.960938 238.46875 229.234375 237.753906 L 229.496094 237.6875 C 231.707031 236.972656 233.851562 236.257812 235.933594 235.476562 C 239.574219 234.4375 242.953125 233.722656 246.074219 233.460938 C 250.820312 233.070312 254.851562 233.527344 258.105469 234.890625 C 260.25 235.800781 262.71875 234.761719 263.628906 232.617188 C 264.539062 230.472656 263.5 228 261.355469 227.089844 C 259.859375 226.503906 258.363281 225.984375 256.738281 225.660156 C 265.253906 220.457031 272.34375 214.476562 278 207.519531 C 280.859375 204.007812 283.394531 200.238281 285.542969 196.273438 C 283.527344 219.808594 273.121094 241.003906 257.324219 256.738281 C 239.636719 274.421875 215.257812 285.347656 188.273438 285.347656 C 171.890625 285.347656 157.066406 278.714844 146.273438 267.988281 C 135.546875 257.257812 128.914062 242.371094 128.914062 225.984375 L 128.914062 222.863281 C 129.695312 207.714844 136.195312 194.0625 146.207031 183.984375 C 156.9375 173.253906 171.761719 166.625 188.210938 166.625 L 188.339844 166.625 C 208.949219 166.6875 225.59375 161.550781 238.144531 154.074219 C 254.136719 144.519531 263.566406 130.929688 266.359375 118.964844 L 266.359375 118.835938 C 266.492188 118.25 266.492188 117.664062 266.359375 117.144531 L 266.359375 117.015625 C 266.164062 116.234375 265.839844 115.585938 265.253906 115 C 255.4375 104.53125 243.476562 96.078125 230.082031 90.292969 C 217.140625 84.703125 202.902344 81.582031 187.949219 81.582031 C 170.070312 81.582031 153.230469 86 138.472656 93.804688 C 131.578125 97.574219 124.945312 102.0625 118.574219 107.457031 C 116.625 109.148438 114.738281 110.902344 112.917969 112.722656 C 106.15625 119.421875 100.371094 127.09375 95.625 135.414062 C 94.257812 137.949219 92.957031 140.488281 91.722656 142.957031 C 85.351562 156.546875 81.839844 171.761719 81.839844 187.753906 C 81.839844 199.066406 83.597656 209.925781 86.910156 220.199219 C 90.292969 230.796875 95.363281 240.679688 101.671875 249.519531 C 103.035156 251.40625 105.703125 251.863281 107.585938 250.496094 C 108.953125 249.519531 109.539062 247.894531 109.277344 246.335938 C 107.78125 230.796875 108.238281 215.257812 112.464844 201.148438 C 116.625 187.300781 124.558594 174.816406 137.949219 165.324219 C 139.835938 163.957031 140.292969 161.355469 138.925781 159.40625 C 137.171875 157.324219 134.503906 156.9375 132.621094 158.234375 Z M 293.667969 81.386719 C 320.847656 108.5625 337.621094 146.078125 337.621094 187.558594 C 337.621094 229.039062 320.847656 266.554688 293.667969 293.734375 C 266.492188 320.910156 228.976562 337.683594 187.496094 337.683594 C 146.011719 337.683594 108.496094 320.910156 81.320312 293.734375 C 54.207031 266.492188 37.367188 228.976562 37.367188 187.496094 C 37.367188 146.011719 54.144531 108.496094 81.320312 81.320312 C 108.496094 54.207031 146.078125 37.367188 187.496094 37.367188 C 228.976562 37.367188 266.492188 54.207031 293.667969 81.386719 Z M 187.496094 31.648438 C 230.535156 31.648438 269.480469 49.070312 297.699219 77.289062 C 325.917969 105.507812 343.34375 144.453125 343.34375 187.496094 C 343.34375 230.535156 325.917969 269.480469 297.699219 297.699219 C 269.480469 325.917969 230.535156 343.34375 187.496094 343.34375 C 144.453125 343.34375 105.507812 325.917969 77.289062 297.699219 C 49.070312 269.546875 31.648438 230.535156 31.648438 187.496094 C 31.648438 144.453125 49.070312 105.507812 77.289062 77.289062 C 105.507812 49.070312 144.453125 31.648438 187.496094 31.648438 Z M 287.816406 87.238281 C 265.777344 65.195312 236.582031 50.4375 204.007812 46.664062 L 204.007812 43.023438 C 237.558594 46.796875 267.660156 62.011719 290.351562 84.703125 C 313.042969 107.390625 328.257812 137.496094 332.027344 171.042969 L 328.453125 171.042969 C 324.617188 138.472656 309.792969 109.210938 287.816406 87.238281 Z M 332.027344 204.007812 C 328.257812 237.558594 313.042969 267.660156 290.351562 290.351562 C 267.660156 313.042969 237.558594 328.257812 204.007812 332.027344 L 204.007812 328.386719 C 236.582031 324.617188 265.777344 309.792969 287.816406 287.816406 C 309.859375 265.777344 324.617188 236.582031 328.386719 204.007812 Z M 171.042969 46.664062 C 138.472656 50.4375 109.277344 65.261719 87.238281 87.238281 C 65.195312 109.210938 50.4375 138.472656 46.601562 171.042969 L 42.960938 171.042969 C 46.730469 137.496094 61.945312 107.390625 84.636719 84.703125 C 107.328125 62.011719 137.429688 46.796875 170.980469 43.023438 L 170.980469 46.664062 Z M 46.664062 204.007812 C 50.4375 236.582031 65.261719 265.777344 87.238281 287.816406 C 109.277344 309.859375 138.472656 324.617188 171.042969 328.386719 L 171.042969 332.027344 C 137.496094 328.257812 107.390625 313.042969 84.703125 290.351562 C 62.011719 267.660156 46.796875 237.558594 43.023438 204.007812 Z M 265.972656 118.574219 Z M 187.820312 166.429688 Z M 228.78125 237.558594 Z M 212.917969 260.507812 C 221.109375 257.648438 228.714844 253.488281 235.476562 248.089844 C 237.296875 246.660156 239.964844 246.984375 241.394531 248.804688 C 242.824219 250.625 242.5 253.292969 240.679688 254.722656 C 233.136719 260.703125 224.683594 265.320312 215.648438 268.507812 C 206.675781 271.628906 197.183594 273.253906 187.429688 273.253906 C 174.296875 273.253906 162.460938 267.921875 153.878906 259.339844 C 145.296875 250.757812 139.964844 238.859375 139.964844 225.789062 C 139.964844 223.449219 141.851562 221.5625 144.191406 221.5625 C 146.53125 221.5625 148.417969 223.449219 148.417969 225.789062 C 148.417969 236.582031 152.773438 246.335938 159.863281 253.355469 C 166.882812 260.378906 176.636719 264.800781 187.429688 264.800781 C 196.335938 264.800781 204.917969 263.304688 212.917969 260.507812 Z M 233.59375 128.261719 C 229.949219 128.261719 227.023438 125.335938 227.023438 121.695312 C 227.023438 118.054688 229.949219 115.128906 233.59375 115.128906 C 237.234375 115.128906 240.160156 118.054688 240.160156 121.695312 C 240.160156 125.335938 237.234375 128.261719 233.59375 128.261719 Z M 233.59375 128.261719 " fill-opacity="1" fill-rule="evenodd"/></g></svg>