<svg xmlns="http://www.w3.org/2000/svg" xmlns:xlink="http://www.w3.org/1999/xlink" width="851" zoomAndPan="magnify" viewBox="0 0 638.25 236.249991" height="315" preserveAspectRatio="xMidYMid meet" version="1.0"><defs><g/></defs><g fill="#ffffff" fill-opacity="1"><g transform="translate(3.90563, 157.882257)"><g><path d="M 5.59375 -7.390625 C 7.601562 -7.460938 9.128906 -7.703125 10.171875 -8.109375 C 11.222656 -8.523438 12.046875 -9.398438 12.640625 -10.734375 C 13.242188 -12.078125 13.546875 -14.207031 13.546875 -17.125 L 13.546875 -59.984375 C 13.546875 -64.160156 13.691406 -67.515625 13.984375 -70.046875 L 5.59375 -69.71875 L 5.59375 -78.328125 L 61.546875 -78.328125 L 62.21875 -56.625 L 54.828125 -56.625 C 54.828125 -62.144531 53.503906 -65.96875 50.859375 -68.09375 C 48.210938 -70.21875 45.023438 -71.207031 41.296875 -71.0625 L 37.265625 -70.953125 C 35.472656 -70.878906 34.054688 -70.632812 33.015625 -70.21875 C 31.972656 -69.8125 31.171875 -68.898438 30.609375 -67.484375 C 30.046875 -66.066406 29.765625 -63.976562 29.765625 -61.21875 L 29.765625 -41.734375 L 41.296875 -41.734375 C 41.222656 -42.710938 41.070312 -45.921875 40.84375 -51.359375 L 49.46875 -51.359375 L 49.46875 -24.171875 L 42.078125 -24.171875 C 42.078125 -27.148438 41.609375 -29.367188 40.671875 -30.828125 C 39.742188 -32.285156 38.515625 -33.195312 36.984375 -33.5625 C 35.453125 -33.9375 33.492188 -34.085938 31.109375 -34.015625 L 29.765625 -34.015625 L 29.765625 -18.359375 C 29.765625 -14.171875 29.613281 -10.8125 29.3125 -8.28125 C 31.707031 -8.5 35.03125 -8.609375 39.28125 -8.609375 L 39.28125 0 L 5.59375 0 Z M 5.59375 -7.390625 "/></g></g></g><g fill="#ffffff" fill-opacity="1"><g transform="translate(70.027798, 157.882257)"><g><path d="M 20.359375 -67.03125 C 17.828125 -67.03125 15.738281 -67.90625 14.09375 -69.65625 C 12.457031 -71.414062 11.640625 -73.5625 11.640625 -76.09375 C 11.640625 -78.632812 12.492188 -80.816406 14.203125 -82.640625 C 15.921875 -84.472656 17.9375 -85.390625 20.25 -85.390625 C 22.644531 -85.390625 24.640625 -84.492188 26.234375 -82.703125 C 27.835938 -80.910156 28.640625 -78.707031 28.640625 -76.09375 C 28.640625 -73.476562 27.875 -71.3125 26.34375 -69.59375 C 24.820312 -67.882812 22.828125 -67.03125 20.359375 -67.03125 Z M 4.59375 -7.28125 C 7.425781 -7.28125 9.234375 -8.0625 10.015625 -9.625 C 10.796875 -11.1875 11.1875 -13.722656 11.1875 -17.234375 L 11.1875 -35.8125 C 11.1875 -39.3125 11.335938 -42.554688 11.640625 -45.546875 L 3.8125 -45.203125 L 3.8125 -53.71875 C 8.507812 -53.71875 12.3125 -54.050781 15.21875 -54.71875 C 18.125 -55.394531 20.0625 -56.179688 21.03125 -57.078125 L 27.078125 -57.078125 L 27.078125 -18.015625 C 27.078125 -14.429688 26.929688 -11.148438 26.640625 -8.171875 C 29.023438 -8.390625 31.445312 -8.5 33.90625 -8.5 L 33.90625 0 L 4.59375 0 Z M 4.59375 -7.28125 "/></g></g></g><g fill="#ffffff" fill-opacity="1"><g transform="translate(108.85111, 157.882257)"><g><path d="M 30.328125 1.796875 C 27.117188 1.796875 23.984375 1.382812 20.921875 0.5625 C 17.867188 -0.257812 15.484375 -1.304688 13.765625 -2.578125 L 13.65625 -2.578125 L 13.984375 0.78125 L 5.484375 0.78125 L 5.03125 -18.46875 L 12.3125 -18.46875 C 12.6875 -15.03125 14.492188 -12.132812 17.734375 -9.78125 C 20.984375 -7.4375 24.957031 -6.265625 29.65625 -6.265625 C 31.738281 -6.265625 33.546875 -6.75 35.078125 -7.71875 C 36.609375 -8.6875 37.375 -10.066406 37.375 -11.859375 C 37.375 -13.203125 36.890625 -14.320312 35.921875 -15.21875 C 34.953125 -16.113281 33.796875 -16.859375 32.453125 -17.453125 C 31.109375 -18.054688 28.421875 -19.140625 24.390625 -20.703125 C 19.617188 -22.566406 16.039062 -24.09375 13.65625 -25.28125 C 11.269531 -26.476562 9.125 -28.25 7.21875 -30.59375 C 5.3125 -32.945312 4.359375 -35.992188 4.359375 -39.734375 C 4.359375 -42.785156 5.125 -45.671875 6.65625 -48.390625 C 8.1875 -51.117188 10.535156 -53.359375 13.703125 -55.109375 C 16.878906 -56.867188 20.78125 -57.75 25.40625 -57.75 C 27.5625 -57.75 29.90625 -57.410156 32.4375 -56.734375 C 34.976562 -56.066406 37.109375 -55.132812 38.828125 -53.9375 L 38.9375 -53.9375 L 38.828125 -57.1875 L 47.34375 -57.1875 L 47.34375 -37.375 L 40.0625 -37.375 C 39.394531 -41.257812 37.679688 -44.316406 34.921875 -46.546875 C 32.160156 -48.785156 28.765625 -49.90625 24.734375 -49.90625 C 22.640625 -49.90625 20.882812 -49.421875 19.46875 -48.453125 C 18.050781 -47.484375 17.34375 -45.992188 17.34375 -43.984375 C 17.34375 -41.890625 18.160156 -40.335938 19.796875 -39.328125 C 21.441406 -38.328125 24.207031 -37.191406 28.09375 -35.921875 C 28.539062 -35.847656 29.507812 -35.550781 31 -35.03125 C 37.34375 -32.789062 42.207031 -30.175781 45.59375 -27.1875 C 48.988281 -24.207031 50.6875 -20.289062 50.6875 -15.4375 C 50.6875 -11.707031 49.734375 -8.554688 47.828125 -5.984375 C 45.929688 -3.410156 43.4375 -1.46875 40.34375 -0.15625 C 37.25 1.144531 33.910156 1.796875 30.328125 1.796875 Z M 30.328125 1.796875 "/></g></g></g><g fill="#ffffff" fill-opacity="1"><g transform="translate(165.351527, 157.882257)"><g><path d="M 2.796875 -7.28125 C 4.804688 -7.28125 6.273438 -7.671875 7.203125 -8.453125 C 8.140625 -9.234375 8.738281 -10.296875 9 -11.640625 C 9.269531 -12.984375 9.40625 -14.847656 9.40625 -17.234375 L 9.40625 -63.234375 C 9.40625 -66.804688 9.550781 -70.050781 9.84375 -72.96875 L 2.015625 -72.625 L 2.015625 -81.125 C 6.710938 -81.125 10.515625 -81.457031 13.421875 -82.125 C 16.335938 -82.800781 18.28125 -83.585938 19.25 -84.484375 L 25.296875 -84.484375 L 25.296875 -51.484375 C 27.453125 -53.191406 30.132812 -54.660156 33.34375 -55.890625 C 36.550781 -57.128906 39.3125 -57.75 41.625 -57.75 C 48.34375 -57.75 53.15625 -55.804688 56.0625 -51.921875 C 58.96875 -48.046875 60.460938 -41.742188 60.546875 -33.015625 L 60.546875 -18.015625 C 60.546875 -14.429688 60.394531 -11.148438 60.09375 -8.171875 C 62.476562 -8.390625 64.90625 -8.5 67.375 -8.5 L 67.375 0 L 37.9375 0 L 37.9375 -7.28125 C 40.769531 -7.28125 42.597656 -8.0625 43.421875 -9.625 C 44.242188 -11.1875 44.65625 -13.722656 44.65625 -17.234375 L 44.53125 -33.125 C 44.53125 -38.050781 43.800781 -41.671875 42.34375 -43.984375 C 40.894531 -46.296875 38.601562 -47.453125 35.46875 -47.453125 C 33.675781 -47.453125 31.847656 -47.054688 29.984375 -46.265625 C 28.117188 -45.484375 26.554688 -44.5 25.296875 -43.3125 L 25.296875 -18.015625 C 25.296875 -14.429688 25.144531 -11.148438 24.84375 -8.171875 C 27.300781 -8.390625 29.722656 -8.5 32.109375 -8.5 L 32.109375 0 L 2.796875 0 Z M 2.796875 -7.28125 "/></g></g></g><g fill="#ffffff" fill-opacity="1"><g transform="translate(237.06773, 157.882257)"><g><path d="M 20.359375 -67.03125 C 17.828125 -67.03125 15.738281 -67.90625 14.09375 -69.65625 C 12.457031 -71.414062 11.640625 -73.5625 11.640625 -76.09375 C 11.640625 -78.632812 12.492188 -80.816406 14.203125 -82.640625 C 15.921875 -84.472656 17.9375 -85.390625 20.25 -85.390625 C 22.644531 -85.390625 24.640625 -84.492188 26.234375 -82.703125 C 27.835938 -80.910156 28.640625 -78.707031 28.640625 -76.09375 C 28.640625 -73.476562 27.875 -71.3125 26.34375 -69.59375 C 24.820312 -67.882812 22.828125 -67.03125 20.359375 -67.03125 Z M 4.59375 -7.28125 C 7.425781 -7.28125 9.234375 -8.0625 10.015625 -9.625 C 10.796875 -11.1875 11.1875 -13.722656 11.1875 -17.234375 L 11.1875 -35.8125 C 11.1875 -39.3125 11.335938 -42.554688 11.640625 -45.546875 L 3.8125 -45.203125 L 3.8125 -53.71875 C 8.507812 -53.71875 12.3125 -54.050781 15.21875 -54.71875 C 18.125 -55.394531 20.0625 -56.179688 21.03125 -57.078125 L 27.078125 -57.078125 L 27.078125 -18.015625 C 27.078125 -14.429688 26.929688 -11.148438 26.640625 -8.171875 C 29.023438 -8.390625 31.445312 -8.5 33.90625 -8.5 L 33.90625 0 L 4.59375 0 Z M 4.59375 -7.28125 "/></g></g></g><g fill="#ffffff" fill-opacity="1"><g transform="translate(275.891042, 157.882257)"><g><path d="M 4.59375 -7.28125 C 7.425781 -7.28125 9.234375 -8.0625 10.015625 -9.625 C 10.796875 -11.1875 11.1875 -13.722656 11.1875 -17.234375 L 11.1875 -36.03125 C 11.1875 -39.382812 11.335938 -42.554688 11.640625 -45.546875 L 3.8125 -45.203125 L 3.8125 -53.71875 C 8.507812 -53.71875 12.3125 -54.050781 15.21875 -54.71875 C 18.125 -55.394531 20.0625 -56.179688 21.03125 -57.078125 L 26.515625 -57.078125 C 26.515625 -56.921875 26.664062 -55.054688 26.96875 -51.484375 L 27.1875 -51.484375 C 29.351562 -53.191406 32.019531 -54.660156 35.1875 -55.890625 C 38.363281 -57.128906 41.070312 -57.75 43.3125 -57.75 C 50.09375 -57.75 54.9375 -55.804688 57.84375 -51.921875 C 60.757812 -48.046875 62.21875 -41.742188 62.21875 -33.015625 L 62.21875 -18.015625 C 62.21875 -14.429688 62.066406 -11.148438 61.765625 -8.171875 C 64.234375 -8.390625 66.660156 -8.5 69.046875 -8.5 L 69.046875 0 L 39.734375 0 L 39.734375 -7.28125 C 42.566406 -7.28125 44.390625 -8.0625 45.203125 -9.625 C 46.023438 -11.1875 46.4375 -13.722656 46.4375 -17.234375 L 46.328125 -33.125 C 46.328125 -38.050781 45.632812 -41.671875 44.25 -43.984375 C 42.875 -46.296875 40.546875 -47.453125 37.265625 -47.453125 C 35.472656 -47.453125 33.644531 -47.054688 31.78125 -46.265625 C 29.914062 -45.484375 28.347656 -44.5 27.078125 -43.3125 L 27.078125 -18.015625 C 27.078125 -14.429688 26.929688 -11.148438 26.640625 -8.171875 C 29.023438 -8.390625 31.445312 -8.5 33.90625 -8.5 L 33.90625 0 L 4.59375 0 Z M 4.59375 -7.28125 "/></g></g></g><g fill="#ffffff" fill-opacity="1"><g transform="translate(349.285422, 157.882257)"><g><path d="M 28.640625 30.328125 C 19.617188 30.328125 13.113281 28.945312 9.125 26.1875 C 5.132812 23.425781 3.140625 19.921875 3.140625 15.671875 C 3.140625 13.054688 3.976562 10.609375 5.65625 8.328125 C 7.332031 6.054688 10.035156 4.210938 13.765625 2.796875 C 10.859375 1.972656 8.75 0.707031 7.4375 -1 C 6.132812 -2.71875 5.484375 -4.734375 5.484375 -7.046875 C 5.484375 -9.285156 6.359375 -11.5625 8.109375 -13.875 C 9.867188 -16.1875 12.613281 -17.90625 16.34375 -19.03125 L 16.34375 -19.140625 C 12.976562 -20.484375 10.304688 -22.585938 8.328125 -25.453125 C 6.359375 -28.328125 5.375 -31.742188 5.375 -35.703125 C 5.375 -39.878906 6.546875 -43.644531 8.890625 -47 C 11.242188 -50.351562 14.34375 -52.984375 18.1875 -54.890625 C 22.03125 -56.796875 26.078125 -57.75 30.328125 -57.75 C 32.566406 -57.75 34.914062 -57.46875 37.375 -56.90625 C 39.832031 -56.34375 41.921875 -55.46875 43.640625 -54.28125 C 45.054688 -58.15625 46.957031 -61.378906 49.34375 -63.953125 C 51.738281 -66.523438 54.578125 -67.8125 57.859375 -67.8125 C 60.316406 -67.8125 62.21875 -67.175781 63.5625 -65.90625 C 64.90625 -64.644531 65.578125 -62.894531 65.578125 -60.65625 C 65.578125 -58.9375 65.035156 -57.367188 63.953125 -55.953125 C 62.867188 -54.535156 61.171875 -53.828125 58.859375 -53.828125 C 57.671875 -53.828125 56.5 -54.253906 55.34375 -55.109375 C 54.1875 -55.972656 53.492188 -57 53.265625 -58.1875 C 52.296875 -57.894531 51.328125 -56.945312 50.359375 -55.34375 C 49.390625 -53.738281 48.828125 -52.265625 48.671875 -50.921875 C 50.765625 -49.054688 52.390625 -46.890625 53.546875 -44.421875 C 54.703125 -41.960938 55.28125 -39.316406 55.28125 -36.484375 C 55.28125 -32.304688 54.085938 -28.519531 51.703125 -25.125 C 49.316406 -21.726562 46.179688 -19.078125 42.296875 -17.171875 C 38.421875 -15.273438 34.28125 -14.328125 29.875 -14.328125 L 26.75 -14.4375 C 25.101562 -14.582031 23.910156 -14.65625 23.171875 -14.65625 C 21.523438 -14.65625 20.140625 -14.359375 19.015625 -13.765625 C 17.898438 -13.171875 17.34375 -12.347656 17.34375 -11.296875 C 17.34375 -9.953125 18.367188 -9 20.421875 -8.4375 C 22.472656 -7.882812 26.222656 -7.457031 31.671875 -7.15625 C 41.066406 -6.632812 48.1875 -5.066406 53.03125 -2.453125 C 57.882812 0.148438 60.3125 4.507812 60.3125 10.625 C 60.3125 14.65625 58.765625 18.160156 55.671875 21.140625 C 52.578125 24.128906 48.585938 26.40625 43.703125 27.96875 C 38.816406 29.539062 33.796875 30.328125 28.640625 30.328125 Z M 30.328125 -21.828125 C 33.160156 -21.828125 35.414062 -23.09375 37.09375 -25.625 C 38.769531 -28.164062 39.609375 -31.113281 39.609375 -34.46875 C 39.609375 -38.71875 38.785156 -42.410156 37.140625 -45.546875 C 35.503906 -48.679688 33.195312 -50.25 30.21875 -50.25 C 27.382812 -50.25 25.109375 -48.941406 23.390625 -46.328125 C 21.671875 -43.710938 20.8125 -40.617188 20.8125 -37.046875 C 20.8125 -32.867188 21.671875 -29.285156 23.390625 -26.296875 C 25.109375 -23.316406 27.421875 -21.828125 30.328125 -21.828125 Z M 31.890625 22.609375 C 35.242188 22.609375 38.132812 22.160156 40.5625 21.265625 C 42.988281 20.367188 44.832031 19.226562 46.09375 17.84375 C 47.363281 16.46875 48 15.070312 48 13.65625 C 48 11.34375 46.675781 9.585938 44.03125 8.390625 C 41.382812 7.203125 37.335938 6.492188 31.890625 6.265625 C 31.296875 6.191406 30.328125 6.15625 28.984375 6.15625 C 28.234375 6.082031 26.925781 5.988281 25.0625 5.875 C 23.195312 5.757812 21.671875 5.59375 20.484375 5.375 C 19.359375 6.269531 18.476562 7.425781 17.84375 8.84375 C 17.207031 10.257812 16.890625 11.675781 16.890625 13.09375 C 16.890625 16 18.25 18.3125 20.96875 20.03125 C 23.695312 21.75 27.335938 22.609375 31.890625 22.609375 Z M 31.890625 22.609375 "/></g></g></g><g fill="#ffffff" fill-opacity="1"><g transform="translate(413.841269, 157.882257)"><g><path d="M 4.59375 -7.28125 C 7.425781 -7.28125 9.234375 -8.0625 10.015625 -9.625 C 10.796875 -11.1875 11.1875 -13.722656 11.1875 -17.234375 L 11.1875 -36.03125 C 11.1875 -39.382812 11.335938 -42.554688 11.640625 -45.546875 L 3.8125 -45.203125 L 3.8125 -53.71875 C 8.507812 -53.71875 12.3125 -54.050781 15.21875 -54.71875 C 18.125 -55.394531 20.0625 -56.179688 21.03125 -57.078125 L 26.515625 -57.078125 C 26.671875 -55.953125 26.785156 -54.492188 26.859375 -52.703125 C 26.929688 -50.910156 26.96875 -49.160156 26.96875 -47.453125 L 27.1875 -47.453125 C 32.257812 -54.316406 37.632812 -57.75 43.3125 -57.75 C 46.144531 -57.75 48.472656 -56.960938 50.296875 -55.390625 C 52.128906 -53.828125 53.046875 -51.515625 53.046875 -48.453125 C 53.046875 -46.515625 52.410156 -44.722656 51.140625 -43.078125 C 49.867188 -41.441406 47.96875 -40.625 45.4375 -40.625 C 43.570312 -40.625 41.910156 -41.109375 40.453125 -42.078125 C 38.992188 -43.046875 38.15625 -44.722656 37.9375 -47.109375 C 35.84375 -47.109375 33.695312 -45.894531 31.5 -43.46875 C 29.300781 -41.050781 27.828125 -38.644531 27.078125 -36.25 L 27.078125 -18.015625 C 27.078125 -14.429688 26.929688 -11.148438 26.640625 -8.171875 C 29.023438 -8.390625 31.445312 -8.5 33.90625 -8.5 L 33.90625 0 L 4.59375 0 Z M 4.59375 -7.28125 "/></g></g></g><g fill="#ffffff" fill-opacity="1"><g transform="translate(469.782293, 157.882257)"><g><path d="M 18.578125 1.796875 C 13.878906 1.796875 10.164062 0.394531 7.4375 -2.40625 C 4.71875 -5.207031 3.359375 -8.769531 3.359375 -13.09375 C 3.359375 -19.65625 6.414062 -24.632812 12.53125 -28.03125 C 18.644531 -31.425781 25.992188 -33.3125 34.578125 -33.6875 L 34.578125 -39.5 C 34.578125 -46.289062 32.039062 -49.6875 26.96875 -49.6875 C 23.6875 -49.6875 21 -48.640625 18.90625 -46.546875 C 19.800781 -45.503906 20.25 -44.085938 20.25 -42.296875 C 20.25 -40.503906 19.632812 -38.898438 18.40625 -37.484375 C 17.175781 -36.066406 15.367188 -35.359375 12.984375 -35.359375 C 10.742188 -35.359375 8.988281 -36.085938 7.71875 -37.546875 C 6.445312 -39.003906 5.8125 -40.8125 5.8125 -42.96875 C 5.8125 -45.882812 6.851562 -48.457031 8.9375 -50.6875 C 11.03125 -52.925781 13.882812 -54.660156 17.5 -55.890625 C 21.125 -57.128906 25.101562 -57.75 29.4375 -57.75 C 43.238281 -57.75 50.140625 -50.625 50.140625 -36.375 L 50.015625 -18.015625 C 50.015625 -14.429688 49.867188 -11.148438 49.578125 -8.171875 C 52.035156 -8.390625 54.457031 -8.5 56.84375 -8.5 L 56.84375 0 L 35.703125 0 C 35.546875 -0.96875 35.394531 -2.679688 35.25 -5.140625 L 35.140625 -5.140625 C 30.585938 -0.515625 25.066406 1.796875 18.578125 1.796875 Z M 25.625 -9.171875 C 28.976562 -9.171875 31.925781 -10.515625 34.46875 -13.203125 L 34.46875 -25.734375 C 30.0625 -25.285156 26.421875 -24.164062 23.546875 -22.375 C 20.679688 -20.59375 19.25 -18.171875 19.25 -15.109375 C 19.25 -13.085938 19.863281 -11.59375 21.09375 -10.625 C 22.320312 -9.65625 23.832031 -9.171875 25.625 -9.171875 Z M 25.625 -9.171875 "/></g></g></g><g fill="#ffffff" fill-opacity="1"><g transform="translate(530.646067, 157.882257)"><g><path d="M 4.59375 -7.28125 C 7.425781 -7.28125 9.234375 -8.0625 10.015625 -9.625 C 10.796875 -11.1875 11.1875 -13.722656 11.1875 -17.234375 L 11.1875 -36.03125 C 11.1875 -39.382812 11.335938 -42.554688 11.640625 -45.546875 L 3.8125 -45.203125 L 3.8125 -53.71875 C 8.507812 -53.71875 12.3125 -54.050781 15.21875 -54.71875 C 18.125 -55.394531 20.0625 -56.179688 21.03125 -57.078125 L 26.515625 -57.078125 C 26.515625 -56.921875 26.664062 -55.054688 26.96875 -51.484375 L 27.1875 -51.484375 C 29.5 -53.347656 32.109375 -54.859375 35.015625 -56.015625 C 37.929688 -57.171875 40.769531 -57.75 43.53125 -57.75 C 46.882812 -57.75 49.695312 -57.128906 51.96875 -55.890625 C 54.25 -54.660156 56.0625 -52.816406 57.40625 -50.359375 C 60.09375 -52.597656 63.078125 -54.390625 66.359375 -55.734375 C 69.640625 -57.078125 72.738281 -57.75 75.65625 -57.75 C 81.84375 -57.75 86.445312 -55.957031 89.46875 -52.375 C 92.488281 -48.789062 94 -42.820312 94 -34.46875 L 94 -18.015625 C 94 -14.429688 93.847656 -11.148438 93.546875 -8.171875 C 95.941406 -8.390625 98.367188 -8.5 100.828125 -8.5 L 100.828125 0 L 72.515625 0 L 72.515625 -7.28125 C 74.898438 -7.28125 76.425781 -8.078125 77.09375 -9.671875 C 77.769531 -11.273438 78.109375 -13.796875 78.109375 -17.234375 L 78.109375 -34.359375 C 78.035156 -39.054688 77.25 -42.394531 75.75 -44.375 C 74.257812 -46.351562 72.097656 -47.34375 69.265625 -47.34375 C 65.984375 -47.34375 62.773438 -46.109375 59.640625 -43.640625 C 60.316406 -40.660156 60.65625 -37.117188 60.65625 -33.015625 L 60.65625 -18.015625 C 60.65625 -14.429688 60.503906 -11.148438 60.203125 -8.171875 C 62.585938 -8.390625 65.015625 -8.5 67.484375 -8.5 L 67.484375 0 L 38.609375 0 L 38.609375 -7.28125 C 41.222656 -7.28125 42.898438 -8.0625 43.640625 -9.625 C 44.390625 -11.1875 44.765625 -13.722656 44.765625 -17.234375 L 44.65625 -34.6875 C 44.65625 -39.3125 43.984375 -42.578125 42.640625 -44.484375 C 41.296875 -46.390625 39.28125 -47.378906 36.59375 -47.453125 C 33.3125 -47.453125 30.140625 -46.070312 27.078125 -43.3125 L 27.078125 -18.015625 C 27.078125 -14.429688 26.929688 -11.148438 26.640625 -8.171875 C 29.023438 -8.390625 31.257812 -8.5 33.34375 -8.5 L 33.34375 0 L 4.59375 0 Z M 4.59375 -7.28125 "/></g></g></g></svg>