<svg xmlns="http://www.w3.org/2000/svg" xmlns:xlink="http://www.w3.org/1999/xlink" width="851" zoomAndPan="magnify" viewBox="0 0 638.25 236.249991" height="315" preserveAspectRatio="xMidYMid meet" version="1.0"><defs><g/></defs><g fill="#ffffff" fill-opacity="1"><g transform="translate(8.0883, 104.829457)"><g><path d="M 5.515625 -7.28125 C 7.503906 -7.351562 9.015625 -7.59375 10.046875 -8 C 11.078125 -8.40625 11.882812 -9.269531 12.46875 -10.59375 C 13.0625 -11.925781 13.359375 -14.023438 13.359375 -16.890625 L 13.359375 -59.1875 C 13.359375 -63.3125 13.503906 -66.625 13.796875 -69.125 L 5.515625 -68.796875 L 5.515625 -77.296875 L 60.734375 -77.296875 L 61.390625 -55.875 L 54.109375 -55.875 C 54.109375 -61.320312 52.800781 -65.09375 50.1875 -67.1875 C 47.570312 -69.289062 44.425781 -70.269531 40.75 -70.125 L 36.765625 -70 C 35.003906 -69.925781 33.609375 -69.6875 32.578125 -69.28125 C 31.546875 -68.882812 30.753906 -67.984375 30.203125 -66.578125 C 29.648438 -65.179688 29.375 -63.125 29.375 -60.40625 L 29.375 -41.1875 L 40.75 -41.1875 C 40.675781 -42.144531 40.523438 -45.3125 40.296875 -50.6875 L 48.8125 -50.6875 L 48.8125 -23.84375 L 41.515625 -23.84375 C 41.515625 -26.789062 41.054688 -28.984375 40.140625 -30.421875 C 39.222656 -31.859375 38.007812 -32.757812 36.5 -33.125 C 34.988281 -33.488281 33.054688 -33.632812 30.703125 -33.5625 L 29.375 -33.5625 L 29.375 -18.109375 C 29.375 -13.984375 29.226562 -10.671875 28.9375 -8.171875 C 31.289062 -8.390625 34.566406 -8.5 38.765625 -8.5 L 38.765625 0 L 5.515625 0 Z M 5.515625 -7.28125 "/></g></g></g><g fill="#ffffff" fill-opacity="1"><g transform="translate(73.332046, 104.829457)"><g><path d="M 20.09375 -66.140625 C 17.59375 -66.140625 15.53125 -67.003906 13.90625 -68.734375 C 12.289062 -70.460938 11.484375 -72.582031 11.484375 -75.09375 C 11.484375 -77.59375 12.328125 -79.742188 14.015625 -81.546875 C 15.710938 -83.347656 17.703125 -84.25 19.984375 -84.25 C 22.335938 -84.25 24.304688 -83.363281 25.890625 -81.59375 C 27.472656 -79.832031 28.265625 -77.664062 28.265625 -75.09375 C 28.265625 -72.507812 27.507812 -70.367188 26 -68.671875 C 24.488281 -66.984375 22.519531 -66.140625 20.09375 -66.140625 Z M 4.53125 -7.171875 C 7.320312 -7.171875 9.101562 -7.941406 9.875 -9.484375 C 10.65625 -11.035156 11.046875 -13.539062 11.046875 -17 L 11.046875 -35.328125 C 11.046875 -38.796875 11.191406 -42 11.484375 -44.9375 L 3.75 -44.609375 L 3.75 -53 C 8.382812 -53 12.140625 -53.328125 15.015625 -53.984375 C 17.890625 -54.648438 19.804688 -55.425781 20.765625 -56.3125 L 26.71875 -56.3125 L 26.71875 -17.78125 C 26.71875 -14.25 26.570312 -11.007812 26.28125 -8.0625 C 28.632812 -8.28125 31.023438 -8.390625 33.453125 -8.390625 L 33.453125 0 L 4.53125 0 Z M 4.53125 -7.171875 "/></g></g></g><g fill="#ffffff" fill-opacity="1"><g transform="translate(111.639596, 104.829457)"><g><path d="M 29.921875 1.765625 C 26.753906 1.765625 23.660156 1.359375 20.640625 0.546875 C 17.628906 -0.253906 15.273438 -1.285156 13.578125 -2.546875 L 13.46875 -2.546875 L 13.796875 0.765625 L 5.40625 0.765625 L 4.96875 -18.21875 L 12.140625 -18.21875 C 12.515625 -14.832031 14.300781 -11.976562 17.5 -9.65625 C 20.707031 -7.34375 24.628906 -6.1875 29.265625 -6.1875 C 31.328125 -6.1875 33.109375 -6.660156 34.609375 -7.609375 C 36.117188 -8.566406 36.875 -9.929688 36.875 -11.703125 C 36.875 -13.023438 36.394531 -14.128906 35.4375 -15.015625 C 34.488281 -15.898438 33.347656 -16.632812 32.015625 -17.21875 C 30.691406 -17.8125 28.046875 -18.878906 24.078125 -20.421875 C 19.359375 -22.265625 15.820312 -23.773438 13.46875 -24.953125 C 11.113281 -26.128906 9 -27.875 7.125 -30.1875 C 5.25 -32.507812 4.3125 -35.515625 4.3125 -39.203125 C 4.3125 -42.222656 5.0625 -45.070312 6.5625 -47.75 C 8.070312 -50.4375 10.390625 -52.644531 13.515625 -54.375 C 16.648438 -56.113281 20.5 -56.984375 25.0625 -56.984375 C 27.195312 -56.984375 29.515625 -56.648438 32.015625 -55.984375 C 34.523438 -55.316406 36.625 -54.394531 38.3125 -53.21875 L 38.421875 -53.21875 L 38.3125 -56.421875 L 46.703125 -56.421875 L 46.703125 -36.875 L 39.53125 -36.875 C 38.863281 -40.707031 37.164062 -43.726562 34.4375 -45.9375 C 31.71875 -48.144531 28.375 -49.25 24.40625 -49.25 C 22.34375 -49.25 20.609375 -48.769531 19.203125 -47.8125 C 17.804688 -46.851562 17.109375 -45.378906 17.109375 -43.390625 C 17.109375 -41.328125 17.914062 -39.800781 19.53125 -38.8125 C 21.15625 -37.820312 23.882812 -36.703125 27.71875 -35.453125 C 28.15625 -35.367188 29.113281 -35.070312 30.59375 -34.5625 C 36.84375 -32.351562 41.640625 -29.773438 44.984375 -26.828125 C 48.335938 -23.890625 50.015625 -20.023438 50.015625 -15.234375 C 50.015625 -11.554688 49.078125 -8.445312 47.203125 -5.90625 C 45.328125 -3.363281 42.859375 -1.445312 39.796875 -0.15625 C 36.742188 1.125 33.453125 1.765625 29.921875 1.765625 Z M 29.921875 1.765625 "/></g></g></g><g fill="#ffffff" fill-opacity="1"><g transform="translate(167.389414, 104.829457)"><g><path d="M 2.765625 -7.171875 C 4.742188 -7.171875 6.191406 -7.554688 7.109375 -8.328125 C 8.035156 -9.109375 8.628906 -10.160156 8.890625 -11.484375 C 9.148438 -12.804688 9.28125 -14.644531 9.28125 -17 L 9.28125 -62.390625 C 9.28125 -65.921875 9.425781 -69.125 9.71875 -72 L 1.984375 -71.65625 L 1.984375 -80.0625 C 6.617188 -80.0625 10.375 -80.390625 13.25 -81.046875 C 16.125 -81.710938 18.039062 -82.488281 19 -83.375 L 24.953125 -83.375 L 24.953125 -50.796875 C 27.085938 -52.484375 29.738281 -53.9375 32.90625 -55.15625 C 36.070312 -56.375 38.796875 -56.984375 41.078125 -56.984375 C 47.703125 -56.984375 52.445312 -55.066406 55.3125 -51.234375 C 58.1875 -47.410156 59.660156 -41.191406 59.734375 -32.578125 L 59.734375 -17.78125 C 59.734375 -14.25 59.585938 -11.007812 59.296875 -8.0625 C 61.648438 -8.28125 64.039062 -8.390625 66.46875 -8.390625 L 66.46875 0 L 37.4375 0 L 37.4375 -7.171875 C 40.226562 -7.171875 42.03125 -7.941406 42.84375 -9.484375 C 43.65625 -11.035156 44.0625 -13.539062 44.0625 -17 L 43.953125 -32.6875 C 43.953125 -37.539062 43.234375 -41.109375 41.796875 -43.390625 C 40.359375 -45.671875 38.09375 -46.8125 35 -46.8125 C 33.238281 -46.8125 31.4375 -46.425781 29.59375 -45.65625 C 27.75 -44.882812 26.203125 -43.910156 24.953125 -42.734375 L 24.953125 -17.78125 C 24.953125 -14.25 24.804688 -11.007812 24.515625 -8.0625 C 26.941406 -8.28125 29.332031 -8.390625 31.6875 -8.390625 L 31.6875 0 L 2.765625 0 Z M 2.765625 -7.171875 "/></g></g></g><g fill="#ffffff" fill-opacity="1"><g transform="translate(238.152879, 104.829457)"><g><path d="M 20.09375 -66.140625 C 17.59375 -66.140625 15.53125 -67.003906 13.90625 -68.734375 C 12.289062 -70.460938 11.484375 -72.582031 11.484375 -75.09375 C 11.484375 -77.59375 12.328125 -79.742188 14.015625 -81.546875 C 15.710938 -83.347656 17.703125 -84.25 19.984375 -84.25 C 22.335938 -84.25 24.304688 -83.363281 25.890625 -81.59375 C 27.472656 -79.832031 28.265625 -77.664062 28.265625 -75.09375 C 28.265625 -72.507812 27.507812 -70.367188 26 -68.671875 C 24.488281 -66.984375 22.519531 -66.140625 20.09375 -66.140625 Z M 4.53125 -7.171875 C 7.320312 -7.171875 9.101562 -7.941406 9.875 -9.484375 C 10.65625 -11.035156 11.046875 -13.539062 11.046875 -17 L 11.046875 -35.328125 C 11.046875 -38.796875 11.191406 -42 11.484375 -44.9375 L 3.75 -44.609375 L 3.75 -53 C 8.382812 -53 12.140625 -53.328125 15.015625 -53.984375 C 17.890625 -54.648438 19.804688 -55.425781 20.765625 -56.3125 L 26.71875 -56.3125 L 26.71875 -17.78125 C 26.71875 -14.25 26.570312 -11.007812 26.28125 -8.0625 C 28.632812 -8.28125 31.023438 -8.390625 33.453125 -8.390625 L 33.453125 0 L 4.53125 0 Z M 4.53125 -7.171875 "/></g></g></g><g fill="#ffffff" fill-opacity="1"><g transform="translate(276.46043, 104.829457)"><g><path d="M 4.53125 -7.171875 C 7.320312 -7.171875 9.101562 -7.941406 9.875 -9.484375 C 10.65625 -11.035156 11.046875 -13.539062 11.046875 -17 L 11.046875 -35.5625 C 11.046875 -38.875 11.191406 -42 11.484375 -44.9375 L 3.75 -44.609375 L 3.75 -53 C 8.382812 -53 12.140625 -53.328125 15.015625 -53.984375 C 17.890625 -54.648438 19.804688 -55.425781 20.765625 -56.3125 L 26.171875 -56.3125 C 26.171875 -56.164062 26.316406 -54.328125 26.609375 -50.796875 L 26.828125 -50.796875 C 28.960938 -52.484375 31.59375 -53.9375 34.71875 -55.15625 C 37.851562 -56.375 40.523438 -56.984375 42.734375 -56.984375 C 49.429688 -56.984375 54.210938 -55.066406 57.078125 -51.234375 C 59.953125 -47.410156 61.390625 -41.191406 61.390625 -32.578125 L 61.390625 -17.78125 C 61.390625 -14.25 61.242188 -11.007812 60.953125 -8.0625 C 63.378906 -8.28125 65.769531 -8.390625 68.125 -8.390625 L 68.125 0 L 39.203125 0 L 39.203125 -7.171875 C 41.992188 -7.171875 43.796875 -7.941406 44.609375 -9.484375 C 45.421875 -11.035156 45.828125 -13.539062 45.828125 -17 L 45.71875 -32.6875 C 45.71875 -37.539062 45.035156 -41.109375 43.671875 -43.390625 C 42.304688 -45.671875 40.003906 -46.8125 36.765625 -46.8125 C 35.003906 -46.8125 33.203125 -46.425781 31.359375 -45.65625 C 29.515625 -44.882812 27.96875 -43.910156 26.71875 -42.734375 L 26.71875 -17.78125 C 26.71875 -14.25 26.570312 -11.007812 26.28125 -8.0625 C 28.632812 -8.28125 31.023438 -8.390625 33.453125 -8.390625 L 33.453125 0 L 4.53125 0 Z M 4.53125 -7.171875 "/></g></g></g><g fill="#ffffff" fill-opacity="1"><g transform="translate(348.879778, 104.829457)"><g><path d="M 28.265625 29.921875 C 19.359375 29.921875 12.9375 28.554688 9 25.828125 C 5.0625 23.109375 3.09375 19.648438 3.09375 15.453125 C 3.09375 12.878906 3.921875 10.46875 5.578125 8.21875 C 7.234375 5.976562 9.898438 4.160156 13.578125 2.765625 C 10.710938 1.953125 8.632812 0.703125 7.34375 -0.984375 C 6.050781 -2.679688 5.40625 -4.671875 5.40625 -6.953125 C 5.40625 -9.160156 6.269531 -11.40625 8 -13.6875 C 9.726562 -15.96875 12.4375 -17.660156 16.125 -18.765625 L 16.125 -18.875 C 12.8125 -20.207031 10.175781 -22.289062 8.21875 -25.125 C 6.269531 -27.957031 5.296875 -31.320312 5.296875 -35.21875 C 5.296875 -39.34375 6.453125 -43.0625 8.765625 -46.375 C 11.085938 -49.6875 14.144531 -52.28125 17.9375 -54.15625 C 21.726562 -56.039062 25.722656 -56.984375 29.921875 -56.984375 C 32.128906 -56.984375 34.445312 -56.707031 36.875 -56.15625 C 39.3125 -55.601562 41.375 -54.734375 43.0625 -53.546875 C 44.457031 -57.378906 46.332031 -60.566406 48.6875 -63.109375 C 51.050781 -65.648438 53.851562 -66.921875 57.09375 -66.921875 C 59.519531 -66.921875 61.394531 -66.289062 62.71875 -65.03125 C 64.039062 -63.78125 64.703125 -62.050781 64.703125 -59.84375 C 64.703125 -58.15625 64.164062 -56.609375 63.09375 -55.203125 C 62.03125 -53.804688 60.359375 -53.109375 58.078125 -53.109375 C 56.898438 -53.109375 55.738281 -53.53125 54.59375 -54.375 C 53.457031 -55.226562 52.78125 -56.242188 52.5625 -57.421875 C 51.601562 -57.128906 50.644531 -56.191406 49.6875 -54.609375 C 48.726562 -53.023438 48.175781 -51.566406 48.03125 -50.234375 C 50.09375 -48.398438 51.691406 -46.265625 52.828125 -43.828125 C 53.972656 -41.398438 54.546875 -38.789062 54.546875 -36 C 54.546875 -31.875 53.367188 -28.132812 51.015625 -24.78125 C 48.660156 -21.4375 45.566406 -18.828125 41.734375 -16.953125 C 37.910156 -15.078125 33.828125 -14.140625 29.484375 -14.140625 L 26.390625 -14.25 C 24.773438 -14.394531 23.597656 -14.46875 22.859375 -14.46875 C 21.234375 -14.46875 19.867188 -14.171875 18.765625 -13.578125 C 17.660156 -12.992188 17.109375 -12.1875 17.109375 -11.15625 C 17.109375 -9.832031 18.117188 -8.894531 20.140625 -8.34375 C 22.171875 -7.789062 25.875 -7.363281 31.25 -7.0625 C 40.519531 -6.550781 47.546875 -5.003906 52.328125 -2.421875 C 57.117188 0.148438 59.515625 4.453125 59.515625 10.484375 C 59.515625 14.460938 57.988281 17.921875 54.9375 20.859375 C 51.882812 23.804688 47.945312 26.050781 43.125 27.59375 C 38.300781 29.144531 33.347656 29.921875 28.265625 29.921875 Z M 29.921875 -21.53125 C 32.722656 -21.53125 34.953125 -22.78125 36.609375 -25.28125 C 38.265625 -27.789062 39.09375 -30.703125 39.09375 -34.015625 C 39.09375 -38.203125 38.28125 -41.84375 36.65625 -44.9375 C 35.039062 -48.03125 32.757812 -49.578125 29.8125 -49.578125 C 27.019531 -49.578125 24.773438 -48.285156 23.078125 -45.703125 C 21.378906 -43.128906 20.53125 -40.078125 20.53125 -36.546875 C 20.53125 -32.421875 21.378906 -28.882812 23.078125 -25.9375 C 24.773438 -23 27.054688 -21.53125 29.921875 -21.53125 Z M 31.46875 22.3125 C 34.78125 22.3125 37.628906 21.867188 40.015625 20.984375 C 42.410156 20.097656 44.234375 18.972656 45.484375 17.609375 C 46.742188 16.242188 47.375 14.863281 47.375 13.46875 C 47.375 11.1875 46.066406 9.457031 43.453125 8.28125 C 40.835938 7.101562 36.84375 6.40625 31.46875 6.1875 C 30.882812 6.113281 29.925781 6.078125 28.59375 6.078125 C 27.863281 6.003906 26.578125 5.910156 24.734375 5.796875 C 22.890625 5.679688 21.378906 5.515625 20.203125 5.296875 C 19.097656 6.179688 18.234375 7.320312 17.609375 8.71875 C 16.984375 10.125 16.671875 11.523438 16.671875 12.921875 C 16.671875 15.785156 18.015625 18.066406 20.703125 19.765625 C 23.390625 21.460938 26.976562 22.3125 31.46875 22.3125 Z M 31.46875 22.3125 "/></g></g></g><g fill="#ffffff" fill-opacity="1"><g transform="translate(412.578011, 104.829457)"><g><path d="M 4.53125 -7.171875 C 7.320312 -7.171875 9.101562 -7.941406 9.875 -9.484375 C 10.65625 -11.035156 11.046875 -13.539062 11.046875 -17 L 11.046875 -35.5625 C 11.046875 -38.875 11.191406 -42 11.484375 -44.9375 L 3.75 -44.609375 L 3.75 -53 C 8.382812 -53 12.140625 -53.328125 15.015625 -53.984375 C 17.890625 -54.648438 19.804688 -55.425781 20.765625 -56.3125 L 26.171875 -56.3125 C 26.316406 -55.207031 26.425781 -53.769531 26.5 -52 C 26.570312 -50.238281 26.609375 -48.507812 26.609375 -46.8125 L 26.828125 -46.8125 C 31.835938 -53.59375 37.140625 -56.984375 42.734375 -56.984375 C 45.523438 -56.984375 47.820312 -56.207031 49.625 -54.65625 C 51.4375 -53.113281 52.34375 -50.832031 52.34375 -47.8125 C 52.34375 -45.894531 51.710938 -44.125 50.453125 -42.5 C 49.203125 -40.882812 47.328125 -40.078125 44.828125 -40.078125 C 42.992188 -40.078125 41.359375 -40.554688 39.921875 -41.515625 C 38.484375 -42.472656 37.65625 -44.128906 37.4375 -46.484375 C 35.375 -46.484375 33.253906 -45.285156 31.078125 -42.890625 C 28.910156 -40.503906 27.457031 -38.132812 26.71875 -35.78125 L 26.71875 -17.78125 C 26.71875 -14.25 26.570312 -11.007812 26.28125 -8.0625 C 28.632812 -8.28125 31.023438 -8.390625 33.453125 -8.390625 L 33.453125 0 L 4.53125 0 Z M 4.53125 -7.171875 "/></g></g></g><g fill="#ffffff" fill-opacity="1"><g transform="translate(467.775867, 104.829457)"><g><path d="M 18.328125 1.765625 C 13.691406 1.765625 10.03125 0.382812 7.34375 -2.375 C 4.65625 -5.132812 3.3125 -8.648438 3.3125 -12.921875 C 3.3125 -19.398438 6.328125 -24.3125 12.359375 -27.65625 C 18.398438 -31.007812 25.65625 -32.867188 34.125 -33.234375 L 34.125 -38.984375 C 34.125 -45.679688 31.617188 -49.03125 26.609375 -49.03125 C 23.367188 -49.03125 20.71875 -48 18.65625 -45.9375 C 19.539062 -44.90625 19.984375 -43.503906 19.984375 -41.734375 C 19.984375 -39.972656 19.375 -38.390625 18.15625 -36.984375 C 16.945312 -35.585938 15.164062 -34.890625 12.8125 -34.890625 C 10.601562 -34.890625 8.867188 -35.609375 7.609375 -37.046875 C 6.359375 -38.484375 5.734375 -40.269531 5.734375 -42.40625 C 5.734375 -45.269531 6.765625 -47.804688 8.828125 -50.015625 C 10.890625 -52.222656 13.707031 -53.9375 17.28125 -55.15625 C 20.851562 -56.375 24.773438 -56.984375 29.046875 -56.984375 C 42.660156 -56.984375 49.46875 -49.953125 49.46875 -35.890625 L 49.359375 -17.78125 C 49.359375 -14.25 49.210938 -11.007812 48.921875 -8.0625 C 51.347656 -8.28125 53.738281 -8.390625 56.09375 -8.390625 L 56.09375 0 L 35.21875 0 C 35.070312 -0.957031 34.925781 -2.648438 34.78125 -5.078125 L 34.671875 -5.078125 C 30.179688 -0.515625 24.734375 1.765625 18.328125 1.765625 Z M 25.28125 -9.046875 C 28.59375 -9.046875 31.503906 -10.375 34.015625 -13.03125 L 34.015625 -25.390625 C 29.671875 -24.953125 26.082031 -23.847656 23.25 -22.078125 C 20.414062 -20.316406 19 -17.925781 19 -14.90625 C 19 -12.914062 19.601562 -11.441406 20.8125 -10.484375 C 22.03125 -9.523438 23.519531 -9.046875 25.28125 -9.046875 Z M 25.28125 -9.046875 "/></g></g></g><g fill="#ffffff" fill-opacity="1"><g transform="translate(527.831076, 104.829457)"><g><path d="M 4.53125 -7.171875 C 7.320312 -7.171875 9.101562 -7.941406 9.875 -9.484375 C 10.65625 -11.035156 11.046875 -13.539062 11.046875 -17 L 11.046875 -35.5625 C 11.046875 -38.875 11.191406 -42 11.484375 -44.9375 L 3.75 -44.609375 L 3.75 -53 C 8.382812 -53 12.140625 -53.328125 15.015625 -53.984375 C 17.890625 -54.648438 19.804688 -55.425781 20.765625 -56.3125 L 26.171875 -56.3125 C 26.171875 -56.164062 26.316406 -54.328125 26.609375 -50.796875 L 26.828125 -50.796875 C 29.109375 -52.628906 31.6875 -54.117188 34.5625 -55.265625 C 37.4375 -56.410156 40.234375 -56.984375 42.953125 -56.984375 C 46.265625 -56.984375 49.039062 -56.375 51.28125 -55.15625 C 53.53125 -53.9375 55.316406 -52.113281 56.640625 -49.6875 C 59.296875 -51.894531 62.242188 -53.660156 65.484375 -54.984375 C 68.722656 -56.316406 71.773438 -56.984375 74.640625 -56.984375 C 80.753906 -56.984375 85.300781 -55.210938 88.28125 -51.671875 C 91.257812 -48.140625 92.75 -42.253906 92.75 -34.015625 L 92.75 -17.78125 C 92.75 -14.25 92.601562 -11.007812 92.3125 -8.0625 C 94.664062 -8.28125 97.054688 -8.390625 99.484375 -8.390625 L 99.484375 0 L 71.546875 0 L 71.546875 -7.171875 C 73.910156 -7.171875 75.421875 -7.960938 76.078125 -9.546875 C 76.742188 -11.128906 77.078125 -13.613281 77.078125 -17 L 77.078125 -33.90625 C 77.003906 -38.539062 76.226562 -41.832031 74.75 -43.78125 C 73.28125 -45.726562 71.144531 -46.703125 68.34375 -46.703125 C 65.113281 -46.703125 61.953125 -45.488281 58.859375 -43.0625 C 59.515625 -40.113281 59.84375 -36.617188 59.84375 -32.578125 L 59.84375 -17.78125 C 59.84375 -14.25 59.695312 -11.007812 59.40625 -8.0625 C 61.757812 -8.28125 64.148438 -8.390625 66.578125 -8.390625 L 66.578125 0 L 38.09375 0 L 38.09375 -7.171875 C 40.664062 -7.171875 42.320312 -7.941406 43.0625 -9.484375 C 43.800781 -11.035156 44.171875 -13.539062 44.171875 -17 L 44.0625 -34.234375 C 44.0625 -38.796875 43.394531 -42.015625 42.0625 -43.890625 C 40.738281 -45.765625 38.753906 -46.738281 36.109375 -46.8125 C 32.867188 -46.8125 29.738281 -45.453125 26.71875 -42.734375 L 26.71875 -17.78125 C 26.71875 -14.25 26.570312 -11.007812 26.28125 -8.0625 C 28.632812 -8.28125 30.84375 -8.390625 32.90625 -8.390625 L 32.90625 0 L 4.53125 0 Z M 4.53125 -7.171875 "/></g></g></g><g fill="#ffffff" fill-opacity="1"><g transform="translate(134.719766, 201.268273)"><g><path d="M 2.515625 -1.515625 C 3.585938 -1.546875 4.351562 -1.789062 4.8125 -2.25 C 5.269531 -2.707031 5.53125 -3.25 5.59375 -3.875 C 5.65625 -4.5 5.6875 -5.59375 5.6875 -7.15625 L 5.6875 -26.953125 C 5.6875 -28.234375 5.726562 -29.332031 5.8125 -30.25 L 2.515625 -30.0625 L 2.515625 -32.078125 L 12.828125 -32.078125 L 12.828125 -30.5625 C 11.765625 -30.53125 11.003906 -30.285156 10.546875 -29.828125 C 10.085938 -29.367188 9.828125 -28.828125 9.765625 -28.203125 C 9.703125 -27.578125 9.671875 -26.488281 9.671875 -24.9375 L 9.671875 -17.328125 L 26.078125 -17.328125 L 26.078125 -26.953125 C 26.078125 -28.234375 26.125 -29.332031 26.21875 -30.25 L 22.90625 -30.0625 L 22.90625 -32.078125 L 33.21875 -32.078125 L 33.21875 -30.5625 C 32.15625 -30.53125 31.394531 -30.285156 30.9375 -29.828125 C 30.476562 -29.367188 30.21875 -28.828125 30.15625 -28.203125 C 30.09375 -27.578125 30.0625 -26.488281 30.0625 -24.9375 L 30.0625 -5.453125 C 30.0625 -3.835938 30.015625 -2.628906 29.921875 -1.828125 L 33.21875 -2.015625 L 33.21875 0 L 22.90625 0 L 22.90625 -1.515625 C 23.976562 -1.546875 24.742188 -1.789062 25.203125 -2.25 C 25.660156 -2.707031 25.921875 -3.25 25.984375 -3.875 C 26.046875 -4.5 26.078125 -5.59375 26.078125 -7.15625 L 26.078125 -15.484375 L 9.671875 -15.3125 L 9.671875 -5.453125 C 9.671875 -3.835938 9.625 -2.628906 9.53125 -1.828125 L 12.828125 -2.015625 L 12.828125 0 L 2.515625 0 Z M 2.515625 -1.515625 "/></g></g></g><g fill="#ffffff" fill-opacity="1"><g transform="translate(172.288732, 201.268273)"><g><path d="M 13.375 0.734375 C 11.269531 0.734375 9.335938 0.238281 7.578125 -0.75 C 5.828125 -1.75 4.4375 -3.132812 3.40625 -4.90625 C 2.382812 -6.675781 1.875 -8.675781 1.875 -10.90625 C 1.875 -13.289062 2.378906 -15.453125 3.390625 -17.390625 C 4.398438 -19.328125 5.78125 -20.851562 7.53125 -21.96875 C 9.289062 -23.082031 11.238281 -23.640625 13.375 -23.640625 C 15.488281 -23.640625 17.429688 -23.128906 19.203125 -22.109375 C 20.972656 -21.085938 22.367188 -19.691406 23.390625 -17.921875 C 24.421875 -16.148438 24.9375 -14.175781 24.9375 -12 C 24.9375 -9.6875 24.421875 -7.550781 23.390625 -5.59375 C 22.367188 -3.632812 20.976562 -2.085938 19.21875 -0.953125 C 17.46875 0.171875 15.519531 0.734375 13.375 0.734375 Z M 13.75 -1.09375 C 15.976562 -1.09375 17.617188 -2.007812 18.671875 -3.84375 C 19.722656 -5.675781 20.25 -7.953125 20.25 -10.671875 C 20.25 -13.765625 19.675781 -16.410156 18.53125 -18.609375 C 17.382812 -20.804688 15.664062 -21.90625 13.375 -21.90625 C 11.113281 -21.90625 9.410156 -20.972656 8.265625 -19.109375 C 7.117188 -17.242188 6.546875 -14.953125 6.546875 -12.234375 C 6.546875 -10.273438 6.8125 -8.445312 7.34375 -6.75 C 7.882812 -5.0625 8.695312 -3.695312 9.78125 -2.65625 C 10.863281 -1.613281 12.1875 -1.09375 13.75 -1.09375 Z M 13.75 -1.09375 "/></g></g></g><g fill="#ffffff" fill-opacity="1"><g transform="translate(200.923677, 201.268273)"><g><path d="M 13.375 0.734375 C 11.269531 0.734375 9.335938 0.238281 7.578125 -0.75 C 5.828125 -1.75 4.4375 -3.132812 3.40625 -4.90625 C 2.382812 -6.675781 1.875 -8.675781 1.875 -10.90625 C 1.875 -13.289062 2.378906 -15.453125 3.390625 -17.390625 C 4.398438 -19.328125 5.78125 -20.851562 7.53125 -21.96875 C 9.289062 -23.082031 11.238281 -23.640625 13.375 -23.640625 C 15.488281 -23.640625 17.429688 -23.128906 19.203125 -22.109375 C 20.972656 -21.085938 22.367188 -19.691406 23.390625 -17.921875 C 24.421875 -16.148438 24.9375 -14.175781 24.9375 -12 C 24.9375 -9.6875 24.421875 -7.550781 23.390625 -5.59375 C 22.367188 -3.632812 20.976562 -2.085938 19.21875 -0.953125 C 17.46875 0.171875 15.519531 0.734375 13.375 0.734375 Z M 13.75 -1.09375 C 15.976562 -1.09375 17.617188 -2.007812 18.671875 -3.84375 C 19.722656 -5.675781 20.25 -7.953125 20.25 -10.671875 C 20.25 -13.765625 19.675781 -16.410156 18.53125 -18.609375 C 17.382812 -20.804688 15.664062 -21.90625 13.375 -21.90625 C 11.113281 -21.90625 9.410156 -20.972656 8.265625 -19.109375 C 7.117188 -17.242188 6.546875 -14.953125 6.546875 -12.234375 C 6.546875 -10.273438 6.8125 -8.445312 7.34375 -6.75 C 7.882812 -5.0625 8.695312 -3.695312 9.78125 -2.65625 C 10.863281 -1.613281 12.1875 -1.09375 13.75 -1.09375 Z M 13.75 -1.09375 "/></g></g></g><g fill="#ffffff" fill-opacity="1"><g transform="translate(229.558625, 201.268273)"><g><path d="M 1.609375 -1.375 C 2.492188 -1.375 3.125 -1.59375 3.5 -2.03125 C 3.882812 -2.476562 4.109375 -3.035156 4.171875 -3.703125 C 4.234375 -4.378906 4.265625 -5.46875 4.265625 -6.96875 C 4.265625 -7.269531 4.269531 -8.929688 4.28125 -11.953125 C 4.300781 -14.984375 4.3125 -20.546875 4.3125 -28.640625 C 4.3125 -29.804688 4.359375 -30.800781 4.453125 -31.625 L 1.1875 -31.4375 L 1.1875 -33.359375 C 2.988281 -33.359375 4.28125 -33.460938 5.0625 -33.671875 C 5.84375 -33.890625 6.445312 -34.195312 6.875 -34.59375 L 8.203125 -34.59375 L 8.203125 -12.921875 L 10.03125 -12.921875 L 15.625 -18.796875 C 16.789062 -20.015625 17.691406 -20.820312 18.328125 -21.21875 L 15.21875 -21.078125 L 15.21875 -22.90625 L 23.5625 -22.90625 L 23.5625 -21.546875 C 22.21875 -21.390625 20.992188 -20.894531 19.890625 -20.0625 C 18.785156 -19.238281 17.5625 -18.128906 16.21875 -16.734375 L 12.65625 -12.96875 C 13.195312 -12.726562 13.671875 -12.414062 14.078125 -12.03125 C 14.492188 -11.644531 14.960938 -11.132812 15.484375 -10.5 L 18.75 -6.328125 C 18.800781 -6.265625 19.140625 -5.796875 19.765625 -4.921875 C 20.398438 -4.054688 21.148438 -3.25 22.015625 -2.5 C 22.890625 -1.75 23.644531 -1.375 24.28125 -1.375 L 24.28125 0 L 20.125 0 C 19.382812 0 18.691406 -0.316406 18.046875 -0.953125 C 17.410156 -1.597656 16.484375 -2.71875 15.265625 -4.3125 L 13.46875 -6.828125 C 12.800781 -7.773438 12.164062 -8.648438 11.5625 -9.453125 C 10.96875 -10.265625 10.472656 -10.859375 10.078125 -11.234375 L 8.203125 -11.140625 L 8.203125 -4.859375 C 8.203125 -3.484375 8.140625 -2.441406 8.015625 -1.734375 L 10.953125 -1.875 L 10.953125 0 L 1.609375 0 Z M 1.609375 -1.375 "/></g></g></g><g fill="#ffffff" fill-opacity="1"><g transform="translate(255.994425, 201.268273)"><g/></g></g><g fill="#ffffff" fill-opacity="1"><g transform="translate(269.876794, 201.268273)"><g><path d="M 2.515625 -1.515625 C 3.585938 -1.546875 4.351562 -1.789062 4.8125 -2.25 C 5.269531 -2.707031 5.53125 -3.25 5.59375 -3.875 C 5.65625 -4.5 5.6875 -5.59375 5.6875 -7.15625 L 5.6875 -26.953125 C 5.6875 -28.234375 5.726562 -29.332031 5.8125 -30.25 L 2.515625 -30.0625 L 2.515625 -32.078125 L 12.828125 -32.078125 L 12.828125 -30.5625 C 11.765625 -30.53125 11.003906 -30.285156 10.546875 -29.828125 C 10.085938 -29.367188 9.828125 -28.828125 9.765625 -28.203125 C 9.703125 -27.578125 9.671875 -26.488281 9.671875 -24.9375 L 9.671875 -5.453125 C 9.671875 -3.835938 9.625 -2.628906 9.53125 -1.828125 L 12.828125 -2.015625 L 12.828125 0 L 2.515625 0 Z M 2.515625 -1.515625 "/></g></g></g><g fill="#ffffff" fill-opacity="1"><g transform="translate(287.057876, 201.268273)"><g><path d="M 10.625 0.734375 C 6.445312 0.734375 4.375 -2.078125 4.40625 -7.703125 L 4.484375 -20.984375 L 0.96875 -20.9375 L 0.96875 -22.90625 C 2.425781 -22.9375 3.664062 -23.601562 4.6875 -24.90625 C 5.71875 -26.207031 6.476562 -27.679688 6.96875 -29.328125 L 8.53125 -29.328125 L 8.53125 -22.90625 L 16.21875 -22.90625 L 16.21875 -21.125 L 8.53125 -21.03125 C 8.5 -16.351562 8.472656 -13.113281 8.453125 -11.3125 C 8.441406 -9.507812 8.4375 -8.503906 8.4375 -8.296875 C 8.4375 -6.128906 8.691406 -4.515625 9.203125 -3.453125 C 9.722656 -2.398438 10.628906 -1.875 11.921875 -1.875 C 12.710938 -1.875 13.492188 -2.117188 14.265625 -2.609375 C 15.046875 -3.097656 15.726562 -3.769531 16.3125 -4.625 L 17.546875 -3.625 C 16.359375 -1.851562 15.179688 -0.679688 14.015625 -0.109375 C 12.859375 0.453125 11.726562 0.734375 10.625 0.734375 Z M 10.625 0.734375 "/></g></g></g><g fill="#ffffff" fill-opacity="1"><g transform="translate(306.621355, 201.268273)"><g><path d="M 4.171875 7.28125 C 4.691406 6.613281 5.179688 5.664062 5.640625 4.4375 C 6.097656 3.21875 6.328125 2.015625 6.328125 0.828125 C 6.328125 0.460938 6.3125 0.1875 6.28125 0 C 5.882812 0.1875 5.5 0.28125 5.125 0.28125 C 4.519531 0.28125 4.019531 0.0664062 3.625 -0.359375 C 3.226562 -0.796875 3.03125 -1.332031 3.03125 -1.96875 C 3.03125 -2.789062 3.269531 -3.4375 3.75 -3.90625 C 4.238281 -4.382812 4.835938 -4.625 5.546875 -4.625 C 6.554688 -4.625 7.347656 -4.234375 7.921875 -3.453125 C 8.503906 -2.679688 8.796875 -1.679688 8.796875 -0.453125 C 8.796875 0.796875 8.46875 2.304688 7.8125 4.078125 C 7.15625 5.847656 6.351562 7.222656 5.40625 8.203125 Z M 4.171875 7.28125 "/></g></g></g><g fill="#ffffff" fill-opacity="1"><g transform="translate(320.045573, 201.268273)"><g/></g></g><g fill="#ffffff" fill-opacity="1"><g transform="translate(333.927941, 201.268273)"><g><path d="M 2.515625 -1.515625 C 3.585938 -1.546875 4.351562 -1.789062 4.8125 -2.25 C 5.269531 -2.707031 5.53125 -3.25 5.59375 -3.875 C 5.65625 -4.5 5.6875 -5.59375 5.6875 -7.15625 L 5.6875 -26.953125 C 5.6875 -28.234375 5.726562 -29.332031 5.8125 -30.25 L 2.515625 -30.0625 L 2.515625 -32.078125 L 12.828125 -32.078125 L 12.828125 -30.5625 C 11.765625 -30.53125 11.003906 -30.285156 10.546875 -29.828125 C 10.085938 -29.367188 9.828125 -28.828125 9.765625 -28.203125 C 9.703125 -27.578125 9.671875 -26.488281 9.671875 -24.9375 L 9.671875 -17.421875 L 13.109375 -17.421875 L 18.828125 -26.4375 C 19.960938 -28.15625 21.050781 -29.441406 22.09375 -30.296875 L 19.296875 -30.203125 L 19.296875 -32.078125 L 29.140625 -32.078125 L 29.140625 -30.5625 C 27.734375 -30.445312 26.550781 -30.21875 25.59375 -29.875 C 24.632812 -29.539062 23.695312 -28.945312 22.78125 -28.09375 C 21.863281 -27.238281 20.898438 -26 19.890625 -24.375 L 15.390625 -17.234375 C 16.066406 -16.804688 16.648438 -16.335938 17.140625 -15.828125 C 17.628906 -15.328125 18.0625 -14.820312 18.4375 -14.3125 C 18.820312 -13.8125 19.078125 -13.488281 19.203125 -13.34375 L 24.328125 -6.5 C 25.460938 -5.007812 26.40625 -3.910156 27.15625 -3.203125 C 27.90625 -2.503906 28.550781 -2.046875 29.09375 -1.828125 C 29.644531 -1.617188 30.304688 -1.515625 31.078125 -1.515625 L 31.078125 0 L 25.484375 0 C 24.679688 0 23.140625 -1.492188 20.859375 -4.484375 L 15.359375 -11.921875 C 14.617188 -12.867188 13.984375 -13.644531 13.453125 -14.25 C 12.921875 -14.863281 12.410156 -15.320312 11.921875 -15.625 L 9.671875 -15.578125 L 9.671875 -5.453125 C 9.671875 -3.835938 9.625 -2.628906 9.53125 -1.828125 L 12.828125 -2.015625 L 12.828125 0 L 2.515625 0 Z M 2.515625 -1.515625 "/></g></g></g><g fill="#ffffff" fill-opacity="1"><g transform="translate(367.052807, 201.268273)"><g><path d="M 13.109375 0.734375 C 10.992188 0.734375 9.085938 0.238281 7.390625 -0.75 C 5.703125 -1.75 4.367188 -3.171875 3.390625 -5.015625 C 2.410156 -6.867188 1.921875 -9 1.921875 -11.40625 C 1.921875 -13.550781 2.410156 -15.5625 3.390625 -17.4375 C 4.367188 -19.3125 5.734375 -20.8125 7.484375 -21.9375 C 9.242188 -23.070312 11.238281 -23.640625 13.46875 -23.640625 C 15.207031 -23.640625 16.78125 -23.257812 18.1875 -22.5 C 19.59375 -21.738281 20.707031 -20.597656 21.53125 -19.078125 C 22.363281 -17.566406 22.78125 -15.710938 22.78125 -13.515625 L 6.640625 -13.25 C 6.609375 -9.582031 7.210938 -6.722656 8.453125 -4.671875 C 9.691406 -2.628906 11.609375 -1.609375 14.203125 -1.609375 C 15.609375 -1.609375 17.050781 -1.972656 18.53125 -2.703125 C 20.019531 -3.429688 21.160156 -4.332031 21.953125 -5.40625 L 23.046875 -4.484375 C 21.890625 -2.710938 20.382812 -1.398438 18.53125 -0.546875 C 16.6875 0.304688 14.878906 0.734375 13.109375 0.734375 Z M 18.46875 -15.171875 C 18.46875 -17.003906 18.054688 -18.578125 17.234375 -19.890625 C 16.410156 -21.203125 15.171875 -21.859375 13.515625 -21.859375 C 9.734375 -21.859375 7.488281 -19.628906 6.78125 -15.171875 Z M 18.46875 -15.171875 "/></g></g></g><g fill="#ffffff" fill-opacity="1"><g transform="translate(393.717689, 201.268273)"><g><path d="M 13.109375 0.734375 C 10.992188 0.734375 9.085938 0.238281 7.390625 -0.75 C 5.703125 -1.75 4.367188 -3.171875 3.390625 -5.015625 C 2.410156 -6.867188 1.921875 -9 1.921875 -11.40625 C 1.921875 -13.550781 2.410156 -15.5625 3.390625 -17.4375 C 4.367188 -19.3125 5.734375 -20.8125 7.484375 -21.9375 C 9.242188 -23.070312 11.238281 -23.640625 13.46875 -23.640625 C 15.207031 -23.640625 16.78125 -23.257812 18.1875 -22.5 C 19.59375 -21.738281 20.707031 -20.597656 21.53125 -19.078125 C 22.363281 -17.566406 22.78125 -15.710938 22.78125 -13.515625 L 6.640625 -13.25 C 6.609375 -9.582031 7.210938 -6.722656 8.453125 -4.671875 C 9.691406 -2.628906 11.609375 -1.609375 14.203125 -1.609375 C 15.609375 -1.609375 17.050781 -1.972656 18.53125 -2.703125 C 20.019531 -3.429688 21.160156 -4.332031 21.953125 -5.40625 L 23.046875 -4.484375 C 21.890625 -2.710938 20.382812 -1.398438 18.53125 -0.546875 C 16.6875 0.304688 14.878906 0.734375 13.109375 0.734375 Z M 18.46875 -15.171875 C 18.46875 -17.003906 18.054688 -18.578125 17.234375 -19.890625 C 16.410156 -21.203125 15.171875 -21.859375 13.515625 -21.859375 C 9.734375 -21.859375 7.488281 -19.628906 6.78125 -15.171875 Z M 18.46875 -15.171875 "/></g></g></g><g fill="#ffffff" fill-opacity="1"><g transform="translate(420.382571, 201.268273)"><g><path d="M 1.609375 10.3125 C 2.492188 10.3125 3.125 10.085938 3.5 9.640625 C 3.882812 9.203125 4.109375 8.65625 4.171875 8 C 4.234375 7.34375 4.28125 6.25 4.3125 4.71875 L 4.40625 -17.421875 C 4.40625 -18.703125 4.460938 -19.691406 4.578125 -20.390625 L 1.328125 -20.203125 L 1.328125 -22.140625 C 3.128906 -22.140625 4.363281 -22.238281 5.03125 -22.4375 C 5.707031 -22.632812 6.257812 -22.945312 6.6875 -23.375 L 8.0625 -23.375 C 8.1875 -21.875 8.25 -21.046875 8.25 -20.890625 C 9.164062 -21.722656 10.265625 -22.390625 11.546875 -22.890625 C 12.828125 -23.390625 14.097656 -23.640625 15.359375 -23.640625 C 17.160156 -23.640625 18.820312 -23.175781 20.34375 -22.25 C 21.875 -21.320312 23.101562 -19.992188 24.03125 -18.265625 C 24.96875 -16.535156 25.4375 -14.539062 25.4375 -12.28125 C 25.4375 -9.75 24.898438 -7.492188 23.828125 -5.515625 C 22.765625 -3.546875 21.335938 -2.007812 19.546875 -0.90625 C 17.753906 0.1875 15.820312 0.734375 13.75 0.734375 C 11.644531 0.734375 9.8125 0.226562 8.25 -0.78125 L 8.25 6.828125 C 8.25 8.203125 8.1875 9.238281 8.0625 9.9375 L 10.953125 9.8125 L 10.953125 11.6875 L 1.609375 11.6875 Z M 13.65625 -1.09375 C 15.09375 -1.09375 16.335938 -1.535156 17.390625 -2.421875 C 18.441406 -3.316406 19.257812 -4.554688 19.84375 -6.140625 C 20.425781 -7.734375 20.71875 -9.535156 20.71875 -11.546875 C 20.71875 -14.296875 20.128906 -16.625 18.953125 -18.53125 C 17.773438 -20.445312 16.023438 -21.40625 13.703125 -21.40625 C 12.691406 -21.40625 11.710938 -21.160156 10.765625 -20.671875 C 9.816406 -20.179688 8.992188 -19.566406 8.296875 -18.828125 C 8.328125 -18.617188 8.34375 -17.691406 8.34375 -16.046875 L 8.296875 -2.890625 C 9.847656 -1.691406 11.632812 -1.09375 13.65625 -1.09375 Z M 13.65625 -1.09375 "/></g></g></g><g fill="#ffffff" fill-opacity="1"><g transform="translate(449.567316, 201.268273)"><g/></g></g><g fill="#ffffff" fill-opacity="1"><g transform="translate(463.449697, 201.268273)"><g><path d="M 2.515625 -1.515625 C 3.585938 -1.546875 4.351562 -1.789062 4.8125 -2.25 C 5.269531 -2.707031 5.53125 -3.25 5.59375 -3.875 C 5.65625 -4.5 5.6875 -5.59375 5.6875 -7.15625 L 5.6875 -26.953125 C 5.6875 -28.234375 5.726562 -29.332031 5.8125 -30.25 L 2.515625 -30.0625 L 2.515625 -32.078125 L 12.828125 -32.078125 L 12.828125 -30.5625 C 11.765625 -30.53125 11.003906 -30.285156 10.546875 -29.828125 C 10.085938 -29.367188 9.828125 -28.828125 9.765625 -28.203125 C 9.703125 -27.578125 9.671875 -26.488281 9.671875 -24.9375 L 9.671875 -5.453125 C 9.671875 -3.835938 9.625 -2.628906 9.53125 -1.828125 L 12.828125 -2.015625 L 12.828125 0 L 2.515625 0 Z M 2.515625 -1.515625 "/></g></g></g><g fill="#ffffff" fill-opacity="1"><g transform="translate(480.630779, 201.268273)"><g><path d="M 10.625 0.734375 C 6.445312 0.734375 4.375 -2.078125 4.40625 -7.703125 L 4.484375 -20.984375 L 0.96875 -20.9375 L 0.96875 -22.90625 C 2.425781 -22.9375 3.664062 -23.601562 4.6875 -24.90625 C 5.71875 -26.207031 6.476562 -27.679688 6.96875 -29.328125 L 8.53125 -29.328125 L 8.53125 -22.90625 L 16.21875 -22.90625 L 16.21875 -21.125 L 8.53125 -21.03125 C 8.5 -16.351562 8.472656 -13.113281 8.453125 -11.3125 C 8.441406 -9.507812 8.4375 -8.503906 8.4375 -8.296875 C 8.4375 -6.128906 8.691406 -4.515625 9.203125 -3.453125 C 9.722656 -2.398438 10.628906 -1.875 11.921875 -1.875 C 12.710938 -1.875 13.492188 -2.117188 14.265625 -2.609375 C 15.046875 -3.097656 15.726562 -3.769531 16.3125 -4.625 L 17.546875 -3.625 C 16.359375 -1.851562 15.179688 -0.679688 14.015625 -0.109375 C 12.859375 0.453125 11.726562 0.734375 10.625 0.734375 Z M 10.625 0.734375 "/></g></g></g></svg>