<svg xmlns="http://www.w3.org/2000/svg" xmlns:xlink="http://www.w3.org/1999/xlink" width="500" zoomAndPan="magnify" viewBox="0 0 375 374.999991" height="500" preserveAspectRatio="xMidYMid meet" version="1.0"><defs><clipPath id="754da4c7c8"><path d="M 0 3.488281 L 371.25 3.488281 L 371.25 374.738281 L 0 374.738281 Z M 0 3.488281 " clip-rule="nonzero"/></clipPath><clipPath id="4e4ab9f504"><path d="M 185.753906 3.488281 C 83.164062 3.488281 0 86.65625 0 189.242188 C 0 291.832031 83.164062 374.996094 185.753906 374.996094 C 288.34375 374.996094 371.507812 291.832031 371.507812 189.242188 C 371.507812 86.65625 288.34375 3.488281 185.753906 3.488281 Z M 185.753906 3.488281 " clip-rule="nonzero"/></clipPath><clipPath id="d2f509e85b"><path d="M 56.304688 58.050781 L 315.054688 58.050781 L 315.054688 316.800781 L 56.304688 316.800781 Z M 56.304688 58.050781 " clip-rule="nonzero"/></clipPath></defs><rect x="-37.5" width="450" fill="#ffffff" y="-37.499999" height="449.999989" fill-opacity="1"/><rect x="-37.5" width="450" fill="#111827" y="-37.499999" height="449.999989" fill-opacity="1"/><g clip-path="url(#754da4c7c8)"><g clip-path="url(#4e4ab9f504)"><path stroke-linecap="butt" transform="matrix(0.75, 0, 0, 0.75, 0.0000045, 3.489454)" fill="none" stroke-linejoin="miter" d="M 247.671885 -0.00156363 C 110.885418 -0.00156363 -0.000006 110.889069 -0.000006 247.670328 C -0.000006 384.456795 110.885418 495.342219 247.671885 495.342219 C 384.458353 495.342219 495.343777 384.456795 495.343777 247.670328 C 495.343777 110.889069 384.458353 -0.00156363 247.671885 -0.00156363 Z M 247.671885 -0.00156363 " stroke="#ffffff" stroke-width="60" stroke-opacity="1" stroke-miterlimit="4"/></g></g><g clip-path="url(#d2f509e85b)"><path fill="#ffffff" d="M 140.171875 163.195312 C 127.589844 172.105469 120.191406 183.714844 116.304688 196.675781 C 113.820312 204.992188 112.738281 213.847656 112.738281 222.8125 C 111.117188 219.410156 109.660156 215.902344 108.527344 212.28125 C 106.042969 204.507812 104.691406 196.136719 104.691406 187.496094 C 104.691406 165.085938 113.765625 144.832031 128.453125 130.144531 C 143.140625 115.457031 163.394531 106.382812 185.804688 106.382812 C 197.253906 106.382812 208.160156 108.757812 217.992188 113.023438 C 225.820312 116.425781 233.003906 120.964844 239.320312 126.527344 C 242.453125 129.28125 243.210938 132.359375 241.535156 135.597656 C 238.242188 141.972656 232.355469 148.453125 223.929688 153.472656 C 214.480469 159.144531 201.898438 162.976562 186.183594 162.925781 L 186.128906 162.925781 C 182.402344 162.925781 179.378906 161.898438 177.109375 160.222656 C 175.113281 158.710938 173.601562 156.660156 172.628906 154.335938 C 171.601562 151.851562 171.0625 149.046875 171.0625 146.128906 C 171.0625 140.945312 172.683594 135.542969 175.867188 131.277344 C 177.054688 129.710938 176.730469 127.5 175.167969 126.363281 C 173.601562 125.175781 171.386719 125.5 170.25 127.066406 C 166.148438 132.574219 164.042969 139.488281 164.042969 146.128906 C 164.042969 149.964844 164.742188 153.742188 166.203125 157.09375 C 167.445312 160.0625 169.28125 162.707031 171.65625 164.8125 C 161.933594 167.40625 153.242188 172.535156 146.328125 179.449219 C 137.039062 188.738281 130.9375 201.320312 129.964844 215.253906 L 129.964844 219.355469 C 129.964844 234.910156 136.285156 249.003906 146.492188 259.210938 C 156.695312 269.417969 170.792969 275.738281 186.34375 275.738281 C 210.699219 275.738281 232.734375 265.855469 248.664062 249.921875 C 264.59375 233.992188 274.476562 211.90625 274.476562 187.605469 C 274.476562 187.496094 274.476562 187.386719 274.476562 187.28125 C 274.476562 184.417969 274.421875 180.367188 274.421875 175.128906 C 274.421875 170.699219 274.421875 167.136719 274.421875 164.4375 C 274.421875 163.84375 274.421875 163.300781 274.421875 162.707031 C 274.421875 160.765625 272.859375 159.199219 270.914062 159.199219 C 268.96875 159.199219 267.402344 160.765625 267.402344 162.707031 L 267.402344 164.597656 C 267.132812 178.476562 263.136719 190.140625 255.414062 199.644531 C 248.230469 208.449219 237.703125 215.46875 223.984375 220.597656 C 222.039062 221.140625 220.097656 221.839844 218.042969 222.652344 C 216.316406 223.300781 215.398438 225.191406 215.992188 226.972656 C 216.585938 228.808594 218.53125 229.835938 220.421875 229.238281 L 220.636719 229.1875 C 222.472656 228.59375 224.253906 227.996094 225.984375 227.351562 C 229.007812 226.484375 231.816406 225.890625 234.40625 225.675781 C 238.351562 225.351562 241.699219 225.730469 244.398438 226.863281 C 246.179688 227.621094 248.230469 226.753906 248.988281 224.972656 C 249.746094 223.191406 248.878906 221.140625 247.097656 220.382812 C 245.855469 219.898438 244.613281 219.464844 243.265625 219.195312 C 250.339844 214.875 256.226562 209.90625 260.921875 204.128906 C 263.300781 201.210938 265.40625 198.082031 267.1875 194.785156 C 265.511719 214.335938 256.871094 231.941406 243.75 245.007812 C 229.0625 259.699219 208.808594 268.769531 186.398438 268.769531 C 172.789062 268.769531 160.476562 263.261719 151.511719 254.351562 C 142.601562 245.441406 137.09375 233.074219 137.09375 219.464844 L 137.09375 216.875 C 137.742188 204.289062 143.140625 192.949219 151.457031 184.578125 C 160.371094 175.667969 172.683594 170.160156 186.34375 170.160156 L 186.453125 170.160156 C 203.570312 170.214844 217.398438 165.949219 227.820312 159.738281 C 241.105469 151.800781 248.933594 140.511719 251.257812 130.578125 L 251.257812 130.46875 C 251.363281 129.980469 251.363281 129.496094 251.257812 129.0625 L 251.257812 128.957031 C 251.09375 128.308594 250.824219 127.769531 250.339844 127.28125 C 242.183594 118.585938 232.246094 111.566406 221.121094 106.761719 C 210.375 102.117188 198.550781 99.523438 186.128906 99.523438 C 171.277344 99.523438 157.292969 103.195312 145.03125 109.675781 C 139.308594 112.808594 133.800781 116.535156 128.507812 121.019531 C 126.886719 122.421875 125.320312 123.878906 123.808594 125.390625 C 118.191406 130.953125 113.386719 137.328125 109.445312 144.238281 C 108.308594 146.34375 107.230469 148.453125 106.203125 150.503906 C 100.910156 161.789062 97.996094 174.425781 97.996094 187.710938 C 97.996094 197.109375 99.453125 206.125 102.207031 214.660156 C 105.015625 223.460938 109.226562 231.671875 114.464844 239.015625 C 115.601562 240.582031 117.816406 240.957031 119.382812 239.824219 C 120.515625 239.015625 121 237.664062 120.785156 236.367188 C 119.542969 223.460938 119.921875 210.554688 123.429688 198.835938 C 126.886719 187.332031 133.476562 176.964844 144.601562 169.082031 C 146.167969 167.945312 146.542969 165.785156 145.410156 164.167969 C 143.953125 162.4375 141.738281 162.113281 140.171875 163.195312 Z M 273.9375 99.363281 C 296.511719 121.9375 310.445312 153.09375 310.445312 187.550781 C 310.445312 222.003906 296.511719 253.164062 273.9375 275.738281 C 251.363281 298.308594 220.203125 312.242188 185.75 312.242188 C 151.296875 312.242188 120.136719 298.308594 97.5625 275.738281 C 75.042969 253.109375 61.058594 221.949219 61.058594 187.496094 C 61.058594 153.042969 74.992188 121.882812 97.5625 99.308594 C 120.136719 76.789062 151.351562 62.800781 185.75 62.800781 C 220.203125 62.800781 251.363281 76.789062 273.9375 99.363281 Z M 185.75 58.050781 C 221.5 58.050781 253.847656 72.523438 277.285156 95.960938 C 300.722656 119.398438 315.195312 151.746094 315.195312 187.496094 C 315.195312 223.246094 300.722656 255.59375 277.285156 279.03125 C 253.847656 302.46875 221.5 316.941406 185.75 316.941406 C 150 316.941406 117.652344 302.46875 94.214844 279.03125 C 70.777344 255.648438 56.304688 223.246094 56.304688 187.496094 C 56.304688 151.746094 70.777344 119.398438 94.214844 95.960938 C 117.652344 72.523438 150 58.050781 185.75 58.050781 Z M 269.078125 104.222656 C 250.769531 85.914062 226.523438 73.65625 199.46875 70.523438 L 199.46875 67.5 C 227.332031 70.632812 252.335938 83.269531 271.183594 102.117188 C 290.03125 120.964844 302.667969 145.96875 305.800781 173.832031 L 302.828125 173.832031 C 299.644531 146.777344 287.332031 122.476562 269.078125 104.222656 Z M 305.800781 201.210938 C 302.667969 229.078125 290.03125 254.082031 271.183594 272.929688 C 252.335938 291.777344 227.332031 304.414062 199.46875 307.542969 L 199.46875 304.519531 C 226.523438 301.386719 250.769531 289.074219 269.078125 270.820312 C 287.382812 252.515625 299.644531 228.269531 302.773438 201.210938 Z M 172.089844 70.523438 C 145.03125 73.65625 120.785156 85.96875 102.476562 104.222656 C 84.171875 122.476562 71.914062 146.777344 68.726562 173.832031 L 65.703125 173.832031 C 68.835938 145.96875 81.472656 120.964844 100.316406 102.117188 C 119.164062 83.269531 144.167969 70.632812 172.035156 67.5 L 172.035156 70.523438 Z M 68.78125 201.210938 C 71.914062 228.269531 84.226562 252.515625 102.476562 270.820312 C 120.785156 289.128906 145.03125 301.386719 172.089844 304.519531 L 172.089844 307.542969 C 144.222656 304.414062 119.21875 291.777344 100.371094 272.929688 C 81.523438 254.082031 68.886719 229.078125 65.757812 201.210938 Z M 250.933594 130.253906 Z M 186.019531 170 Z M 220.042969 229.078125 Z M 206.867188 248.140625 C 213.671875 245.765625 219.988281 242.308594 225.605469 237.828125 C 227.117188 236.636719 229.332031 236.910156 230.519531 238.421875 C 231.707031 239.933594 231.4375 242.148438 229.925781 243.335938 C 223.660156 248.304688 216.640625 252.136719 209.132812 254.785156 C 201.683594 257.375 193.796875 258.726562 185.695312 258.726562 C 174.789062 258.726562 164.960938 254.296875 157.832031 247.167969 C 150.703125 240.039062 146.273438 230.15625 146.273438 219.304688 C 146.273438 217.359375 147.839844 215.792969 149.785156 215.792969 C 151.730469 215.792969 153.296875 217.359375 153.296875 219.304688 C 153.296875 228.269531 156.914062 236.367188 162.800781 242.199219 C 168.632812 248.03125 176.730469 251.707031 185.695312 251.707031 C 193.09375 251.707031 200.222656 250.464844 206.867188 248.140625 Z M 224.039062 138.296875 C 221.015625 138.296875 218.585938 135.867188 218.585938 132.84375 C 218.585938 129.820312 221.015625 127.390625 224.039062 127.390625 C 227.0625 127.390625 229.492188 129.820312 229.492188 132.84375 C 229.492188 135.867188 227.0625 138.296875 224.039062 138.296875 Z M 224.039062 138.296875 " fill-opacity="1" fill-rule="evenodd"/></g></svg>