<svg xmlns="http://www.w3.org/2000/svg" xmlns:xlink="http://www.w3.org/1999/xlink" width="500" zoomAndPan="magnify" viewBox="0 0 375 374.999991" height="500" preserveAspectRatio="xMidYMid meet" version="1.0"><defs><g/><clipPath id="1ad9db22b0"><path d="M 268.496094 135 L 375 135 L 375 241.550781 L 268.496094 241.550781 Z M 268.496094 135 " clip-rule="nonzero"/></clipPath><clipPath id="9756659944"><path d="M 321.773438 135 C 292.347656 135 268.496094 158.851562 268.496094 188.277344 C 268.496094 217.699219 292.347656 241.550781 321.773438 241.550781 C 351.195312 241.550781 375.046875 217.699219 375.046875 188.277344 C 375.046875 158.851562 351.195312 135 321.773438 135 Z M 321.773438 135 " clip-rule="nonzero"/></clipPath><clipPath id="17d671c5eb"><path d="M 1.542969 135 L 109.996094 135 L 109.996094 243.453125 L 1.542969 243.453125 Z M 1.542969 135 " clip-rule="nonzero"/></clipPath><clipPath id="31fb65a8d6"><path d="M 55.769531 135 C 25.820312 135 1.542969 159.277344 1.542969 189.226562 C 1.542969 219.175781 25.820312 243.453125 55.769531 243.453125 C 85.71875 243.453125 109.996094 219.175781 109.996094 189.226562 C 109.996094 159.277344 85.71875 135 55.769531 135 Z M 55.769531 135 " clip-rule="nonzero"/></clipPath><clipPath id="36af280e94"><path d="M 135 3.515625 L 242.484375 3.515625 L 242.484375 111 L 135 111 Z M 135 3.515625 " clip-rule="nonzero"/></clipPath><clipPath id="2d58a32ef9"><path d="M 188.742188 3.515625 C 159.0625 3.515625 135 27.574219 135 57.257812 C 135 86.9375 159.0625 111 188.742188 111 C 218.425781 111 242.484375 86.9375 242.484375 57.257812 C 242.484375 27.574219 218.425781 3.515625 188.742188 3.515625 Z M 188.742188 3.515625 " clip-rule="nonzero"/></clipPath><clipPath id="e10855dac9"><path d="M 135 135 L 244 135 L 244 242.476562 L 135 242.476562 Z M 135 135 " clip-rule="nonzero"/></clipPath><clipPath id="48077f2120"><path d="M 189.375 135 C 159.34375 135 135 159.058594 135 188.738281 C 135 218.414062 159.34375 242.476562 189.375 242.476562 C 219.402344 242.476562 243.746094 218.414062 243.746094 188.738281 C 243.746094 159.058594 219.402344 135 189.375 135 Z M 189.375 135 " clip-rule="nonzero"/></clipPath><clipPath id="af71c6f079"><path d="M 135 266.179688 L 241.789062 266.179688 L 241.789062 372.96875 L 135 372.96875 Z M 135 266.179688 " clip-rule="nonzero"/></clipPath><clipPath id="482c1ea7d2"><path d="M 188.394531 266.179688 C 158.90625 266.179688 135 290.085938 135 319.574219 C 135 349.0625 158.90625 372.96875 188.394531 372.96875 C 217.882812 372.96875 241.789062 349.0625 241.789062 319.574219 C 241.789062 290.085938 217.882812 266.179688 188.394531 266.179688 Z M 188.394531 266.179688 " clip-rule="nonzero"/></clipPath></defs><g fill="#2563eb" fill-opacity="1"><g transform="translate(-0.983336, 280.055518)"><g><path d="M 30.75 -28.546875 L 1.328125 -28.546875 L 1.328125 -28.265625 L 1.984375 -28.265625 C 4.859375 -28.265625 5.8125 -27.4375 5.8125 -23.53125 L 5.8125 -5.015625 C 5.8125 -1.125 4.859375 -0.296875 1.984375 -0.296875 L 1.328125 -0.296875 L 1.328125 0 L 21.046875 0 L 21.046875 -0.296875 L 20.375 -0.296875 C 16.265625 -0.296875 14.90625 -1.125 14.90625 -5.015625 L 14.90625 -14.0625 C 19.25 -13.9375 21.78125 -10.953125 22.453125 -6.46875 L 22.703125 -6.46875 L 22.703125 -22.375 L 22.453125 -22.375 C 21.78125 -17.671875 19.25 -14.484375 14.90625 -14.359375 L 14.90625 -28.265625 L 15.734375 -28.265625 C 22.625 -28.265625 29.71875 -23.078125 30.921875 -16.3125 L 31.171875 -16.3125 Z M 30.75 -28.546875 "/></g></g></g><g fill="#2563eb" fill-opacity="1"><g transform="translate(26.36224, 280.055518)"><g><path d="M 18.71875 -28.265625 L 19.375 -28.265625 L 19.375 -28.546875 L 1.328125 -28.546875 L 1.328125 -28.265625 L 1.984375 -28.265625 C 4.859375 -28.265625 5.8125 -27.4375 5.8125 -23.53125 L 5.8125 -5.015625 C 5.8125 -1.125 4.859375 -0.296875 1.984375 -0.296875 L 1.328125 -0.296875 L 1.328125 0 L 19.375 0 L 19.375 -0.296875 L 18.71875 -0.296875 C 15.859375 -0.296875 14.90625 -1.125 14.90625 -5.015625 L 14.90625 -23.53125 C 14.90625 -27.4375 15.859375 -28.265625 18.71875 -28.265625 Z M 18.71875 -28.265625 "/></g></g></g><g fill="#2563eb" fill-opacity="1"><g transform="translate(42.503867, 280.055518)"><g><path d="M 20.671875 -4.1875 C 20.671875 -1.453125 18.46875 0.296875 14.359375 0.296875 C 9.953125 0.296875 6.6875 -2.828125 3.65625 -11.828125 L 3.40625 -11.828125 L 2.65625 0.203125 L 2.90625 0.203125 C 3.15625 -0.65625 3.8125 -0.78125 4.484375 -0.78125 C 6.34375 -0.78125 9.71875 0.65625 14.3125 0.65625 C 21.90625 0.65625 26.265625 -2.859375 26.265625 -8.21875 C 26.265625 -13.984375 22.578125 -16.21875 17.390625 -17.96875 C 10.796875 -19.71875 8.34375 -21.453125 8.34375 -24.859375 C 8.34375 -27.390625 9.953125 -28.84375 13.6875 -28.84375 C 18.296875 -28.84375 20.921875 -25.984375 23.78125 -17.671875 L 24.03125 -17.671875 L 24.8125 -28.765625 L 24.5625 -28.765625 C 24.3125 -27.84375 23.484375 -27.71875 22.828125 -27.71875 C 20.875 -27.71875 17.796875 -29.21875 13.6875 -29.21875 C 7.84375 -29.21875 2.65625 -26.515625 2.65625 -20.921875 C 2.65625 -16.140625 4.6875 -13.359375 11.453125 -10.953125 C 16.5625 -9.296875 20.671875 -8.21875 20.671875 -4.1875 Z M 20.671875 -4.1875 "/></g></g></g><g fill="#2563eb" fill-opacity="1"><g transform="translate(66.114789, 280.055518)"><g><path d="M 38.015625 -28.265625 L 38.671875 -28.265625 L 38.671875 -28.546875 L 21.046875 -28.546875 L 21.046875 -28.265625 L 21.703125 -28.265625 C 24.28125 -28.265625 25.109375 -27.4375 25.109375 -23.53125 L 25.109375 -13.8125 L 14.90625 -13.8125 L 14.90625 -23.53125 C 14.90625 -27.4375 15.765625 -28.265625 18.296875 -28.265625 L 18.96875 -28.265625 L 18.96875 -28.546875 L 1.328125 -28.546875 L 1.328125 -28.265625 L 1.984375 -28.265625 C 4.859375 -28.265625 5.8125 -27.4375 5.8125 -23.53125 L 5.8125 -5.015625 C 5.8125 -1.125 4.859375 -0.296875 1.984375 -0.296875 L 1.328125 -0.296875 L 1.328125 0 L 18.96875 0 L 18.96875 -0.296875 L 18.296875 -0.296875 C 15.765625 -0.296875 14.90625 -1.125 14.90625 -5.015625 L 14.90625 -13.453125 L 25.109375 -13.453125 L 25.109375 -5.015625 C 25.109375 -1.125 24.28125 -0.296875 21.703125 -0.296875 L 21.046875 -0.296875 L 21.046875 0 L 38.671875 0 L 38.671875 -0.296875 L 38.015625 -0.296875 C 35.15625 -0.296875 34.203125 -1.125 34.203125 -5.015625 L 34.203125 -23.53125 C 34.203125 -27.4375 35.15625 -28.265625 38.015625 -28.265625 Z M 38.015625 -28.265625 "/></g></g></g><g fill="#2563eb" fill-opacity="1"><g transform="translate(101.552104, 280.055518)"><g><path d="M 18.71875 -28.265625 L 19.375 -28.265625 L 19.375 -28.546875 L 1.328125 -28.546875 L 1.328125 -28.265625 L 1.984375 -28.265625 C 4.859375 -28.265625 5.8125 -27.4375 5.8125 -23.53125 L 5.8125 -5.015625 C 5.8125 -1.125 4.859375 -0.296875 1.984375 -0.296875 L 1.328125 -0.296875 L 1.328125 0 L 19.375 0 L 19.375 -0.296875 L 18.71875 -0.296875 C 15.859375 -0.296875 14.90625 -1.125 14.90625 -5.015625 L 14.90625 -23.53125 C 14.90625 -27.4375 15.859375 -28.265625 18.71875 -28.265625 Z M 18.71875 -28.265625 "/></g></g></g><g fill="#2563eb" fill-opacity="1"><g transform="translate(117.693731, 280.055518)"><g><path d="M 22.03125 -28.546875 L 22.03125 -28.265625 L 22.703125 -28.265625 C 26.84375 -28.265625 28.96875 -19.546875 28.96875 -15.4375 L 28.96875 -4.359375 L 15.6875 -28.546875 L 1.15625 -28.546875 L 1.15625 -28.265625 L 1.828125 -28.265625 C 4.4375 -28.265625 5.8125 -27.5625 6.015625 -24.484375 L 6.0625 -13.109375 C 6.0625 -9 4.359375 -0.296875 0.78125 -0.296875 L 0.125 -0.296875 L 0.125 0 L 13.6875 0 L 13.6875 -0.296875 L 13.03125 -0.296875 C 8.875 -0.296875 6.34375 -9 6.34375 -13.109375 L 6.34375 -27.390625 L 20.75 0 L 29.25 0 L 29.25 -15.4375 C 29.25 -19.546875 31 -28.265625 34.5625 -28.265625 L 35.234375 -28.265625 L 35.234375 -28.546875 Z M 22.03125 -28.546875 "/></g></g></g><g fill="#2563eb" fill-opacity="1"><g transform="translate(221.614179, 280.055446)"><g><path d="M 35.03125 -14.65625 L 18.640625 -14.65625 L 18.640625 -14.359375 L 19.296875 -14.359375 C 21.875 -14.359375 22.703125 -13.53125 22.703125 -9.625 L 22.703125 -0.453125 C 21.53125 0 20.328125 0.296875 18.71875 0.296875 C 12.78125 0.296875 11.75 -3.484375 11.75 -14.28125 C 11.75 -24.40625 13.109375 -28.84375 18.921875 -28.84375 C 22.953125 -28.84375 26.515625 -24.3125 28.59375 -16.3125 L 28.84375 -16.3125 L 30.046875 -28.765625 L 29.796875 -28.765625 C 29.546875 -27.890625 28.921875 -27.765625 28.265625 -27.765625 C 26.390625 -27.765625 22.703125 -29.21875 18.921875 -29.21875 C 9.59375 -29.21875 2.28125 -24.5625 2.28125 -14.40625 C 2.28125 -3.5625 8.59375 0.65625 18.71875 0.65625 C 22.90625 0.65625 26.3125 -1.703125 28.84375 -1.703125 C 30.21875 -1.703125 30.875 -1.25 31.546875 0 L 31.796875 0 L 31.796875 -10.875 C 31.796875 -13.734375 32.40625 -14.359375 34.359375 -14.359375 L 35.03125 -14.359375 Z M 35.03125 -14.65625 "/></g></g></g><g fill="#2563eb" fill-opacity="1"><g transform="translate(252.652855, 280.055446)"><g><path d="M 34.984375 -5.265625 C 34.5625 -2.984375 33.65625 -1.65625 32.03125 -1.65625 C 30.46875 -1.65625 29.625 -2.953125 29.421875 -6.71875 C 29.046875 -13.484375 23.828125 -14.859375 19.71875 -15.109375 C 28.96875 -15.359375 31.296875 -17.96875 31.296875 -22 C 31.296875 -26.0625 28.71875 -28.546875 18.171875 -28.546875 L 1.328125 -28.546875 L 1.328125 -28.265625 L 1.984375 -28.265625 C 4.859375 -28.265625 5.8125 -27.4375 5.8125 -23.53125 L 5.8125 -5.015625 C 5.8125 -1.125 4.859375 -0.296875 1.984375 -0.296875 L 1.328125 -0.296875 L 1.328125 0 L 19.375 0 L 19.375 -0.296875 L 18.71875 -0.296875 C 15.859375 -0.296875 14.90625 -1.125 14.90625 -5.015625 L 14.90625 -15.109375 L 16.390625 -15.109375 C 18.515625 -15.109375 19.921875 -14.234375 20.046875 -8.421875 C 20.296875 -0.703125 23.578125 0.65625 27.6875 0.65625 C 32 0.65625 34.40625 -0.828125 35.28125 -5.140625 Z M 22 -22 C 22 -17.4375 20.421875 -15.390625 15.6875 -15.390625 L 14.90625 -15.390625 L 14.90625 -28.265625 L 15.3125 -28.265625 C 19.921875 -28.265625 22 -26.359375 22 -22 Z M 22 -22 "/></g></g></g><g fill="#2563eb" fill-opacity="1"><g transform="translate(283.193575, 280.055446)"><g><path d="M 36.3125 -0.296875 C 34.65625 -0.296875 33.078125 -0.703125 31.703125 -4.109375 L 21.75 -28.546875 L 12.25 -28.546875 L 14.03125 -24.0625 L 7.890625 -9 C 5.4375 -3.03125 2.53125 -0.65625 0.171875 -0.296875 L 0.171875 0 L 13.8125 0 L 13.8125 -0.296875 C 9.09375 -0.296875 7.84375 -5.96875 9.25 -11.125 L 19.21875 -11.125 L 21.75 -4.8125 C 22.859375 -1.90625 21.171875 -0.296875 18.21875 -0.296875 L 18.21875 0 L 36.734375 0 L 36.734375 -0.296875 Z M 9.375 -11.453125 C 9.5 -11.90625 9.671875 -12.359375 9.828125 -12.78125 L 14.234375 -23.578125 L 19.09375 -11.453125 Z M 9.375 -11.453125 "/></g></g></g><g fill="#2563eb" fill-opacity="1"><g transform="translate(315.518623, 280.055446)"><g><path d="M 45.0625 -28.265625 L 45.734375 -28.265625 L 45.734375 -28.546875 L 32 -28.546875 L 24.03125 -7.296875 L 15.1875 -28.546875 L 1.375 -28.546875 L 1.375 -28.265625 L 2.03125 -28.265625 C 4.609375 -28.265625 5.640625 -27.59375 5.8125 -24.65625 L 5.84375 -12.28125 C 5.84375 -7.890625 3.609375 -0.296875 0.65625 -0.296875 L 0 -0.296875 L 0 0 L 13.484375 0 L 13.484375 -0.296875 L 12.828125 -0.296875 C 8.875 -0.296875 6.21875 -7.890625 6.21875 -12.28125 L 6.21875 -27.140625 L 16.46875 -2.109375 L 22.578125 -2.109375 L 32.15625 -27.765625 L 32.15625 -5.015625 C 32.15625 -1.125 31.203125 -0.296875 28.34375 -0.296875 L 27.6875 -0.296875 L 27.6875 0 L 45.734375 0 L 45.734375 -0.296875 L 45.0625 -0.296875 C 42.203125 -0.296875 41.25 -1.125 41.25 -5.015625 L 41.25 -23.53125 C 41.25 -27.4375 42.203125 -28.265625 45.0625 -28.265625 Z M 45.0625 -28.265625 "/></g></g></g><g fill="#2563eb" fill-opacity="1"><g transform="translate(358.010213, 280.055446)"><g/></g></g><g fill="#2563eb" fill-opacity="1"><g transform="translate(363.404294, 280.055446)"><g><path d="M 6.9375 0.65625 C 9.375 0.65625 11.328125 -1.328125 11.328125 -3.734375 C 11.328125 -6.1875 9.375 -8.140625 6.9375 -8.140625 C 4.484375 -8.140625 2.484375 -6.1875 2.484375 -3.734375 C 2.484375 -1.328125 4.484375 0.65625 6.9375 0.65625 Z M 6.9375 0.65625 "/></g></g></g><g clip-path="url(#1ad9db22b0)"><g clip-path="url(#9756659944)"><path fill="#2563eb" d="M 268.496094 135 L 375.046875 135 L 375.046875 241.550781 L 268.496094 241.550781 Z M 268.496094 135 " fill-opacity="1" fill-rule="nonzero"/></g></g><g clip-path="url(#17d671c5eb)"><g clip-path="url(#31fb65a8d6)"><path fill="#2563eb" d="M 1.542969 135 L 109.996094 135 L 109.996094 243.453125 L 1.542969 243.453125 Z M 1.542969 135 " fill-opacity="1" fill-rule="nonzero"/></g></g><g clip-path="url(#36af280e94)"><g clip-path="url(#2d58a32ef9)"><path fill="#2563eb" d="M 135 3.515625 L 242.484375 3.515625 L 242.484375 111 L 135 111 Z M 135 3.515625 " fill-opacity="1" fill-rule="nonzero"/></g></g><g clip-path="url(#e10855dac9)"><g clip-path="url(#48077f2120)"><path fill="#2563eb" d="M 135 135 L 243.734375 135 L 243.734375 242.476562 L 135 242.476562 Z M 135 135 " fill-opacity="1" fill-rule="nonzero"/></g></g><g clip-path="url(#af71c6f079)"><g clip-path="url(#482c1ea7d2)"><path fill="#2563eb" d="M 135 266.179688 L 241.789062 266.179688 L 241.789062 372.96875 L 135 372.96875 Z M 135 266.179688 " fill-opacity="1" fill-rule="nonzero"/></g></g><path stroke-linecap="butt" transform="matrix(0.75, -0.000000000000000186, 0.000000000000000186, 0.75, 82.394778, 172.352463)" fill="none" stroke-linejoin="miter" d="M -0.000329386 22.498801 L 289.379898 22.498801 " stroke="#2563eb" stroke-width="45" stroke-opacity="1" stroke-miterlimit="4"/><path stroke-linecap="butt" transform="matrix(0, -0.75, 0.75, 0, 171.514037, 291.401904)" fill="none" stroke-linejoin="miter" d="M -0.000586247 22.502118 L 275.452557 22.502118 " stroke="#2563eb" stroke-width="45" stroke-opacity="1" stroke-miterlimit="4"/></svg>