<svg xmlns="http://www.w3.org/2000/svg" xmlns:xlink="http://www.w3.org/1999/xlink" width="500" zoomAndPan="magnify" viewBox="0 0 375 374.999991" height="500" preserveAspectRatio="xMidYMid meet" version="1.0"><defs><clipPath id="cf407a8598"><path d="M 11.03125 6.226562 L 368.78125 6.226562 L 368.78125 363.976562 L 11.03125 363.976562 Z M 11.03125 6.226562 " clip-rule="nonzero"/></clipPath><clipPath id="3abc8e8600"><path d="M 22.632812 17.828125 L 357.132812 17.828125 L 357.132812 352.328125 L 22.632812 352.328125 Z M 22.632812 17.828125 " clip-rule="nonzero"/></clipPath><clipPath id="f457f52ead"><path d="M 189.898438 17.828125 C 97.519531 17.828125 22.632812 92.714844 22.632812 185.09375 C 22.632812 277.472656 97.519531 352.363281 189.898438 352.363281 C 282.277344 352.363281 357.167969 277.472656 357.167969 185.09375 C 357.167969 92.714844 282.277344 17.828125 189.898438 17.828125 Z M 189.898438 17.828125 " clip-rule="nonzero"/></clipPath></defs><g clip-path="url(#cf407a8598)"><path fill="#ffffff" d="M 126.917969 151.515625 C 109.53125 163.828125 99.308594 179.871094 93.933594 197.78125 C 90.503906 209.273438 89.011719 221.511719 89.011719 233.898438 C 86.769531 229.195312 84.757812 224.34375 83.191406 219.347656 C 79.757812 208.601562 77.890625 197.035156 77.890625 185.09375 C 77.890625 154.125 90.429688 126.144531 110.726562 105.847656 C 131.023438 85.546875 159.003906 73.011719 189.972656 73.011719 C 205.792969 73.011719 220.867188 76.296875 234.449219 82.191406 C 245.269531 86.890625 255.195312 93.160156 263.925781 100.847656 C 268.253906 104.652344 269.296875 108.90625 266.984375 113.382812 C 262.433594 122.1875 254.296875 131.144531 242.65625 138.082031 C 229.597656 145.917969 212.210938 151.214844 190.496094 151.140625 L 190.421875 151.140625 C 185.273438 151.140625 181.09375 149.722656 177.960938 147.410156 C 175.199219 145.320312 173.109375 142.484375 171.765625 139.277344 C 170.347656 135.84375 169.601562 131.964844 169.601562 127.933594 C 169.601562 120.769531 171.839844 113.308594 176.242188 107.414062 C 177.886719 105.25 177.4375 102.1875 175.273438 100.621094 C 173.109375 98.980469 170.050781 99.429688 168.484375 101.59375 C 162.8125 109.203125 159.902344 118.753906 159.902344 127.933594 C 159.902344 133.230469 160.871094 138.457031 162.886719 143.082031 C 164.601562 147.1875 167.140625 150.84375 170.421875 153.753906 C 156.992188 157.335938 144.976562 164.425781 135.425781 173.976562 C 122.589844 186.8125 114.15625 204.199219 112.816406 223.449219 L 112.816406 229.121094 C 112.816406 250.613281 121.546875 270.089844 135.648438 284.191406 C 149.753906 298.296875 169.230469 307.027344 190.71875 307.027344 C 224.375 307.027344 254.820312 293.371094 276.832031 271.359375 C 298.847656 249.34375 312.503906 218.824219 312.503906 185.242188 C 312.503906 185.09375 312.503906 184.945312 312.503906 184.796875 C 312.503906 180.839844 312.429688 175.246094 312.429688 168.007812 C 312.429688 161.886719 312.429688 156.960938 312.429688 153.230469 C 312.429688 152.410156 312.429688 151.664062 312.429688 150.84375 C 312.429688 148.15625 310.265625 145.992188 307.578125 145.992188 C 304.890625 145.992188 302.726562 148.15625 302.726562 150.84375 L 302.726562 153.453125 C 302.355469 172.632812 296.832031 188.75 286.160156 201.882812 C 276.238281 214.046875 261.683594 223.75 242.730469 230.835938 C 240.046875 231.585938 237.359375 232.554688 234.523438 233.671875 C 232.136719 234.570312 230.867188 237.179688 231.6875 239.644531 C 232.507812 242.179688 235.195312 243.597656 237.804688 242.777344 L 238.105469 242.703125 C 240.640625 241.882812 243.105469 241.0625 245.492188 240.164062 C 249.671875 238.972656 253.550781 238.152344 257.132812 237.851562 C 262.582031 237.40625 267.207031 237.925781 270.9375 239.492188 C 273.402344 240.539062 276.238281 239.34375 277.28125 236.882812 C 278.328125 234.417969 277.132812 231.585938 274.667969 230.539062 C 272.953125 229.867188 271.238281 229.269531 269.371094 228.898438 C 279.148438 222.929688 287.28125 216.0625 293.773438 208.078125 C 297.054688 204.046875 299.964844 199.71875 302.429688 195.167969 C 300.117188 222.183594 288.175781 246.507812 270.042969 264.566406 C 249.746094 284.863281 221.761719 297.402344 190.792969 297.402344 C 171.988281 297.402344 154.976562 289.789062 142.589844 277.476562 C 130.277344 265.164062 122.664062 248.074219 122.664062 229.269531 L 122.664062 225.6875 C 123.558594 208.300781 131.023438 192.632812 142.515625 181.066406 C 154.828125 168.753906 171.839844 161.140625 190.71875 161.140625 L 190.871094 161.140625 C 214.523438 161.214844 233.628906 155.320312 248.03125 146.738281 C 266.386719 135.769531 277.207031 120.171875 280.414062 106.441406 L 280.414062 106.292969 C 280.566406 105.621094 280.566406 104.949219 280.414062 104.351562 L 280.414062 104.203125 C 280.191406 103.308594 279.820312 102.5625 279.148438 101.890625 C 267.878906 89.875 254.148438 80.175781 238.777344 73.535156 C 223.925781 67.117188 207.585938 63.535156 190.421875 63.535156 C 169.898438 63.535156 150.574219 68.609375 133.632812 77.5625 C 125.722656 81.890625 118.113281 87.042969 110.800781 93.234375 C 108.5625 95.175781 106.398438 97.191406 104.308594 99.277344 C 96.546875 106.964844 89.90625 115.769531 84.457031 125.320312 C 82.890625 128.234375 81.398438 131.144531 79.980469 133.976562 C 72.667969 149.574219 68.636719 167.035156 68.636719 185.394531 C 68.636719 198.378906 70.652344 210.839844 74.457031 222.628906 C 78.339844 234.792969 84.160156 246.136719 91.398438 256.285156 C 92.964844 258.449219 96.023438 258.96875 98.1875 257.402344 C 99.753906 256.285156 100.425781 254.417969 100.128906 252.628906 C 98.414062 234.792969 98.933594 216.957031 103.785156 200.765625 C 108.5625 184.871094 117.664062 170.542969 133.035156 159.648438 C 135.199219 158.082031 135.722656 155.097656 134.15625 152.859375 C 132.140625 150.46875 129.082031 150.023438 126.917969 151.515625 Z M 311.757812 63.3125 C 342.949219 94.503906 362.203125 137.558594 362.203125 185.167969 C 362.203125 232.777344 342.949219 275.835938 311.757812 307.027344 C 280.566406 338.21875 237.507812 357.472656 189.898438 357.472656 C 142.289062 357.472656 99.234375 338.21875 68.042969 307.027344 C 36.921875 275.761719 17.597656 232.703125 17.597656 185.09375 C 17.597656 137.484375 36.847656 94.429688 68.042969 63.238281 C 99.234375 32.121094 142.363281 12.792969 189.898438 12.792969 C 237.507812 12.792969 280.566406 32.121094 311.757812 63.3125 Z M 189.898438 6.226562 C 239.300781 6.226562 283.996094 26.222656 316.382812 58.609375 C 348.769531 90.996094 368.769531 135.695312 368.769531 185.09375 C 368.769531 234.496094 348.769531 279.191406 316.382812 311.578125 C 283.996094 343.964844 239.300781 363.964844 189.898438 363.964844 C 140.5 363.964844 95.800781 343.964844 63.414062 311.578125 C 31.027344 279.265625 11.03125 234.496094 11.03125 185.09375 C 11.03125 135.695312 31.027344 90.996094 63.414062 58.609375 C 95.800781 26.222656 140.5 6.226562 189.898438 6.226562 Z M 305.039062 70.027344 C 279.742188 44.730469 246.238281 27.792969 208.851562 23.464844 L 208.851562 19.285156 C 247.359375 23.613281 281.90625 41.074219 307.953125 67.117188 C 333.996094 93.160156 351.457031 127.710938 355.785156 166.214844 L 351.679688 166.214844 C 347.277344 128.828125 330.261719 95.25 305.039062 70.027344 Z M 355.785156 204.046875 C 351.457031 242.554688 333.996094 277.101562 307.953125 303.148438 C 281.90625 329.191406 247.359375 346.652344 208.851562 350.980469 L 208.851562 346.800781 C 246.238281 342.472656 279.742188 325.457031 305.039062 300.234375 C 330.335938 274.9375 347.277344 241.433594 351.605469 204.046875 Z M 171.019531 23.464844 C 133.632812 27.792969 100.128906 44.804688 74.832031 70.027344 C 49.535156 95.25 32.597656 128.828125 28.191406 166.214844 L 24.015625 166.214844 C 28.34375 127.710938 45.804688 93.160156 71.847656 67.117188 C 97.890625 41.074219 132.441406 23.613281 170.945312 19.285156 L 170.945312 23.464844 Z M 28.269531 204.046875 C 32.597656 241.433594 49.609375 274.9375 74.832031 300.234375 C 100.128906 325.53125 133.632812 342.472656 171.019531 346.800781 L 171.019531 350.980469 C 132.515625 346.652344 97.964844 329.191406 71.921875 303.148438 C 45.878906 277.101562 28.417969 242.554688 24.089844 204.046875 Z M 279.96875 105.996094 Z M 190.273438 160.917969 Z M 237.285156 242.554688 Z M 219.078125 268.894531 C 228.480469 265.613281 237.210938 260.835938 244.96875 254.640625 C 247.058594 253 250.117188 253.375 251.761719 255.464844 C 253.402344 257.550781 253.03125 260.613281 250.941406 262.253906 C 242.285156 269.117188 232.582031 274.417969 222.210938 278.074219 C 211.914062 281.65625 201.019531 283.519531 189.824219 283.519531 C 174.75 283.519531 161.167969 277.402344 151.320312 267.550781 C 141.46875 257.703125 135.351562 244.046875 135.351562 229.046875 C 135.351562 226.359375 137.515625 224.195312 140.199219 224.195312 C 142.886719 224.195312 145.050781 226.359375 145.050781 229.046875 C 145.050781 241.433594 150.050781 252.628906 158.183594 260.6875 C 166.242188 268.746094 177.4375 273.820312 189.824219 273.820312 C 200.046875 273.820312 209.898438 272.105469 219.078125 268.894531 Z M 242.804688 117.113281 C 238.628906 117.113281 235.269531 113.753906 235.269531 109.578125 C 235.269531 105.398438 238.628906 102.039062 242.804688 102.039062 C 246.984375 102.039062 250.34375 105.398438 250.34375 109.578125 C 250.34375 113.753906 246.984375 117.113281 242.804688 117.113281 Z M 242.804688 117.113281 " fill-opacity="1" fill-rule="evenodd"/></g><g clip-path="url(#3abc8e8600)"><g clip-path="url(#f457f52ead)"><path stroke-linecap="butt" transform="matrix(0.75, 0, 0, 0.75, 22.63189, 17.827219)" fill="none" stroke-linejoin="miter" d="M 223.022078 0.00120833 C 99.850195 0.00120833 0.00122971 99.850173 0.00122971 223.022056 C 0.00122971 346.193939 99.850195 446.048113 223.022078 446.048113 C 346.193961 446.048113 446.048134 346.193939 446.048134 223.022056 C 446.048134 99.850173 346.193961 0.00120833 223.022078 0.00120833 Z M 223.022078 0.00120833 " stroke="#ffffff" stroke-width="18" stroke-opacity="1" stroke-miterlimit="4"/></g></g></svg>