<svg xmlns="http://www.w3.org/2000/svg" xmlns:xlink="http://www.w3.org/1999/xlink" width="500" zoomAndPan="magnify" viewBox="0 0 375 374.999991" height="500" preserveAspectRatio="xMidYMid meet" version="1.0"><defs><g/><clipPath id="e0451adf6b"><path d="M 136.609375 116.386719 L 238.609375 116.386719 L 238.609375 218.386719 L 136.609375 218.386719 Z M 136.609375 116.386719 " clip-rule="nonzero"/></clipPath><clipPath id="d127194b24"><path d="M 140.109375 119.886719 L 234.609375 119.886719 L 234.609375 214.386719 L 140.109375 214.386719 Z M 140.109375 119.886719 " clip-rule="nonzero"/></clipPath><clipPath id="7a3541562a"><path d="M 187.5 119.886719 C 161.324219 119.886719 140.109375 141.105469 140.109375 167.277344 C 140.109375 193.449219 161.324219 214.667969 187.5 214.667969 C 213.671875 214.667969 234.890625 193.449219 234.890625 167.277344 C 234.890625 141.105469 213.671875 119.886719 187.5 119.886719 Z M 187.5 119.886719 " clip-rule="nonzero"/></clipPath></defs><rect x="-37.5" width="450" fill="#ffffff" y="-37.499999" height="449.999989" fill-opacity="1"/><rect x="-37.5" width="450" fill="#ffffff" y="-37.499999" height="449.999989" fill-opacity="1"/><g clip-path="url(#e0451adf6b)"><path fill="#111827" d="M 169.578125 157.722656 C 164.632812 161.226562 161.722656 165.789062 160.195312 170.882812 C 159.21875 174.152344 158.792969 177.636719 158.792969 181.160156 C 158.15625 179.824219 157.585938 178.441406 157.136719 177.019531 C 156.160156 173.964844 155.632812 170.671875 155.632812 167.277344 C 155.632812 158.464844 159.199219 150.503906 164.972656 144.730469 C 170.746094 138.953125 178.707031 135.386719 187.519531 135.386719 C 192.019531 135.386719 196.308594 136.320312 200.171875 138 C 203.25 139.335938 206.074219 141.121094 208.558594 143.308594 C 209.789062 144.390625 210.085938 145.597656 209.429688 146.875 C 208.132812 149.378906 205.820312 151.925781 202.507812 153.902344 C 198.792969 156.128906 193.84375 157.636719 187.667969 157.617188 L 187.644531 157.617188 C 186.179688 157.617188 184.992188 157.210938 184.101562 156.554688 C 183.316406 155.960938 182.722656 155.152344 182.339844 154.238281 C 181.933594 153.261719 181.722656 152.160156 181.722656 151.011719 C 181.722656 148.976562 182.359375 146.851562 183.613281 145.175781 C 184.078125 144.558594 183.953125 143.6875 183.335938 143.242188 C 182.722656 142.777344 181.851562 142.902344 181.40625 143.519531 C 179.792969 145.683594 178.964844 148.402344 178.964844 151.011719 C 178.964844 152.519531 179.238281 154.007812 179.8125 155.324219 C 180.300781 156.492188 181.023438 157.53125 181.957031 158.359375 C 178.136719 159.378906 174.71875 161.394531 172 164.113281 C 168.347656 167.765625 165.949219 172.710938 165.566406 178.1875 L 165.566406 179.800781 C 165.566406 185.914062 168.050781 191.457031 172.0625 195.46875 C 176.074219 199.480469 181.617188 201.964844 187.730469 201.964844 C 197.304688 201.964844 205.96875 198.082031 212.230469 191.816406 C 218.492188 185.554688 222.378906 176.871094 222.378906 167.316406 C 222.378906 167.277344 222.378906 167.234375 222.378906 167.191406 C 222.378906 166.066406 222.359375 164.472656 222.359375 162.414062 C 222.359375 160.671875 222.359375 159.273438 222.359375 158.210938 C 222.359375 157.976562 222.359375 157.765625 222.359375 157.53125 C 222.359375 156.765625 221.742188 156.152344 220.976562 156.152344 C 220.214844 156.152344 219.597656 156.765625 219.597656 157.53125 L 219.597656 158.273438 C 219.492188 163.730469 217.921875 168.316406 214.882812 172.050781 C 212.0625 175.511719 207.921875 178.273438 202.527344 180.289062 C 201.765625 180.5 201 180.777344 200.191406 181.097656 C 199.515625 181.351562 199.152344 182.09375 199.386719 182.792969 C 199.621094 183.515625 200.382812 183.921875 201.128906 183.6875 L 201.210938 183.664062 C 201.933594 183.433594 202.636719 183.199219 203.3125 182.945312 C 204.503906 182.605469 205.605469 182.371094 206.625 182.285156 C 208.175781 182.15625 209.492188 182.304688 210.554688 182.753906 C 211.253906 183.050781 212.0625 182.710938 212.359375 182.007812 C 212.65625 181.308594 212.316406 180.5 211.613281 180.203125 C 211.125 180.011719 210.636719 179.84375 210.109375 179.738281 C 212.890625 178.039062 215.203125 176.085938 217.050781 173.8125 C 217.984375 172.667969 218.8125 171.4375 219.511719 170.140625 C 218.855469 177.828125 215.457031 184.746094 210.300781 189.886719 C 204.523438 195.660156 196.5625 199.226562 187.753906 199.226562 C 182.402344 199.226562 177.5625 197.0625 174.039062 193.558594 C 170.535156 190.054688 168.371094 185.195312 168.371094 179.84375 L 168.371094 178.824219 C 168.625 173.878906 170.746094 169.417969 174.015625 166.128906 C 177.519531 162.625 182.359375 160.460938 187.730469 160.460938 L 187.773438 160.460938 C 194.503906 160.480469 199.9375 158.804688 204.035156 156.363281 C 209.257812 153.242188 212.335938 148.804688 213.25 144.898438 L 213.25 144.855469 C 213.292969 144.664062 213.292969 144.472656 213.25 144.304688 L 213.25 144.261719 C 213.1875 144.007812 213.078125 143.796875 212.890625 143.605469 C 209.683594 140.1875 205.777344 137.425781 201.402344 135.535156 C 197.179688 133.710938 192.527344 132.691406 187.644531 132.691406 C 181.808594 132.691406 176.308594 134.136719 171.488281 136.683594 C 169.238281 137.914062 167.074219 139.378906 164.992188 141.140625 C 164.355469 141.691406 163.742188 142.265625 163.148438 142.859375 C 160.9375 145.046875 159.050781 147.550781 157.5 150.269531 C 157.054688 151.097656 156.628906 151.925781 156.226562 152.734375 C 154.144531 157.171875 153 162.136719 153 167.359375 C 153 171.054688 153.570312 174.601562 154.65625 177.953125 C 155.757812 181.414062 157.414062 184.640625 159.472656 187.527344 C 159.917969 188.144531 160.789062 188.292969 161.40625 187.847656 C 161.851562 187.527344 162.042969 187 161.957031 186.488281 C 161.46875 181.414062 161.617188 176.339844 163 171.734375 C 164.355469 167.210938 166.945312 163.136719 171.320312 160.035156 C 171.9375 159.589844 172.085938 158.742188 171.640625 158.105469 C 171.066406 157.425781 170.195312 157.296875 169.578125 157.722656 Z M 222.167969 132.628906 C 231.039062 141.503906 236.519531 153.75 236.519531 167.296875 C 236.519531 180.839844 231.039062 193.089844 222.167969 201.964844 C 213.292969 210.839844 201.042969 216.316406 187.496094 216.316406 C 173.953125 216.316406 161.703125 210.839844 152.828125 201.964844 C 143.976562 193.070312 138.476562 180.820312 138.476562 167.277344 C 138.476562 153.730469 143.953125 141.480469 152.828125 132.605469 C 161.703125 123.753906 173.972656 118.253906 187.496094 118.253906 C 201.042969 118.253906 213.292969 123.753906 222.167969 132.628906 Z M 187.496094 116.386719 C 201.550781 116.386719 214.269531 122.078125 223.484375 131.289062 C 232.695312 140.503906 238.386719 153.222656 238.386719 167.277344 C 238.386719 181.328125 232.695312 194.046875 223.484375 203.261719 C 214.269531 212.472656 201.550781 218.164062 187.496094 218.164062 C 173.445312 218.164062 160.726562 212.472656 151.511719 203.261719 C 142.296875 194.066406 136.609375 181.328125 136.609375 167.277344 C 136.609375 153.222656 142.296875 140.503906 151.511719 131.289062 C 160.726562 122.078125 173.445312 116.386719 187.496094 116.386719 Z M 220.257812 134.539062 C 213.058594 127.339844 203.527344 122.523438 192.890625 121.289062 L 192.890625 120.101562 C 203.84375 121.332031 213.675781 126.300781 221.082031 133.710938 C 228.492188 141.121094 233.460938 150.949219 234.691406 161.902344 L 233.523438 161.902344 C 232.273438 151.269531 227.433594 141.714844 220.257812 134.539062 Z M 234.691406 172.667969 C 233.460938 183.621094 228.492188 193.453125 221.082031 200.863281 C 213.675781 208.269531 203.84375 213.238281 192.890625 214.46875 L 192.890625 213.28125 C 203.527344 212.050781 213.058594 207.210938 220.253906 200.035156 C 227.453125 192.835938 232.273438 183.304688 233.503906 172.667969 Z M 182.125 121.289062 C 171.488281 122.523438 161.957031 127.363281 154.761719 134.539062 C 147.5625 141.714844 142.746094 151.269531 141.492188 161.902344 L 140.304688 161.902344 C 141.535156 150.949219 146.503906 141.121094 153.910156 133.710938 C 161.320312 126.300781 171.152344 121.332031 182.105469 120.101562 L 182.105469 121.289062 Z M 141.511719 172.667969 C 142.746094 183.304688 147.585938 192.835938 154.761719 200.035156 C 161.957031 207.230469 171.488281 212.050781 182.125 213.28125 L 182.125 214.46875 C 171.171875 213.238281 161.34375 208.269531 153.933594 200.863281 C 146.523438 193.453125 141.554688 183.621094 140.324219 172.667969 Z M 213.121094 144.773438 Z M 187.605469 160.398438 Z M 200.980469 183.621094 Z M 195.796875 191.117188 C 198.472656 190.183594 200.957031 188.824219 203.164062 187.0625 C 203.761719 186.59375 204.628906 186.699219 205.097656 187.296875 C 205.566406 187.890625 205.457031 188.761719 204.863281 189.226562 C 202.402344 191.179688 199.640625 192.6875 196.691406 193.726562 C 193.761719 194.746094 190.660156 195.277344 187.476562 195.277344 C 183.1875 195.277344 179.324219 193.539062 176.523438 190.734375 C 173.71875 187.933594 171.976562 184.046875 171.976562 179.78125 C 171.976562 179.015625 172.59375 178.398438 173.359375 178.398438 C 174.121094 178.398438 174.738281 179.015625 174.738281 179.78125 C 174.738281 183.304688 176.160156 186.488281 178.476562 188.78125 C 180.769531 191.074219 183.953125 192.519531 187.476562 192.519531 C 190.386719 192.519531 193.1875 192.03125 195.796875 191.117188 Z M 202.550781 147.933594 C 201.359375 147.933594 200.40625 146.980469 200.40625 145.789062 C 200.40625 144.601562 201.359375 143.644531 202.550781 143.644531 C 203.738281 143.644531 204.695312 144.601562 204.695312 145.789062 C 204.695312 146.980469 203.738281 147.933594 202.550781 147.933594 Z M 202.550781 147.933594 " fill-opacity="1" fill-rule="evenodd"/></g><g clip-path="url(#d127194b24)"><g clip-path="url(#7a3541562a)"><path stroke-linecap="butt" transform="matrix(0.75, 0, 0, 0.75, 140.10852, 119.886307)" fill="none" stroke-linejoin="miter" d="M 63.188644 0.00054963 C 28.2876 0.00054963 0.00113987 28.292218 0.00113987 63.188054 C 0.00113987 98.083889 28.2876 126.375558 63.188644 126.375558 C 98.08448 126.375558 126.376148 98.083889 126.376148 63.188054 C 126.376148 28.292218 98.08448 0.00054963 63.188644 0.00054963 Z M 63.188644 0.00054963 " stroke="#111827" stroke-width="4" stroke-opacity="1" stroke-miterlimit="4"/></g></g><g fill="#111827" fill-opacity="1"><g transform="translate(125.386093, 239.128269)"><g><path d="M 1.109375 -1.453125 C 1.503906 -1.472656 1.800781 -1.519531 2 -1.59375 C 2.207031 -1.675781 2.367188 -1.847656 2.484375 -2.109375 C 2.609375 -2.378906 2.671875 -2.800781 2.671875 -3.375 L 2.671875 -11.828125 C 2.671875 -12.648438 2.703125 -13.316406 2.765625 -13.828125 L 1.109375 -13.75 L 1.109375 -15.453125 L 12.140625 -15.453125 L 12.28125 -11.171875 L 10.8125 -11.171875 C 10.8125 -12.265625 10.550781 -13.019531 10.03125 -13.4375 C 9.507812 -13.851562 8.878906 -14.046875 8.140625 -14.015625 L 7.359375 -14 C 7.003906 -13.976562 6.722656 -13.925781 6.515625 -13.84375 C 6.304688 -13.769531 6.144531 -13.59375 6.03125 -13.3125 C 5.925781 -13.03125 5.875 -12.617188 5.875 -12.078125 L 5.875 -8.234375 L 8.140625 -8.234375 C 8.128906 -8.421875 8.101562 -9.054688 8.0625 -10.140625 L 9.765625 -10.140625 L 9.765625 -4.765625 L 8.296875 -4.765625 C 8.296875 -5.359375 8.203125 -5.796875 8.015625 -6.078125 C 7.835938 -6.367188 7.597656 -6.550781 7.296875 -6.625 C 6.992188 -6.695312 6.609375 -6.726562 6.140625 -6.71875 L 5.875 -6.71875 L 5.875 -3.625 C 5.875 -2.800781 5.84375 -2.140625 5.78125 -1.640625 C 6.25 -1.679688 6.90625 -1.703125 7.75 -1.703125 L 7.75 0 L 1.109375 0 Z M 1.109375 -1.453125 "/></g></g></g><g fill="#111827" fill-opacity="1"><g transform="translate(138.430919, 239.128269)"><g><path d="M 4.015625 -13.21875 C 3.515625 -13.21875 3.101562 -13.390625 2.78125 -13.734375 C 2.457031 -14.085938 2.296875 -14.515625 2.296875 -15.015625 C 2.296875 -15.515625 2.460938 -15.941406 2.796875 -16.296875 C 3.140625 -16.660156 3.539062 -16.84375 4 -16.84375 C 4.46875 -16.84375 4.859375 -16.664062 5.171875 -16.3125 C 5.492188 -15.957031 5.65625 -15.523438 5.65625 -15.015625 C 5.65625 -14.492188 5.503906 -14.0625 5.203125 -13.71875 C 4.898438 -13.382812 4.503906 -13.21875 4.015625 -13.21875 Z M 0.90625 -1.4375 C 1.46875 -1.4375 1.820312 -1.585938 1.96875 -1.890625 C 2.125 -2.203125 2.203125 -2.707031 2.203125 -3.40625 L 2.203125 -7.0625 C 2.203125 -7.757812 2.234375 -8.398438 2.296875 -8.984375 L 0.75 -8.921875 L 0.75 -10.59375 C 1.675781 -10.59375 2.425781 -10.660156 3 -10.796875 C 3.570312 -10.929688 3.957031 -11.085938 4.15625 -11.265625 L 5.34375 -11.265625 L 5.34375 -3.546875 C 5.34375 -2.847656 5.3125 -2.203125 5.25 -1.609375 C 5.726562 -1.648438 6.207031 -1.671875 6.6875 -1.671875 L 6.6875 0 L 0.90625 0 Z M 0.90625 -1.4375 "/></g></g></g><g fill="#111827" fill-opacity="1"><g transform="translate(146.090126, 239.128269)"><g><path d="M 5.984375 0.359375 C 5.347656 0.359375 4.726562 0.273438 4.125 0.109375 C 3.519531 -0.046875 3.050781 -0.25 2.71875 -0.5 L 2.6875 -0.5 L 2.765625 0.15625 L 1.078125 0.15625 L 1 -3.640625 L 2.421875 -3.640625 C 2.492188 -2.960938 2.847656 -2.390625 3.484375 -1.921875 C 4.128906 -1.460938 4.914062 -1.234375 5.84375 -1.234375 C 6.257812 -1.234375 6.617188 -1.328125 6.921875 -1.515625 C 7.222656 -1.710938 7.375 -1.988281 7.375 -2.34375 C 7.375 -2.601562 7.273438 -2.820312 7.078125 -3 C 6.890625 -3.175781 6.660156 -3.320312 6.390625 -3.4375 C 6.128906 -3.5625 5.601562 -3.773438 4.8125 -4.078125 C 3.875 -4.453125 3.164062 -4.753906 2.6875 -4.984375 C 2.21875 -5.222656 1.796875 -5.570312 1.421875 -6.03125 C 1.046875 -6.5 0.859375 -7.101562 0.859375 -7.84375 C 0.859375 -8.445312 1.007812 -9.015625 1.3125 -9.546875 C 1.613281 -10.085938 2.078125 -10.53125 2.703125 -10.875 C 3.328125 -11.21875 4.097656 -11.390625 5.015625 -11.390625 C 5.441406 -11.390625 5.90625 -11.320312 6.40625 -11.1875 C 6.90625 -11.0625 7.320312 -10.878906 7.65625 -10.640625 L 7.6875 -10.640625 L 7.65625 -11.28125 L 9.34375 -11.28125 L 9.34375 -7.375 L 7.90625 -7.375 C 7.769531 -8.132812 7.429688 -8.734375 6.890625 -9.171875 C 6.347656 -9.617188 5.675781 -9.84375 4.875 -9.84375 C 4.46875 -9.84375 4.125 -9.742188 3.84375 -9.546875 C 3.5625 -9.359375 3.421875 -9.066406 3.421875 -8.671875 C 3.421875 -8.265625 3.582031 -7.960938 3.90625 -7.765625 C 4.226562 -7.566406 4.773438 -7.34375 5.546875 -7.09375 C 5.628906 -7.070312 5.816406 -7.007812 6.109375 -6.90625 C 7.367188 -6.46875 8.332031 -5.953125 9 -5.359375 C 9.664062 -4.773438 10 -4.003906 10 -3.046875 C 10 -2.304688 9.8125 -1.679688 9.4375 -1.171875 C 9.0625 -0.671875 8.566406 -0.289062 7.953125 -0.03125 C 7.347656 0.226562 6.691406 0.359375 5.984375 0.359375 Z M 5.984375 0.359375 "/></g></g></g><g fill="#111827" fill-opacity="1"><g transform="translate(157.236738, 239.128269)"><g><path d="M 0.546875 -1.4375 C 0.941406 -1.4375 1.234375 -1.515625 1.421875 -1.671875 C 1.609375 -1.828125 1.726562 -2.035156 1.78125 -2.296875 C 1.832031 -2.554688 1.859375 -2.925781 1.859375 -3.40625 L 1.859375 -12.46875 C 1.859375 -13.175781 1.882812 -13.816406 1.9375 -14.390625 L 0.390625 -14.328125 L 0.390625 -16 C 1.316406 -16 2.066406 -16.066406 2.640625 -16.203125 C 3.222656 -16.335938 3.609375 -16.492188 3.796875 -16.671875 L 4.984375 -16.671875 L 4.984375 -10.15625 C 5.410156 -10.488281 5.941406 -10.773438 6.578125 -11.015625 C 7.210938 -11.265625 7.757812 -11.390625 8.21875 -11.390625 C 9.539062 -11.390625 10.488281 -11.003906 11.0625 -10.234375 C 11.632812 -9.472656 11.925781 -8.234375 11.9375 -6.515625 L 11.9375 -3.546875 C 11.9375 -2.847656 11.910156 -2.203125 11.859375 -1.609375 C 12.328125 -1.648438 12.804688 -1.671875 13.296875 -1.671875 L 13.296875 0 L 7.484375 0 L 7.484375 -1.4375 C 8.046875 -1.4375 8.40625 -1.585938 8.5625 -1.890625 C 8.726562 -2.203125 8.8125 -2.707031 8.8125 -3.40625 L 8.78125 -6.53125 C 8.78125 -7.507812 8.632812 -8.222656 8.34375 -8.671875 C 8.0625 -9.128906 7.613281 -9.359375 7 -9.359375 C 6.644531 -9.359375 6.28125 -9.28125 5.90625 -9.125 C 5.539062 -8.96875 5.234375 -8.773438 4.984375 -8.546875 L 4.984375 -3.546875 C 4.984375 -2.847656 4.957031 -2.203125 4.90625 -1.609375 C 5.382812 -1.648438 5.863281 -1.671875 6.34375 -1.671875 L 6.34375 0 L 0.546875 0 Z M 0.546875 -1.4375 "/></g></g></g><g fill="#111827" fill-opacity="1"><g transform="translate(171.385177, 239.128269)"><g><path d="M 4.015625 -13.21875 C 3.515625 -13.21875 3.101562 -13.390625 2.78125 -13.734375 C 2.457031 -14.085938 2.296875 -14.515625 2.296875 -15.015625 C 2.296875 -15.515625 2.460938 -15.941406 2.796875 -16.296875 C 3.140625 -16.660156 3.539062 -16.84375 4 -16.84375 C 4.46875 -16.84375 4.859375 -16.664062 5.171875 -16.3125 C 5.492188 -15.957031 5.65625 -15.523438 5.65625 -15.015625 C 5.65625 -14.492188 5.503906 -14.0625 5.203125 -13.71875 C 4.898438 -13.382812 4.503906 -13.21875 4.015625 -13.21875 Z M 0.90625 -1.4375 C 1.46875 -1.4375 1.820312 -1.585938 1.96875 -1.890625 C 2.125 -2.203125 2.203125 -2.707031 2.203125 -3.40625 L 2.203125 -7.0625 C 2.203125 -7.757812 2.234375 -8.398438 2.296875 -8.984375 L 0.75 -8.921875 L 0.75 -10.59375 C 1.675781 -10.59375 2.425781 -10.660156 3 -10.796875 C 3.570312 -10.929688 3.957031 -11.085938 4.15625 -11.265625 L 5.34375 -11.265625 L 5.34375 -3.546875 C 5.34375 -2.847656 5.3125 -2.203125 5.25 -1.609375 C 5.726562 -1.648438 6.207031 -1.671875 6.6875 -1.671875 L 6.6875 0 L 0.90625 0 Z M 0.90625 -1.4375 "/></g></g></g><g fill="#111827" fill-opacity="1"><g transform="translate(179.044384, 239.128269)"><g><path d="M 0.90625 -1.4375 C 1.46875 -1.4375 1.820312 -1.585938 1.96875 -1.890625 C 2.125 -2.203125 2.203125 -2.707031 2.203125 -3.40625 L 2.203125 -7.109375 C 2.203125 -7.773438 2.234375 -8.398438 2.296875 -8.984375 L 0.75 -8.921875 L 0.75 -10.59375 C 1.675781 -10.59375 2.425781 -10.660156 3 -10.796875 C 3.570312 -10.929688 3.957031 -11.085938 4.15625 -11.265625 L 5.234375 -11.265625 C 5.234375 -11.234375 5.265625 -10.863281 5.328125 -10.15625 L 5.359375 -10.15625 C 5.785156 -10.488281 6.3125 -10.773438 6.9375 -11.015625 C 7.5625 -11.265625 8.097656 -11.390625 8.546875 -11.390625 C 9.878906 -11.390625 10.832031 -11.003906 11.40625 -10.234375 C 11.988281 -9.472656 12.28125 -8.234375 12.28125 -6.515625 L 12.28125 -3.546875 C 12.28125 -2.847656 12.25 -2.203125 12.1875 -1.609375 C 12.675781 -1.648438 13.15625 -1.671875 13.625 -1.671875 L 13.625 0 L 7.84375 0 L 7.84375 -1.4375 C 8.394531 -1.4375 8.75 -1.585938 8.90625 -1.890625 C 9.070312 -2.203125 9.15625 -2.707031 9.15625 -3.40625 L 9.140625 -6.53125 C 9.140625 -7.507812 9.003906 -8.222656 8.734375 -8.671875 C 8.460938 -9.128906 8.003906 -9.359375 7.359375 -9.359375 C 7.003906 -9.359375 6.640625 -9.28125 6.265625 -9.125 C 5.898438 -8.96875 5.59375 -8.773438 5.34375 -8.546875 L 5.34375 -3.546875 C 5.34375 -2.847656 5.3125 -2.203125 5.25 -1.609375 C 5.726562 -1.648438 6.207031 -1.671875 6.6875 -1.671875 L 6.6875 0 L 0.90625 0 Z M 0.90625 -1.4375 "/></g></g></g><g fill="#111827" fill-opacity="1"><g transform="translate(193.5239, 239.128269)"><g><path d="M 5.65625 5.984375 C 3.875 5.984375 2.585938 5.707031 1.796875 5.15625 C 1.015625 4.613281 0.625 3.925781 0.625 3.09375 C 0.625 2.570312 0.785156 2.085938 1.109375 1.640625 C 1.441406 1.191406 1.976562 0.828125 2.71875 0.546875 C 2.144531 0.390625 1.726562 0.144531 1.46875 -0.1875 C 1.207031 -0.53125 1.078125 -0.929688 1.078125 -1.390625 C 1.078125 -1.828125 1.25 -2.273438 1.59375 -2.734375 C 1.945312 -3.191406 2.488281 -3.53125 3.21875 -3.75 L 3.21875 -3.78125 C 2.5625 -4.039062 2.035156 -4.453125 1.640625 -5.015625 C 1.253906 -5.585938 1.0625 -6.265625 1.0625 -7.046875 C 1.0625 -7.867188 1.289062 -8.609375 1.75 -9.265625 C 2.21875 -9.929688 2.828125 -10.453125 3.578125 -10.828125 C 4.335938 -11.203125 5.140625 -11.390625 5.984375 -11.390625 C 6.421875 -11.390625 6.882812 -11.332031 7.375 -11.21875 C 7.863281 -11.113281 8.273438 -10.941406 8.609375 -10.703125 C 8.890625 -11.472656 9.265625 -12.109375 9.734375 -12.609375 C 10.203125 -13.117188 10.765625 -13.375 11.421875 -13.375 C 11.898438 -13.375 12.269531 -13.25 12.53125 -13 C 12.800781 -12.75 12.9375 -12.40625 12.9375 -11.96875 C 12.9375 -11.625 12.828125 -11.3125 12.609375 -11.03125 C 12.398438 -10.757812 12.066406 -10.625 11.609375 -10.625 C 11.378906 -10.625 11.148438 -10.707031 10.921875 -10.875 C 10.691406 -11.039062 10.554688 -11.242188 10.515625 -11.484375 C 10.316406 -11.421875 10.117188 -11.226562 9.921875 -10.90625 C 9.734375 -10.59375 9.628906 -10.304688 9.609375 -10.046875 C 10.015625 -9.679688 10.332031 -9.253906 10.5625 -8.765625 C 10.789062 -8.273438 10.90625 -7.753906 10.90625 -7.203125 C 10.90625 -6.378906 10.671875 -5.628906 10.203125 -4.953125 C 9.734375 -4.285156 9.113281 -3.765625 8.34375 -3.390625 C 7.582031 -3.015625 6.765625 -2.828125 5.890625 -2.828125 L 5.28125 -2.84375 C 4.957031 -2.875 4.71875 -2.890625 4.5625 -2.890625 C 4.238281 -2.890625 3.96875 -2.828125 3.75 -2.703125 C 3.53125 -2.585938 3.421875 -2.429688 3.421875 -2.234375 C 3.421875 -1.960938 3.625 -1.769531 4.03125 -1.65625 C 4.4375 -1.550781 5.175781 -1.46875 6.25 -1.40625 C 8.101562 -1.3125 9.507812 -1.003906 10.46875 -0.484375 C 11.425781 0.0234375 11.90625 0.882812 11.90625 2.09375 C 11.90625 2.894531 11.597656 3.585938 10.984375 4.171875 C 10.367188 4.765625 9.578125 5.210938 8.609375 5.515625 C 7.648438 5.828125 6.664062 5.984375 5.65625 5.984375 Z M 5.984375 -4.3125 C 6.546875 -4.3125 6.988281 -4.5625 7.3125 -5.0625 C 7.644531 -5.5625 7.8125 -6.140625 7.8125 -6.796875 C 7.8125 -7.640625 7.648438 -8.367188 7.328125 -8.984375 C 7.003906 -9.597656 6.550781 -9.90625 5.96875 -9.90625 C 5.40625 -9.90625 4.953125 -9.648438 4.609375 -9.140625 C 4.273438 -8.628906 4.109375 -8.019531 4.109375 -7.3125 C 4.109375 -6.488281 4.273438 -5.78125 4.609375 -5.1875 C 4.953125 -4.601562 5.410156 -4.3125 5.984375 -4.3125 Z M 6.296875 4.453125 C 6.953125 4.453125 7.519531 4.363281 8 4.1875 C 8.476562 4.019531 8.84375 3.796875 9.09375 3.515625 C 9.34375 3.242188 9.46875 2.96875 9.46875 2.6875 C 9.46875 2.238281 9.207031 1.894531 8.6875 1.65625 C 8.164062 1.414062 7.367188 1.273438 6.296875 1.234375 C 6.171875 1.222656 5.976562 1.21875 5.71875 1.21875 C 5.570312 1.195312 5.3125 1.175781 4.9375 1.15625 C 4.570312 1.132812 4.273438 1.101562 4.046875 1.0625 C 3.816406 1.238281 3.640625 1.460938 3.515625 1.734375 C 3.390625 2.015625 3.328125 2.296875 3.328125 2.578125 C 3.328125 3.148438 3.597656 3.601562 4.140625 3.9375 C 4.679688 4.28125 5.398438 4.453125 6.296875 4.453125 Z M 6.296875 4.453125 "/></g></g></g><g fill="#111827" fill-opacity="1"><g transform="translate(206.259717, 239.128269)"><g><path d="M 0.90625 -1.4375 C 1.46875 -1.4375 1.820312 -1.585938 1.96875 -1.890625 C 2.125 -2.203125 2.203125 -2.707031 2.203125 -3.40625 L 2.203125 -7.109375 C 2.203125 -7.773438 2.234375 -8.398438 2.296875 -8.984375 L 0.75 -8.921875 L 0.75 -10.59375 C 1.675781 -10.59375 2.425781 -10.660156 3 -10.796875 C 3.570312 -10.929688 3.957031 -11.085938 4.15625 -11.265625 L 5.234375 -11.265625 C 5.265625 -11.035156 5.285156 -10.742188 5.296875 -10.390625 C 5.316406 -10.046875 5.328125 -9.703125 5.328125 -9.359375 L 5.359375 -9.359375 C 6.359375 -10.710938 7.421875 -11.390625 8.546875 -11.390625 C 9.109375 -11.390625 9.566406 -11.234375 9.921875 -10.921875 C 10.285156 -10.617188 10.46875 -10.164062 10.46875 -9.5625 C 10.46875 -9.175781 10.34375 -8.820312 10.09375 -8.5 C 9.84375 -8.175781 9.46875 -8.015625 8.96875 -8.015625 C 8.59375 -8.015625 8.257812 -8.109375 7.96875 -8.296875 C 7.6875 -8.492188 7.523438 -8.828125 7.484375 -9.296875 C 7.066406 -9.296875 6.640625 -9.054688 6.203125 -8.578125 C 5.773438 -8.097656 5.488281 -7.625 5.34375 -7.15625 L 5.34375 -3.546875 C 5.34375 -2.847656 5.3125 -2.203125 5.25 -1.609375 C 5.726562 -1.648438 6.207031 -1.671875 6.6875 -1.671875 L 6.6875 0 L 0.90625 0 Z M 0.90625 -1.4375 "/></g></g></g><g fill="#111827" fill-opacity="1"><g transform="translate(217.29597, 239.128269)"><g><path d="M 3.671875 0.359375 C 2.742188 0.359375 2.007812 0.0820312 1.46875 -0.46875 C 0.925781 -1.019531 0.65625 -1.722656 0.65625 -2.578125 C 0.65625 -3.878906 1.257812 -4.863281 2.46875 -5.53125 C 3.675781 -6.195312 5.128906 -6.566406 6.828125 -6.640625 L 6.828125 -7.796875 C 6.828125 -9.128906 6.328125 -9.796875 5.328125 -9.796875 C 4.671875 -9.796875 4.140625 -9.59375 3.734375 -9.1875 C 3.910156 -8.976562 4 -8.695312 4 -8.34375 C 4 -7.988281 3.875 -7.671875 3.625 -7.390625 C 3.382812 -7.117188 3.03125 -6.984375 2.5625 -6.984375 C 2.125 -6.984375 1.773438 -7.125 1.515625 -7.40625 C 1.265625 -7.695312 1.140625 -8.054688 1.140625 -8.484375 C 1.140625 -9.054688 1.347656 -9.5625 1.765625 -10 C 2.179688 -10.4375 2.742188 -10.773438 3.453125 -11.015625 C 4.171875 -11.265625 4.957031 -11.390625 5.8125 -11.390625 C 8.53125 -11.390625 9.890625 -9.984375 9.890625 -7.171875 L 9.875 -3.546875 C 9.875 -2.847656 9.84375 -2.203125 9.78125 -1.609375 C 10.269531 -1.648438 10.75 -1.671875 11.21875 -1.671875 L 11.21875 0 L 7.046875 0 C 7.015625 -0.1875 6.984375 -0.523438 6.953125 -1.015625 L 6.9375 -1.015625 C 6.03125 -0.0976562 4.941406 0.359375 3.671875 0.359375 Z M 5.0625 -1.8125 C 5.71875 -1.8125 6.296875 -2.078125 6.796875 -2.609375 L 6.796875 -5.078125 C 5.929688 -4.992188 5.210938 -4.773438 4.640625 -4.421875 C 4.078125 -4.066406 3.796875 -3.585938 3.796875 -2.984375 C 3.796875 -2.585938 3.914062 -2.289062 4.15625 -2.09375 C 4.40625 -1.90625 4.707031 -1.8125 5.0625 -1.8125 Z M 5.0625 -1.8125 "/></g></g></g><g fill="#111827" fill-opacity="1"><g transform="translate(229.303402, 239.128269)"><g><path d="M 0.90625 -1.4375 C 1.46875 -1.4375 1.820312 -1.585938 1.96875 -1.890625 C 2.125 -2.203125 2.203125 -2.707031 2.203125 -3.40625 L 2.203125 -7.109375 C 2.203125 -7.773438 2.234375 -8.398438 2.296875 -8.984375 L 0.75 -8.921875 L 0.75 -10.59375 C 1.675781 -10.59375 2.425781 -10.660156 3 -10.796875 C 3.570312 -10.929688 3.957031 -11.085938 4.15625 -11.265625 L 5.234375 -11.265625 C 5.234375 -11.234375 5.265625 -10.863281 5.328125 -10.15625 L 5.359375 -10.15625 C 5.816406 -10.519531 6.332031 -10.816406 6.90625 -11.046875 C 7.476562 -11.273438 8.039062 -11.390625 8.59375 -11.390625 C 9.25 -11.390625 9.800781 -11.265625 10.25 -11.015625 C 10.695312 -10.773438 11.054688 -10.414062 11.328125 -9.9375 C 11.859375 -10.375 12.445312 -10.722656 13.09375 -10.984375 C 13.738281 -11.253906 14.347656 -11.390625 14.921875 -11.390625 C 16.140625 -11.390625 17.046875 -11.035156 17.640625 -10.328125 C 18.242188 -9.617188 18.546875 -8.441406 18.546875 -6.796875 L 18.546875 -3.546875 C 18.546875 -2.847656 18.515625 -2.203125 18.453125 -1.609375 C 18.921875 -1.648438 19.398438 -1.671875 19.890625 -1.671875 L 19.890625 0 L 14.3125 0 L 14.3125 -1.4375 C 14.78125 -1.4375 15.078125 -1.59375 15.203125 -1.90625 C 15.335938 -2.226562 15.40625 -2.726562 15.40625 -3.40625 L 15.40625 -6.78125 C 15.394531 -7.707031 15.238281 -8.363281 14.9375 -8.75 C 14.644531 -9.144531 14.222656 -9.34375 13.671875 -9.34375 C 13.015625 -9.34375 12.378906 -9.097656 11.765625 -8.609375 C 11.898438 -8.023438 11.96875 -7.328125 11.96875 -6.515625 L 11.96875 -3.546875 C 11.96875 -2.847656 11.9375 -2.203125 11.875 -1.609375 C 12.34375 -1.648438 12.820312 -1.671875 13.3125 -1.671875 L 13.3125 0 L 7.609375 0 L 7.609375 -1.4375 C 8.128906 -1.4375 8.460938 -1.585938 8.609375 -1.890625 C 8.753906 -2.203125 8.828125 -2.707031 8.828125 -3.40625 L 8.8125 -6.84375 C 8.8125 -7.757812 8.675781 -8.40625 8.40625 -8.78125 C 8.144531 -9.15625 7.75 -9.347656 7.21875 -9.359375 C 6.570312 -9.359375 5.945312 -9.085938 5.34375 -8.546875 L 5.34375 -3.546875 C 5.34375 -2.847656 5.3125 -2.203125 5.25 -1.609375 C 5.726562 -1.648438 6.171875 -1.671875 6.578125 -1.671875 L 6.578125 0 L 0.90625 0 Z M 0.90625 -1.4375 "/></g></g></g><g fill="#111827" fill-opacity="1"><g transform="translate(149.172914, 256.29977)"><g><path d="M 0.5 -0.296875 C 0.71875 -0.304688 0.875 -0.359375 0.96875 -0.453125 C 1.0625 -0.546875 1.113281 -0.65625 1.125 -0.78125 C 1.132812 -0.90625 1.140625 -1.125 1.140625 -1.4375 L 1.140625 -5.421875 C 1.140625 -5.679688 1.148438 -5.898438 1.171875 -6.078125 L 0.5 -6.046875 L 0.5 -6.453125 L 2.578125 -6.453125 L 2.578125 -6.15625 C 2.367188 -6.144531 2.21875 -6.09375 2.125 -6 C 2.03125 -5.90625 1.972656 -5.796875 1.953125 -5.671875 C 1.941406 -5.546875 1.9375 -5.328125 1.9375 -5.015625 L 1.9375 -3.484375 L 5.25 -3.484375 L 5.25 -5.421875 C 5.25 -5.679688 5.253906 -5.898438 5.265625 -6.078125 L 4.609375 -6.046875 L 4.609375 -6.453125 L 6.6875 -6.453125 L 6.6875 -6.15625 C 6.46875 -6.144531 6.3125 -6.09375 6.21875 -6 C 6.125 -5.90625 6.070312 -5.796875 6.0625 -5.671875 C 6.050781 -5.546875 6.046875 -5.328125 6.046875 -5.015625 L 6.046875 -1.09375 C 6.046875 -0.769531 6.035156 -0.53125 6.015625 -0.375 L 6.6875 -0.40625 L 6.6875 0 L 4.609375 0 L 4.609375 -0.296875 C 4.828125 -0.304688 4.976562 -0.359375 5.0625 -0.453125 C 5.15625 -0.546875 5.207031 -0.65625 5.21875 -0.78125 C 5.238281 -0.90625 5.25 -1.125 5.25 -1.4375 L 5.25 -3.109375 L 1.9375 -3.078125 L 1.9375 -1.09375 C 1.9375 -0.769531 1.929688 -0.53125 1.921875 -0.375 L 2.578125 -0.40625 L 2.578125 0 L 0.5 0 Z M 0.5 -0.296875 "/></g></g></g><g fill="#111827" fill-opacity="1"><g transform="translate(156.736285, 256.29977)"><g><path d="M 2.6875 0.140625 C 2.269531 0.140625 1.882812 0.0390625 1.53125 -0.15625 C 1.175781 -0.351562 0.894531 -0.628906 0.6875 -0.984375 C 0.476562 -1.335938 0.375 -1.738281 0.375 -2.1875 C 0.375 -2.664062 0.472656 -3.097656 0.671875 -3.484375 C 0.878906 -3.878906 1.160156 -4.1875 1.515625 -4.40625 C 1.867188 -4.632812 2.257812 -4.75 2.6875 -4.75 C 3.113281 -4.75 3.503906 -4.644531 3.859375 -4.4375 C 4.210938 -4.238281 4.492188 -3.957031 4.703125 -3.59375 C 4.910156 -3.238281 5.015625 -2.847656 5.015625 -2.421875 C 5.015625 -1.953125 4.910156 -1.519531 4.703125 -1.125 C 4.492188 -0.726562 4.210938 -0.414062 3.859375 -0.1875 C 3.515625 0.03125 3.125 0.140625 2.6875 0.140625 Z M 2.765625 -0.21875 C 3.210938 -0.21875 3.539062 -0.398438 3.75 -0.765625 C 3.96875 -1.140625 4.078125 -1.597656 4.078125 -2.140625 C 4.078125 -2.765625 3.960938 -3.296875 3.734375 -3.734375 C 3.503906 -4.179688 3.15625 -4.40625 2.6875 -4.40625 C 2.238281 -4.40625 1.894531 -4.21875 1.65625 -3.84375 C 1.425781 -3.46875 1.3125 -3.007812 1.3125 -2.46875 C 1.3125 -2.070312 1.363281 -1.703125 1.46875 -1.359375 C 1.582031 -1.015625 1.75 -0.738281 1.96875 -0.53125 C 2.1875 -0.320312 2.453125 -0.21875 2.765625 -0.21875 Z M 2.765625 -0.21875 "/></g></g></g><g fill="#111827" fill-opacity="1"><g transform="translate(162.501076, 256.29977)"><g><path d="M 2.6875 0.140625 C 2.269531 0.140625 1.882812 0.0390625 1.53125 -0.15625 C 1.175781 -0.351562 0.894531 -0.628906 0.6875 -0.984375 C 0.476562 -1.335938 0.375 -1.738281 0.375 -2.1875 C 0.375 -2.664062 0.472656 -3.097656 0.671875 -3.484375 C 0.878906 -3.878906 1.160156 -4.1875 1.515625 -4.40625 C 1.867188 -4.632812 2.257812 -4.75 2.6875 -4.75 C 3.113281 -4.75 3.503906 -4.644531 3.859375 -4.4375 C 4.210938 -4.238281 4.492188 -3.957031 4.703125 -3.59375 C 4.910156 -3.238281 5.015625 -2.847656 5.015625 -2.421875 C 5.015625 -1.953125 4.910156 -1.519531 4.703125 -1.125 C 4.492188 -0.726562 4.210938 -0.414062 3.859375 -0.1875 C 3.515625 0.03125 3.125 0.140625 2.6875 0.140625 Z M 2.765625 -0.21875 C 3.210938 -0.21875 3.539062 -0.398438 3.75 -0.765625 C 3.96875 -1.140625 4.078125 -1.597656 4.078125 -2.140625 C 4.078125 -2.765625 3.960938 -3.296875 3.734375 -3.734375 C 3.503906 -4.179688 3.15625 -4.40625 2.6875 -4.40625 C 2.238281 -4.40625 1.894531 -4.21875 1.65625 -3.84375 C 1.425781 -3.46875 1.3125 -3.007812 1.3125 -2.46875 C 1.3125 -2.070312 1.363281 -1.703125 1.46875 -1.359375 C 1.582031 -1.015625 1.75 -0.738281 1.96875 -0.53125 C 2.1875 -0.320312 2.453125 -0.21875 2.765625 -0.21875 Z M 2.765625 -0.21875 "/></g></g></g><g fill="#111827" fill-opacity="1"><g transform="translate(168.265866, 256.29977)"><g><path d="M 0.328125 -0.28125 C 0.503906 -0.28125 0.628906 -0.320312 0.703125 -0.40625 C 0.785156 -0.5 0.832031 -0.613281 0.84375 -0.75 C 0.851562 -0.882812 0.859375 -1.101562 0.859375 -1.40625 C 0.859375 -1.46875 0.859375 -1.800781 0.859375 -2.40625 C 0.859375 -3.007812 0.859375 -4.128906 0.859375 -5.765625 C 0.859375 -5.992188 0.867188 -6.191406 0.890625 -6.359375 L 0.234375 -6.328125 L 0.234375 -6.71875 C 0.597656 -6.71875 0.859375 -6.738281 1.015625 -6.78125 C 1.171875 -6.820312 1.289062 -6.878906 1.375 -6.953125 L 1.65625 -6.953125 L 1.65625 -2.59375 L 2.015625 -2.59375 L 3.140625 -3.78125 C 3.378906 -4.019531 3.5625 -4.179688 3.6875 -4.265625 L 3.0625 -4.234375 L 3.0625 -4.609375 L 4.734375 -4.609375 L 4.734375 -4.328125 C 4.460938 -4.296875 4.21875 -4.195312 4 -4.03125 C 3.78125 -3.863281 3.535156 -3.640625 3.265625 -3.359375 L 2.546875 -2.609375 C 2.648438 -2.554688 2.742188 -2.488281 2.828125 -2.40625 C 2.910156 -2.332031 3.003906 -2.234375 3.109375 -2.109375 L 3.765625 -1.265625 C 3.773438 -1.253906 3.84375 -1.160156 3.96875 -0.984375 C 4.101562 -0.816406 4.253906 -0.65625 4.421875 -0.5 C 4.597656 -0.351562 4.753906 -0.28125 4.890625 -0.28125 L 4.890625 0 L 4.046875 0 C 3.898438 0 3.757812 -0.0625 3.625 -0.1875 C 3.5 -0.320312 3.3125 -0.546875 3.0625 -0.859375 L 2.703125 -1.375 C 2.566406 -1.5625 2.4375 -1.734375 2.3125 -1.890625 C 2.195312 -2.054688 2.101562 -2.179688 2.03125 -2.265625 L 1.65625 -2.234375 L 1.65625 -0.984375 C 1.65625 -0.703125 1.640625 -0.488281 1.609375 -0.34375 L 2.203125 -0.375 L 2.203125 0 L 0.328125 0 Z M 0.328125 -0.28125 "/></g></g></g><g fill="#111827" fill-opacity="1"><g transform="translate(173.587932, 256.29977)"><g/></g></g><g fill="#111827" fill-opacity="1"><g transform="translate(176.382764, 256.29977)"><g><path d="M 0.5 -0.296875 C 0.71875 -0.304688 0.875 -0.359375 0.96875 -0.453125 C 1.0625 -0.546875 1.113281 -0.65625 1.125 -0.78125 C 1.132812 -0.90625 1.140625 -1.125 1.140625 -1.4375 L 1.140625 -5.421875 C 1.140625 -5.679688 1.148438 -5.898438 1.171875 -6.078125 L 0.5 -6.046875 L 0.5 -6.453125 L 2.578125 -6.453125 L 2.578125 -6.15625 C 2.367188 -6.144531 2.21875 -6.09375 2.125 -6 C 2.03125 -5.90625 1.972656 -5.796875 1.953125 -5.671875 C 1.941406 -5.546875 1.9375 -5.328125 1.9375 -5.015625 L 1.9375 -1.09375 C 1.9375 -0.769531 1.929688 -0.53125 1.921875 -0.375 L 2.578125 -0.40625 L 2.578125 0 L 0.5 0 Z M 0.5 -0.296875 "/></g></g></g><g fill="#111827" fill-opacity="1"><g transform="translate(179.841687, 256.29977)"><g><path d="M 2.140625 0.140625 C 1.296875 0.140625 0.878906 -0.421875 0.890625 -1.546875 L 0.90625 -4.21875 L 0.1875 -4.21875 L 0.1875 -4.609375 C 0.488281 -4.617188 0.738281 -4.753906 0.9375 -5.015625 C 1.144531 -5.273438 1.300781 -5.570312 1.40625 -5.90625 L 1.71875 -5.90625 L 1.71875 -4.609375 L 3.265625 -4.609375 L 3.265625 -4.25 L 1.71875 -4.234375 C 1.707031 -3.296875 1.703125 -2.644531 1.703125 -2.28125 C 1.703125 -1.914062 1.703125 -1.710938 1.703125 -1.671875 C 1.703125 -1.234375 1.753906 -0.90625 1.859375 -0.6875 C 1.960938 -0.476562 2.140625 -0.375 2.390625 -0.375 C 2.554688 -0.375 2.71875 -0.421875 2.875 -0.515625 C 3.03125 -0.617188 3.164062 -0.757812 3.28125 -0.9375 L 3.53125 -0.734375 C 3.289062 -0.367188 3.050781 -0.128906 2.8125 -0.015625 C 2.582031 0.0859375 2.359375 0.140625 2.140625 0.140625 Z M 2.140625 0.140625 "/></g></g></g><g fill="#111827" fill-opacity="1"><g transform="translate(183.780229, 256.29977)"><g><path d="M 0.84375 1.46875 C 0.945312 1.332031 1.039062 1.140625 1.125 0.890625 C 1.21875 0.648438 1.265625 0.410156 1.265625 0.171875 C 1.265625 0.0976562 1.265625 0.0390625 1.265625 0 C 1.179688 0.0390625 1.101562 0.0625 1.03125 0.0625 C 0.90625 0.0625 0.800781 0.0195312 0.71875 -0.0625 C 0.644531 -0.15625 0.609375 -0.265625 0.609375 -0.390625 C 0.609375 -0.554688 0.65625 -0.6875 0.75 -0.78125 C 0.851562 -0.882812 0.972656 -0.9375 1.109375 -0.9375 C 1.316406 -0.9375 1.476562 -0.851562 1.59375 -0.6875 C 1.707031 -0.53125 1.765625 -0.332031 1.765625 -0.09375 C 1.765625 0.15625 1.695312 0.457031 1.5625 0.8125 C 1.4375 1.175781 1.28125 1.457031 1.09375 1.65625 Z M 0.84375 1.46875 "/></g></g></g><g fill="#111827" fill-opacity="1"><g transform="translate(186.48283, 256.29977)"><g/></g></g><g fill="#111827" fill-opacity="1"><g transform="translate(189.277662, 256.29977)"><g><path d="M 0.5 -0.296875 C 0.71875 -0.304688 0.875 -0.359375 0.96875 -0.453125 C 1.0625 -0.546875 1.113281 -0.65625 1.125 -0.78125 C 1.132812 -0.90625 1.140625 -1.125 1.140625 -1.4375 L 1.140625 -5.421875 C 1.140625 -5.679688 1.148438 -5.898438 1.171875 -6.078125 L 0.5 -6.046875 L 0.5 -6.453125 L 2.578125 -6.453125 L 2.578125 -6.15625 C 2.367188 -6.144531 2.21875 -6.09375 2.125 -6 C 2.03125 -5.90625 1.972656 -5.796875 1.953125 -5.671875 C 1.941406 -5.546875 1.9375 -5.328125 1.9375 -5.015625 L 1.9375 -3.5 L 2.640625 -3.5 L 3.78125 -5.3125 C 4.007812 -5.65625 4.226562 -5.914062 4.4375 -6.09375 L 3.875 -6.078125 L 3.875 -6.453125 L 5.859375 -6.453125 L 5.859375 -6.15625 C 5.578125 -6.125 5.335938 -6.070312 5.140625 -6 C 4.953125 -5.9375 4.765625 -5.816406 4.578125 -5.640625 C 4.398438 -5.472656 4.207031 -5.226562 4 -4.90625 L 3.09375 -3.46875 C 3.226562 -3.382812 3.34375 -3.289062 3.4375 -3.1875 C 3.539062 -3.082031 3.628906 -2.976562 3.703125 -2.875 C 3.785156 -2.78125 3.835938 -2.71875 3.859375 -2.6875 L 4.890625 -1.3125 C 5.117188 -1.007812 5.304688 -0.785156 5.453125 -0.640625 C 5.609375 -0.503906 5.738281 -0.410156 5.84375 -0.359375 C 5.957031 -0.316406 6.09375 -0.296875 6.25 -0.296875 L 6.25 0 L 5.125 0 C 4.96875 0 4.65625 -0.300781 4.1875 -0.90625 L 3.09375 -2.390625 C 2.9375 -2.585938 2.804688 -2.742188 2.703125 -2.859375 C 2.597656 -2.984375 2.492188 -3.078125 2.390625 -3.140625 L 1.9375 -3.140625 L 1.9375 -1.09375 C 1.9375 -0.769531 1.929688 -0.53125 1.921875 -0.375 L 2.578125 -0.40625 L 2.578125 0 L 0.5 0 Z M 0.5 -0.296875 "/></g></g></g><g fill="#111827" fill-opacity="1"><g transform="translate(195.946354, 256.29977)"><g><path d="M 2.640625 0.140625 C 2.210938 0.140625 1.828125 0.0390625 1.484375 -0.15625 C 1.148438 -0.351562 0.882812 -0.632812 0.6875 -1 C 0.488281 -1.375 0.390625 -1.804688 0.390625 -2.296875 C 0.390625 -2.722656 0.488281 -3.125 0.6875 -3.5 C 0.882812 -3.882812 1.15625 -4.1875 1.5 -4.40625 C 1.851562 -4.632812 2.253906 -4.75 2.703125 -4.75 C 3.054688 -4.75 3.375 -4.671875 3.65625 -4.515625 C 3.9375 -4.367188 4.160156 -4.144531 4.328125 -3.84375 C 4.492188 -3.539062 4.578125 -3.164062 4.578125 -2.71875 L 1.34375 -2.671875 C 1.332031 -1.929688 1.453125 -1.351562 1.703125 -0.9375 C 1.953125 -0.53125 2.335938 -0.328125 2.859375 -0.328125 C 3.140625 -0.328125 3.425781 -0.398438 3.71875 -0.546875 C 4.019531 -0.691406 4.253906 -0.875 4.421875 -1.09375 L 4.640625 -0.90625 C 4.398438 -0.550781 4.09375 -0.285156 3.71875 -0.109375 C 3.351562 0.0546875 2.992188 0.140625 2.640625 0.140625 Z M 3.71875 -3.046875 C 3.71875 -3.421875 3.632812 -3.738281 3.46875 -4 C 3.300781 -4.257812 3.050781 -4.390625 2.71875 -4.390625 C 1.957031 -4.390625 1.503906 -3.941406 1.359375 -3.046875 Z M 3.71875 -3.046875 "/></g></g></g><g fill="#111827" fill-opacity="1"><g transform="translate(201.31454, 256.29977)"><g><path d="M 2.640625 0.140625 C 2.210938 0.140625 1.828125 0.0390625 1.484375 -0.15625 C 1.148438 -0.351562 0.882812 -0.632812 0.6875 -1 C 0.488281 -1.375 0.390625 -1.804688 0.390625 -2.296875 C 0.390625 -2.722656 0.488281 -3.125 0.6875 -3.5 C 0.882812 -3.882812 1.15625 -4.1875 1.5 -4.40625 C 1.851562 -4.632812 2.253906 -4.75 2.703125 -4.75 C 3.054688 -4.75 3.375 -4.671875 3.65625 -4.515625 C 3.9375 -4.367188 4.160156 -4.144531 4.328125 -3.84375 C 4.492188 -3.539062 4.578125 -3.164062 4.578125 -2.71875 L 1.34375 -2.671875 C 1.332031 -1.929688 1.453125 -1.351562 1.703125 -0.9375 C 1.953125 -0.53125 2.335938 -0.328125 2.859375 -0.328125 C 3.140625 -0.328125 3.425781 -0.398438 3.71875 -0.546875 C 4.019531 -0.691406 4.253906 -0.875 4.421875 -1.09375 L 4.640625 -0.90625 C 4.398438 -0.550781 4.09375 -0.285156 3.71875 -0.109375 C 3.351562 0.0546875 2.992188 0.140625 2.640625 0.140625 Z M 3.71875 -3.046875 C 3.71875 -3.421875 3.632812 -3.738281 3.46875 -4 C 3.300781 -4.257812 3.050781 -4.390625 2.71875 -4.390625 C 1.957031 -4.390625 1.503906 -3.941406 1.359375 -3.046875 Z M 3.71875 -3.046875 "/></g></g></g><g fill="#111827" fill-opacity="1"><g transform="translate(206.682726, 256.29977)"><g><path d="M 0.328125 2.078125 C 0.503906 2.078125 0.628906 2.03125 0.703125 1.9375 C 0.785156 1.851562 0.832031 1.742188 0.84375 1.609375 C 0.851562 1.472656 0.859375 1.253906 0.859375 0.953125 L 0.890625 -3.5 C 0.890625 -3.757812 0.898438 -3.960938 0.921875 -4.109375 L 0.265625 -4.0625 L 0.265625 -4.453125 C 0.628906 -4.453125 0.878906 -4.472656 1.015625 -4.515625 C 1.148438 -4.554688 1.257812 -4.617188 1.34375 -4.703125 L 1.625 -4.703125 C 1.644531 -4.398438 1.65625 -4.234375 1.65625 -4.203125 C 1.84375 -4.367188 2.0625 -4.5 2.3125 -4.59375 C 2.570312 -4.695312 2.832031 -4.75 3.09375 -4.75 C 3.445312 -4.75 3.773438 -4.65625 4.078125 -4.46875 C 4.390625 -4.28125 4.640625 -4.015625 4.828125 -3.671875 C 5.015625 -3.328125 5.109375 -2.925781 5.109375 -2.46875 C 5.109375 -1.957031 5 -1.503906 4.78125 -1.109375 C 4.570312 -0.710938 4.285156 -0.40625 3.921875 -0.1875 C 3.566406 0.03125 3.179688 0.140625 2.765625 0.140625 C 2.335938 0.140625 1.96875 0.0390625 1.65625 -0.15625 L 1.65625 1.375 C 1.65625 1.644531 1.644531 1.851562 1.625 2 L 2.203125 1.96875 L 2.203125 2.34375 L 0.328125 2.34375 Z M 2.75 -0.21875 C 3.039062 -0.21875 3.289062 -0.304688 3.5 -0.484375 C 3.707031 -0.660156 3.867188 -0.910156 3.984375 -1.234375 C 4.109375 -1.554688 4.171875 -1.921875 4.171875 -2.328125 C 4.171875 -2.878906 4.050781 -3.347656 3.8125 -3.734375 C 3.570312 -4.117188 3.21875 -4.3125 2.75 -4.3125 C 2.550781 -4.3125 2.351562 -4.257812 2.15625 -4.15625 C 1.96875 -4.0625 1.804688 -3.9375 1.671875 -3.78125 C 1.671875 -3.738281 1.671875 -3.550781 1.671875 -3.21875 L 1.671875 -0.578125 C 1.984375 -0.335938 2.34375 -0.21875 2.75 -0.21875 Z M 2.75 -0.21875 "/></g></g></g><g fill="#111827" fill-opacity="1"><g transform="translate(212.558201, 256.29977)"><g/></g></g><g fill="#111827" fill-opacity="1"><g transform="translate(215.353032, 256.29977)"><g><path d="M 0.5 -0.296875 C 0.71875 -0.304688 0.875 -0.359375 0.96875 -0.453125 C 1.0625 -0.546875 1.113281 -0.65625 1.125 -0.78125 C 1.132812 -0.90625 1.140625 -1.125 1.140625 -1.4375 L 1.140625 -5.421875 C 1.140625 -5.679688 1.148438 -5.898438 1.171875 -6.078125 L 0.5 -6.046875 L 0.5 -6.453125 L 2.578125 -6.453125 L 2.578125 -6.15625 C 2.367188 -6.144531 2.21875 -6.09375 2.125 -6 C 2.03125 -5.90625 1.972656 -5.796875 1.953125 -5.671875 C 1.941406 -5.546875 1.9375 -5.328125 1.9375 -5.015625 L 1.9375 -1.09375 C 1.9375 -0.769531 1.929688 -0.53125 1.921875 -0.375 L 2.578125 -0.40625 L 2.578125 0 L 0.5 0 Z M 0.5 -0.296875 "/></g></g></g><g fill="#111827" fill-opacity="1"><g transform="translate(218.811955, 256.29977)"><g><path d="M 2.140625 0.140625 C 1.296875 0.140625 0.878906 -0.421875 0.890625 -1.546875 L 0.90625 -4.21875 L 0.1875 -4.21875 L 0.1875 -4.609375 C 0.488281 -4.617188 0.738281 -4.753906 0.9375 -5.015625 C 1.144531 -5.273438 1.300781 -5.570312 1.40625 -5.90625 L 1.71875 -5.90625 L 1.71875 -4.609375 L 3.265625 -4.609375 L 3.265625 -4.25 L 1.71875 -4.234375 C 1.707031 -3.296875 1.703125 -2.644531 1.703125 -2.28125 C 1.703125 -1.914062 1.703125 -1.710938 1.703125 -1.671875 C 1.703125 -1.234375 1.753906 -0.90625 1.859375 -0.6875 C 1.960938 -0.476562 2.140625 -0.375 2.390625 -0.375 C 2.554688 -0.375 2.71875 -0.421875 2.875 -0.515625 C 3.03125 -0.617188 3.164062 -0.757812 3.28125 -0.9375 L 3.53125 -0.734375 C 3.289062 -0.367188 3.050781 -0.128906 2.8125 -0.015625 C 2.582031 0.0859375 2.359375 0.140625 2.140625 0.140625 Z M 2.140625 0.140625 "/></g></g></g></svg>