<svg xmlns="http://www.w3.org/2000/svg" xmlns:xlink="http://www.w3.org/1999/xlink" width="500" zoomAndPan="magnify" viewBox="0 0 375 374.999991" height="500" preserveAspectRatio="xMidYMid meet" version="1.0"><defs><clipPath id="3a4b5c5447"><path d="M 9.839844 7.320312 L 367.679688 7.320312 L 367.679688 365.160156 L 9.839844 365.160156 Z M 9.839844 7.320312 " clip-rule="nonzero"/></clipPath><clipPath id="e1dd266df7"><path d="M 188.757812 7.320312 C 89.945312 7.320312 9.839844 87.425781 9.839844 186.242188 C 9.839844 285.054688 89.945312 365.160156 188.757812 365.160156 C 287.574219 365.160156 367.679688 285.054688 367.679688 186.242188 C 367.679688 87.425781 287.574219 7.320312 188.757812 7.320312 Z M 188.757812 7.320312 " clip-rule="nonzero"/></clipPath><clipPath id="968992af7f"><path d="M 15.949219 13.941406 L 361.699219 13.941406 L 361.699219 359.691406 L 15.949219 359.691406 Z M 15.949219 13.941406 " clip-rule="nonzero"/></clipPath><clipPath id="68cce0591f"><path d="M 26.769531 24.761719 L 350.769531 24.761719 L 350.769531 348.761719 L 26.769531 348.761719 Z M 26.769531 24.761719 " clip-rule="nonzero"/></clipPath><clipPath id="ff54922e62"><path d="M 188.757812 24.761719 C 99.292969 24.761719 26.769531 97.285156 26.769531 186.75 C 26.769531 276.210938 99.292969 348.738281 188.757812 348.738281 C 278.222656 348.738281 350.746094 276.210938 350.746094 186.75 C 350.746094 97.285156 278.222656 24.761719 188.757812 24.761719 Z M 188.757812 24.761719 " clip-rule="nonzero"/></clipPath></defs><g clip-path="url(#3a4b5c5447)"><g clip-path="url(#e1dd266df7)"><path fill="#111827" d="M 9.839844 7.320312 L 367.679688 7.320312 L 367.679688 365.160156 L 9.839844 365.160156 Z M 9.839844 7.320312 " fill-opacity="1" fill-rule="nonzero"/></g></g><g clip-path="url(#968992af7f)"><path fill="#ffffff" d="M 127.90625 154.304688 C 111.109375 166.199219 101.234375 181.699219 96.042969 199 C 92.726562 210.101562 91.285156 221.925781 91.285156 233.894531 C 89.121094 229.351562 87.175781 224.664062 85.660156 219.835938 C 82.347656 209.453125 80.542969 198.28125 80.542969 186.746094 C 80.542969 156.828125 92.65625 129.792969 112.265625 110.183594 C 131.875 90.574219 158.90625 78.464844 188.824219 78.464844 C 204.109375 78.464844 218.671875 81.636719 231.792969 87.332031 C 242.246094 91.871094 251.835938 97.929688 260.269531 105.351562 C 264.449219 109.03125 265.460938 113.140625 263.226562 117.464844 C 258.828125 125.972656 250.96875 134.621094 239.722656 141.328125 C 227.105469 148.898438 210.308594 154.015625 189.332031 153.945312 L 189.257812 153.945312 C 184.285156 153.945312 180.246094 152.574219 177.21875 150.339844 C 174.550781 148.320312 172.53125 145.582031 171.234375 142.480469 C 169.867188 139.164062 169.144531 135.414062 169.144531 131.523438 C 169.144531 124.601562 171.308594 117.394531 175.5625 111.699219 C 177.148438 109.605469 176.714844 106.652344 174.625 105.136719 C 172.53125 103.550781 169.578125 103.984375 168.0625 106.074219 C 162.585938 113.425781 159.773438 122.65625 159.773438 131.523438 C 159.773438 136.640625 160.710938 141.6875 162.65625 146.15625 C 164.316406 150.121094 166.765625 153.65625 169.9375 156.464844 C 156.960938 159.925781 145.355469 166.777344 136.125 176.003906 C 123.726562 188.402344 115.582031 205.199219 114.28125 223.800781 L 114.28125 229.28125 C 114.28125 250.042969 122.71875 268.859375 136.34375 282.484375 C 149.96875 296.109375 168.785156 304.542969 189.546875 304.542969 C 222.058594 304.542969 251.472656 291.351562 272.742188 270.082031 C 294.007812 248.816406 307.199219 219.332031 307.199219 186.890625 C 307.199219 186.746094 307.199219 186.601562 307.199219 186.457031 C 307.199219 182.636719 307.128906 177.230469 307.128906 170.238281 C 307.128906 164.324219 307.128906 159.566406 307.128906 155.960938 C 307.128906 155.167969 307.128906 154.449219 307.128906 153.65625 C 307.128906 151.058594 305.039062 148.96875 302.441406 148.96875 C 299.847656 148.96875 297.757812 151.058594 297.757812 153.65625 L 297.757812 156.179688 C 297.394531 174.707031 292.0625 190.277344 281.753906 202.964844 C 272.164062 214.71875 258.105469 224.089844 239.792969 230.9375 C 237.199219 231.660156 234.605469 232.597656 231.863281 233.675781 C 229.558594 234.542969 228.332031 237.066406 229.125 239.445312 C 229.917969 241.894531 232.511719 243.265625 235.035156 242.472656 L 235.324219 242.402344 C 237.777344 241.609375 240.15625 240.816406 242.460938 239.949219 C 246.5 238.796875 250.25 238.003906 253.707031 237.714844 C 258.972656 237.28125 263.441406 237.785156 267.046875 239.300781 C 269.425781 240.308594 272.164062 239.15625 273.171875 236.777344 C 274.183594 234.398438 273.027344 231.660156 270.648438 230.648438 C 268.992188 230 267.335938 229.425781 265.53125 229.0625 C 274.976562 223.296875 282.832031 216.664062 289.105469 208.949219 C 292.277344 205.058594 295.089844 200.875 297.46875 196.476562 C 295.234375 222.574219 283.699219 246.078125 266.179688 263.523438 C 246.570312 283.132812 219.535156 295.242188 189.617188 295.242188 C 171.453125 295.242188 155.015625 287.890625 143.046875 275.996094 C 131.152344 264.101562 123.796875 247.589844 123.796875 229.425781 L 123.796875 225.964844 C 124.664062 209.167969 131.875 194.027344 142.976562 182.851562 C 154.871094 170.957031 171.308594 163.605469 189.546875 163.605469 L 189.691406 163.605469 C 212.542969 163.675781 231 157.980469 244.914062 149.691406 C 262.648438 139.09375 273.101562 124.023438 276.203125 110.761719 L 276.203125 110.617188 C 276.34375 109.96875 276.34375 109.320312 276.203125 108.742188 L 276.203125 108.597656 C 275.984375 107.734375 275.625 107.011719 274.976562 106.363281 C 264.089844 94.757812 250.824219 85.382812 235.972656 78.96875 C 221.628906 72.769531 205.839844 69.308594 189.257812 69.308594 C 169.433594 69.308594 150.761719 74.210938 134.394531 82.859375 C 126.753906 87.042969 119.402344 92.015625 112.335938 98 C 110.171875 99.875 108.082031 101.820312 106.0625 103.839844 C 98.566406 111.265625 92.148438 119.773438 86.886719 129 C 85.375 131.8125 83.933594 134.621094 82.5625 137.363281 C 75.496094 152.429688 71.605469 169.300781 71.605469 187.035156 C 71.605469 199.578125 73.550781 211.617188 77.226562 223.007812 C 80.976562 234.757812 86.597656 245.714844 93.59375 255.519531 C 95.105469 257.613281 98.0625 258.117188 100.152344 256.601562 C 101.667969 255.519531 102.316406 253.71875 102.027344 251.988281 C 100.367188 234.757812 100.875 217.527344 105.558594 201.882812 C 110.171875 186.527344 118.96875 172.6875 133.820312 162.160156 C 135.910156 160.648438 136.414062 157.765625 134.902344 155.601562 C 132.953125 153.292969 130 152.863281 127.90625 154.304688 Z M 306.480469 69.089844 C 336.613281 99.226562 355.214844 140.824219 355.214844 186.816406 C 355.214844 232.8125 336.613281 274.410156 306.480469 304.542969 C 276.34375 334.679688 234.75 353.277344 188.753906 353.277344 C 142.757812 353.277344 101.160156 334.679688 71.027344 304.542969 C 40.964844 274.335938 22.292969 232.738281 22.292969 186.746094 C 22.292969 140.75 40.894531 99.152344 71.027344 69.019531 C 101.160156 38.957031 142.832031 20.285156 188.753906 20.285156 C 234.75 20.285156 276.34375 38.957031 306.480469 69.089844 Z M 188.753906 13.941406 C 236.480469 13.941406 279.660156 33.261719 310.949219 64.550781 C 342.238281 95.835938 361.558594 139.019531 361.558594 186.746094 C 361.558594 234.46875 342.238281 277.652344 310.949219 308.941406 C 279.660156 340.230469 236.480469 359.550781 188.753906 359.550781 C 141.027344 359.550781 97.84375 340.230469 66.558594 308.941406 C 35.269531 277.726562 15.949219 234.46875 15.949219 186.746094 C 15.949219 139.019531 35.269531 95.835938 66.558594 64.550781 C 97.84375 33.261719 141.027344 13.941406 188.753906 13.941406 Z M 299.992188 75.578125 C 275.550781 51.140625 243.183594 34.773438 207.066406 30.59375 L 207.066406 26.558594 C 244.265625 30.738281 277.644531 47.609375 302.804688 72.769531 C 327.964844 97.929688 344.832031 131.304688 349.015625 168.507812 L 345.050781 168.507812 C 340.796875 132.386719 324.359375 99.945312 299.992188 75.578125 Z M 349.015625 205.058594 C 344.832031 242.257812 327.964844 275.636719 302.804688 300.796875 C 277.644531 325.957031 244.265625 342.824219 207.066406 347.007812 L 207.066406 342.96875 C 243.183594 338.789062 275.550781 322.351562 299.992188 297.984375 C 324.429688 273.542969 340.796875 241.175781 344.976562 205.058594 Z M 170.515625 30.59375 C 134.394531 34.773438 102.027344 51.210938 77.585938 75.578125 C 53.148438 99.945312 36.785156 132.386719 32.53125 168.507812 L 28.492188 168.507812 C 32.675781 131.304688 49.542969 97.929688 74.703125 72.769531 C 99.863281 47.609375 133.242188 30.738281 170.441406 26.558594 L 170.441406 30.59375 Z M 32.601562 205.058594 C 36.785156 241.175781 53.21875 273.542969 77.585938 297.984375 C 102.027344 322.421875 134.394531 338.789062 170.515625 342.96875 L 170.515625 347.007812 C 133.316406 342.824219 99.9375 325.957031 74.777344 300.796875 C 49.617188 275.636719 32.746094 242.257812 28.566406 205.058594 Z M 275.769531 110.328125 Z M 189.113281 163.386719 Z M 234.53125 242.257812 Z M 216.941406 267.703125 C 226.023438 264.53125 234.460938 259.917969 241.957031 253.933594 C 243.976562 252.347656 246.933594 252.710938 248.519531 254.726562 C 250.105469 256.746094 249.742188 259.703125 247.726562 261.289062 C 239.363281 267.921875 229.992188 273.039062 219.96875 276.570312 C 210.019531 280.03125 199.496094 281.835938 188.679688 281.835938 C 174.117188 281.835938 161 275.921875 151.480469 266.40625 C 141.964844 256.890625 136.054688 243.699219 136.054688 229.207031 C 136.054688 226.613281 138.144531 224.523438 140.742188 224.523438 C 143.335938 224.523438 145.425781 226.613281 145.425781 229.207031 C 145.425781 241.175781 150.257812 251.988281 158.113281 259.773438 C 165.902344 267.558594 176.714844 272.460938 188.679688 272.460938 C 198.558594 272.460938 208.074219 270.804688 216.941406 267.703125 Z M 239.867188 121.070312 C 235.828125 121.070312 232.585938 117.824219 232.585938 113.789062 C 232.585938 109.75 235.828125 106.507812 239.867188 106.507812 C 243.902344 106.507812 247.148438 109.75 247.148438 113.789062 C 247.148438 117.824219 243.902344 121.070312 239.867188 121.070312 Z M 239.867188 121.070312 " fill-opacity="1" fill-rule="evenodd"/></g><g clip-path="url(#68cce0591f)"><g clip-path="url(#ff54922e62)"><path stroke-linecap="butt" transform="matrix(0.75, 0, 0, 0.75, 26.768863, 24.760496)" fill="none" stroke-linejoin="miter" d="M 215.985266 0.00163069 C 96.698807 0.00163069 0.000890597 96.699548 0.000890597 215.986006 C 0.000890597 335.267256 96.698807 431.970381 215.985266 431.970381 C 335.271724 431.970381 431.969641 335.267256 431.969641 215.986006 C 431.969641 96.699548 335.271724 0.00163069 215.985266 0.00163069 Z M 215.985266 0.00163069 " stroke="#ffffff" stroke-width="18" stroke-opacity="1" stroke-miterlimit="4"/></g></g></svg>