<svg xmlns="http://www.w3.org/2000/svg" xmlns:xlink="http://www.w3.org/1999/xlink" width="500" zoomAndPan="magnify" viewBox="0 0 375 374.999991" height="500" preserveAspectRatio="xMidYMid meet" version="1.0"><defs><g/><clipPath id="84cb458c76"><path d="M 69.433594 9.554688 L 308.683594 9.554688 L 308.683594 248.804688 L 69.433594 248.804688 Z M 69.433594 9.554688 " clip-rule="nonzero"/></clipPath><clipPath id="4ddd9bd74e"><path d="M 77.609375 17.734375 L 300.359375 17.734375 L 300.359375 240.484375 L 77.609375 240.484375 Z M 77.609375 17.734375 " clip-rule="nonzero"/></clipPath><clipPath id="18810a94e4"><path d="M 188.925781 17.734375 C 127.449219 17.734375 77.609375 67.570312 77.609375 129.050781 C 77.609375 190.527344 127.449219 240.367188 188.925781 240.367188 C 250.40625 240.367188 300.242188 190.527344 300.242188 129.050781 C 300.242188 67.570312 250.40625 17.734375 188.925781 17.734375 Z M 188.925781 17.734375 " clip-rule="nonzero"/></clipPath></defs><rect x="-37.5" width="450" fill="#ffffff" y="-37.499999" height="449.999989" fill-opacity="1"/><rect x="-37.5" width="450" fill="#111827" y="-37.499999" height="449.999989" fill-opacity="1"/><g clip-path="url(#84cb458c76)"><path fill="#ffffff" d="M 146.847656 106.613281 C 135.234375 114.835938 128.402344 125.554688 124.816406 137.519531 C 122.523438 145.195312 121.523438 153.371094 121.523438 161.648438 C 120.03125 158.507812 118.683594 155.265625 117.636719 151.925781 C 115.34375 144.746094 114.097656 137.019531 114.097656 129.046875 C 114.097656 108.355469 122.472656 89.664062 136.03125 76.105469 C 149.589844 62.546875 168.285156 54.171875 188.972656 54.171875 C 199.539062 54.171875 209.609375 56.363281 218.683594 60.300781 C 225.910156 63.441406 232.539062 67.628906 238.375 72.765625 C 241.265625 75.308594 241.960938 78.148438 240.417969 81.140625 C 237.375 87.023438 231.941406 93.003906 224.164062 97.640625 C 215.441406 102.875 203.828125 106.414062 189.320312 106.363281 L 189.269531 106.363281 C 185.832031 106.363281 183.039062 105.417969 180.945312 103.871094 C 179.101562 102.476562 177.707031 100.582031 176.808594 98.4375 C 175.859375 96.144531 175.363281 93.550781 175.363281 90.859375 C 175.363281 86.074219 176.859375 81.089844 179.800781 77.152344 C 180.894531 75.707031 180.597656 73.660156 179.152344 72.613281 C 177.707031 71.519531 175.660156 71.816406 174.613281 73.261719 C 170.828125 78.347656 168.882812 84.730469 168.882812 90.859375 C 168.882812 94.398438 169.53125 97.890625 170.875 100.980469 C 172.023438 103.722656 173.71875 106.164062 175.910156 108.109375 C 166.9375 110.5 158.914062 115.238281 152.53125 121.617188 C 143.957031 130.191406 138.324219 141.808594 137.425781 154.667969 L 137.425781 158.457031 C 137.425781 172.8125 143.257812 185.824219 152.679688 195.246094 C 162.101562 204.667969 175.113281 210.5 189.46875 210.5 C 211.953125 210.5 232.292969 201.378906 246.996094 186.671875 C 261.703125 171.964844 270.824219 151.578125 270.824219 129.144531 C 270.824219 129.046875 270.824219 128.945312 270.824219 128.847656 C 270.824219 126.203125 270.777344 122.464844 270.777344 117.628906 C 270.777344 113.542969 270.777344 110.25 270.777344 107.757812 C 270.777344 107.210938 270.777344 106.710938 270.777344 106.164062 C 270.777344 104.371094 269.328125 102.921875 267.535156 102.921875 C 265.742188 102.921875 264.296875 104.371094 264.296875 106.164062 L 264.296875 107.910156 C 264.046875 120.71875 260.355469 131.488281 253.226562 140.261719 C 246.597656 148.386719 236.878906 154.867188 224.214844 159.601562 C 222.421875 160.101562 220.625 160.75 218.730469 161.496094 C 217.136719 162.09375 216.289062 163.839844 216.839844 165.484375 C 217.386719 167.179688 219.179688 168.128906 220.925781 167.578125 L 221.125 167.527344 C 222.820312 166.980469 224.464844 166.433594 226.058594 165.835938 C 228.851562 165.035156 231.445312 164.488281 233.835938 164.289062 C 237.476562 163.988281 240.566406 164.339844 243.058594 165.386719 C 244.703125 166.082031 246.597656 165.285156 247.296875 163.640625 C 247.992188 161.996094 247.195312 160.101562 245.550781 159.402344 C 244.40625 158.957031 243.257812 158.554688 242.011719 158.308594 C 248.542969 154.320312 253.976562 149.734375 258.3125 144.398438 C 260.507812 141.707031 262.449219 138.816406 264.09375 135.773438 C 262.550781 153.820312 254.574219 170.070312 242.460938 182.136719 C 228.902344 195.695312 210.207031 204.070312 189.519531 204.070312 C 176.957031 204.070312 165.59375 198.984375 157.316406 190.757812 C 149.09375 182.535156 144.007812 171.117188 144.007812 158.554688 L 144.007812 156.164062 C 144.605469 144.546875 149.589844 134.078125 157.265625 126.351562 C 165.492188 118.128906 176.859375 113.042969 189.46875 113.042969 L 189.570312 113.042969 C 205.371094 113.09375 218.132812 109.15625 227.753906 103.421875 C 240.019531 96.09375 247.246094 85.675781 249.390625 76.503906 L 249.390625 76.402344 C 249.488281 75.953125 249.488281 75.507812 249.390625 75.109375 L 249.390625 75.007812 C 249.242188 74.410156 248.992188 73.910156 248.542969 73.460938 C 241.015625 65.4375 231.84375 58.957031 221.574219 54.519531 C 211.652344 50.234375 200.738281 47.839844 189.269531 47.839844 C 175.5625 47.839844 162.652344 51.230469 151.335938 57.210938 C 146.050781 60.101562 140.964844 63.542969 136.082031 67.679688 C 134.585938 68.976562 133.140625 70.320312 131.746094 71.71875 C 126.558594 76.851562 122.125 82.734375 118.484375 89.117188 C 117.4375 91.058594 116.441406 93.003906 115.492188 94.898438 C 110.609375 105.316406 107.914062 116.980469 107.914062 129.246094 C 107.914062 137.917969 109.261719 146.242188 111.804688 154.121094 C 114.394531 162.246094 118.285156 169.824219 123.121094 176.601562 C 124.167969 178.046875 126.210938 178.398438 127.65625 177.351562 C 128.703125 176.601562 129.152344 175.355469 128.953125 174.160156 C 127.804688 162.246094 128.15625 150.332031 131.394531 139.511719 C 134.585938 128.894531 140.667969 119.324219 150.9375 112.046875 C 152.382812 111 152.730469 109.003906 151.683594 107.511719 C 150.339844 105.914062 148.292969 105.617188 146.847656 106.613281 Z M 270.328125 47.691406 C 291.164062 68.527344 304.027344 97.289062 304.027344 129.09375 C 304.027344 160.898438 291.164062 189.664062 270.328125 210.5 C 249.488281 231.335938 220.726562 244.199219 188.921875 244.199219 C 157.117188 244.199219 128.355469 231.335938 107.515625 210.5 C 86.730469 189.613281 73.820312 160.847656 73.820312 129.046875 C 73.820312 97.242188 86.679688 68.476562 107.515625 47.640625 C 128.355469 26.851562 157.167969 13.941406 188.921875 13.941406 C 220.726562 13.941406 249.488281 26.851562 270.328125 47.691406 Z M 188.921875 9.554688 C 221.921875 9.554688 251.78125 22.914062 273.417969 44.550781 C 295.050781 66.183594 308.414062 96.042969 308.414062 129.046875 C 308.414062 162.046875 295.050781 191.90625 273.417969 213.539062 C 251.78125 235.175781 221.921875 248.535156 188.921875 248.535156 C 155.921875 248.535156 126.0625 235.175781 104.425781 213.539062 C 82.792969 191.957031 69.433594 162.046875 69.433594 129.046875 C 69.433594 96.042969 82.792969 66.183594 104.425781 44.550781 C 126.0625 22.914062 155.921875 9.554688 188.921875 9.554688 Z M 265.839844 52.175781 C 248.941406 35.277344 226.558594 23.960938 201.582031 21.070312 L 201.582031 18.277344 C 227.304688 21.167969 250.386719 32.835938 267.785156 50.230469 C 285.183594 67.628906 296.847656 90.710938 299.738281 116.433594 L 296.996094 116.433594 C 294.054688 91.457031 282.691406 69.027344 265.839844 52.175781 Z M 299.738281 141.707031 C 296.847656 167.429688 285.183594 190.511719 267.785156 207.90625 C 250.386719 225.304688 227.304688 236.96875 201.582031 239.863281 L 201.582031 237.070312 C 226.558594 234.179688 248.941406 222.8125 265.839844 205.964844 C 282.738281 189.0625 294.054688 166.683594 296.945312 141.707031 Z M 176.308594 21.070312 C 151.335938 23.960938 128.953125 35.328125 112.054688 52.175781 C 95.15625 69.027344 83.839844 91.457031 80.898438 116.433594 L 78.105469 116.433594 C 80.996094 90.710938 92.660156 67.628906 110.058594 50.230469 C 127.457031 32.835938 150.539062 21.167969 176.261719 18.277344 L 176.261719 21.070312 Z M 80.945312 141.707031 C 83.839844 166.683594 95.203125 189.0625 112.054688 205.964844 C 128.953125 222.863281 151.335938 234.179688 176.308594 237.070312 L 176.308594 239.863281 C 150.585938 236.96875 127.507812 225.304688 110.109375 207.90625 C 92.710938 190.511719 81.046875 167.429688 78.15625 141.707031 Z M 249.089844 76.203125 Z M 189.171875 112.894531 Z M 220.578125 167.429688 Z M 208.414062 185.027344 C 214.695312 182.832031 220.527344 179.644531 225.710938 175.503906 C 227.105469 174.410156 229.152344 174.65625 230.246094 176.054688 C 231.34375 177.449219 231.09375 179.492188 229.699219 180.589844 C 223.917969 185.175781 217.4375 188.714844 210.507812 191.15625 C 203.628906 193.550781 196.351562 194.796875 188.871094 194.796875 C 178.800781 194.796875 169.730469 190.710938 163.148438 184.128906 C 156.570312 177.550781 152.480469 168.425781 152.480469 158.40625 C 152.480469 156.613281 153.925781 155.167969 155.722656 155.167969 C 157.515625 155.167969 158.960938 156.613281 158.960938 158.40625 C 158.960938 166.683594 162.300781 174.160156 167.734375 179.542969 C 173.121094 184.925781 180.597656 188.316406 188.871094 188.316406 C 195.703125 188.316406 202.28125 187.171875 208.414062 185.027344 Z M 224.265625 83.632812 C 221.472656 83.632812 219.230469 81.386719 219.230469 78.597656 C 219.230469 75.804688 221.472656 73.5625 224.265625 73.5625 C 227.058594 73.5625 229.300781 75.804688 229.300781 78.597656 C 229.300781 81.386719 227.058594 83.632812 224.265625 83.632812 Z M 224.265625 83.632812 " fill-opacity="1" fill-rule="evenodd"/></g><g clip-path="url(#4ddd9bd74e)"><g clip-path="url(#18810a94e4)"><path stroke-linecap="butt" transform="matrix(0.75, 0, 0, 0.75, 77.610571, 17.733632)" fill="none" stroke-linejoin="miter" d="M 148.4203 0.000991046 C 66.451539 0.000991046 -0.00159414 66.448916 -0.00159414 148.422885 C -0.00159414 230.391646 66.451539 296.84478 148.4203 296.84478 C 230.394269 296.84478 296.842194 230.391646 296.842194 148.422885 C 296.842194 66.448916 230.394269 0.000991046 148.4203 0.000991046 Z M 148.4203 0.000991046 " stroke="#ffffff" stroke-width="12" stroke-opacity="1" stroke-miterlimit="4"/></g></g><g fill="#ffffff" fill-opacity="1"><g transform="translate(21.076145, 304.450009)"><g><path d="M 2.9375 -3.890625 C 4 -3.929688 4.804688 -4.054688 5.359375 -4.265625 C 5.910156 -4.484375 6.34375 -4.945312 6.65625 -5.65625 C 6.96875 -6.363281 7.125 -7.484375 7.125 -9.015625 L 7.125 -31.5625 C 7.125 -33.757812 7.203125 -35.523438 7.359375 -36.859375 L 2.9375 -36.6875 L 2.9375 -41.21875 L 32.390625 -41.21875 L 32.75 -29.796875 L 28.859375 -29.796875 C 28.859375 -32.703125 28.160156 -34.710938 26.765625 -35.828125 C 25.367188 -36.953125 23.691406 -37.472656 21.734375 -37.390625 L 19.609375 -37.34375 C 18.671875 -37.300781 17.925781 -37.171875 17.375 -36.953125 C 16.820312 -36.734375 16.398438 -36.25 16.109375 -35.5 C 15.816406 -34.757812 15.671875 -33.664062 15.671875 -32.21875 L 15.671875 -21.96875 L 21.734375 -21.96875 C 21.691406 -22.476562 21.613281 -24.164062 21.5 -27.03125 L 26.03125 -27.03125 L 26.03125 -12.71875 L 22.140625 -12.71875 C 22.140625 -14.289062 21.894531 -15.457031 21.40625 -16.21875 C 20.914062 -16.988281 20.265625 -17.472656 19.453125 -17.671875 C 18.648438 -17.867188 17.625 -17.945312 16.375 -17.90625 L 15.671875 -17.90625 L 15.671875 -9.65625 C 15.671875 -7.457031 15.585938 -5.691406 15.421875 -4.359375 C 16.679688 -4.472656 18.429688 -4.53125 20.671875 -4.53125 L 20.671875 0 L 2.9375 0 Z M 2.9375 -3.890625 "/></g></g></g><g fill="#ffffff" fill-opacity="1"><g transform="translate(55.870072, 304.450009)"><g><path d="M 10.71875 -35.28125 C 9.382812 -35.28125 8.285156 -35.738281 7.421875 -36.65625 C 6.554688 -37.582031 6.125 -38.710938 6.125 -40.046875 C 6.125 -41.378906 6.570312 -42.523438 7.46875 -43.484375 C 8.375 -44.453125 9.4375 -44.9375 10.65625 -44.9375 C 11.914062 -44.9375 12.96875 -44.460938 13.8125 -43.515625 C 14.65625 -42.578125 15.078125 -41.421875 15.078125 -40.046875 C 15.078125 -38.671875 14.671875 -37.53125 13.859375 -36.625 C 13.054688 -35.726562 12.007812 -35.28125 10.71875 -35.28125 Z M 2.421875 -3.828125 C 3.910156 -3.828125 4.859375 -4.238281 5.265625 -5.0625 C 5.679688 -5.882812 5.890625 -7.21875 5.890625 -9.0625 L 5.890625 -18.84375 C 5.890625 -20.6875 5.96875 -22.394531 6.125 -23.96875 L 2 -23.796875 L 2 -28.265625 C 4.476562 -28.265625 6.484375 -28.441406 8.015625 -28.796875 C 9.546875 -29.148438 10.566406 -29.5625 11.078125 -30.03125 L 14.25 -30.03125 L 14.25 -9.484375 C 14.25 -7.597656 14.171875 -5.867188 14.015625 -4.296875 C 15.273438 -4.410156 16.550781 -4.46875 17.84375 -4.46875 L 17.84375 0 L 2.421875 0 Z M 2.421875 -3.828125 "/></g></g></g><g fill="#ffffff" fill-opacity="1"><g transform="translate(76.299159, 304.450009)"><g><path d="M 15.953125 0.9375 C 14.265625 0.9375 12.613281 0.71875 11 0.28125 C 9.394531 -0.144531 8.144531 -0.691406 7.25 -1.359375 L 7.1875 -1.359375 L 7.359375 0.40625 L 2.890625 0.40625 L 2.65625 -9.71875 L 6.484375 -9.71875 C 6.671875 -7.914062 7.617188 -6.394531 9.328125 -5.15625 C 11.035156 -3.914062 13.128906 -3.296875 15.609375 -3.296875 C 16.703125 -3.296875 17.648438 -3.550781 18.453125 -4.0625 C 19.265625 -4.570312 19.671875 -5.300781 19.671875 -6.25 C 19.671875 -6.945312 19.414062 -7.53125 18.90625 -8 C 18.394531 -8.476562 17.785156 -8.875 17.078125 -9.1875 C 16.367188 -9.5 14.957031 -10.066406 12.84375 -10.890625 C 10.320312 -11.867188 8.429688 -12.671875 7.171875 -13.296875 C 5.921875 -13.929688 4.796875 -14.867188 3.796875 -16.109375 C 2.796875 -17.347656 2.296875 -18.945312 2.296875 -20.90625 C 2.296875 -22.519531 2.695312 -24.039062 3.5 -25.46875 C 4.3125 -26.90625 5.550781 -28.082031 7.21875 -29 C 8.882812 -29.925781 10.9375 -30.390625 13.375 -30.390625 C 14.507812 -30.390625 15.742188 -30.210938 17.078125 -29.859375 C 18.410156 -29.503906 19.53125 -29.015625 20.4375 -28.390625 L 20.5 -28.390625 L 20.4375 -30.09375 L 24.90625 -30.09375 L 24.90625 -19.671875 L 21.078125 -19.671875 C 20.722656 -21.710938 19.816406 -23.320312 18.359375 -24.5 C 16.910156 -25.675781 15.128906 -26.265625 13.015625 -26.265625 C 11.910156 -26.265625 10.984375 -26.007812 10.234375 -25.5 C 9.492188 -24.988281 9.125 -24.203125 9.125 -23.140625 C 9.125 -22.046875 9.554688 -21.234375 10.421875 -20.703125 C 11.285156 -20.171875 12.738281 -19.570312 14.78125 -18.90625 C 15.019531 -18.863281 15.53125 -18.707031 16.3125 -18.4375 C 19.644531 -17.257812 22.203125 -15.882812 23.984375 -14.3125 C 25.773438 -12.738281 26.671875 -10.675781 26.671875 -8.125 C 26.671875 -6.164062 26.171875 -4.507812 25.171875 -3.15625 C 24.171875 -1.800781 22.851562 -0.78125 21.21875 -0.09375 C 19.59375 0.59375 17.835938 0.9375 15.953125 0.9375 Z M 15.953125 0.9375 "/></g></g></g><g fill="#ffffff" fill-opacity="1"><g transform="translate(106.030057, 304.450009)"><g><path d="M 1.46875 -3.828125 C 2.53125 -3.828125 3.304688 -4.03125 3.796875 -4.4375 C 4.285156 -4.851562 4.597656 -5.414062 4.734375 -6.125 C 4.878906 -6.832031 4.953125 -7.8125 4.953125 -9.0625 L 4.953125 -33.265625 C 4.953125 -35.148438 5.03125 -36.859375 5.1875 -38.390625 L 1.0625 -38.21875 L 1.0625 -42.703125 C 3.53125 -42.703125 5.53125 -42.875 7.0625 -43.21875 C 8.59375 -43.570312 9.613281 -43.988281 10.125 -44.46875 L 13.3125 -44.46875 L 13.3125 -27.09375 C 14.445312 -27.988281 15.859375 -28.757812 17.546875 -29.40625 C 19.234375 -30.0625 20.6875 -30.390625 21.90625 -30.390625 C 25.4375 -30.390625 27.96875 -29.367188 29.5 -27.328125 C 31.03125 -25.285156 31.816406 -21.96875 31.859375 -17.375 L 31.859375 -9.484375 C 31.859375 -7.597656 31.78125 -5.867188 31.625 -4.296875 C 32.882812 -4.410156 34.160156 -4.46875 35.453125 -4.46875 L 35.453125 0 L 19.96875 0 L 19.96875 -3.828125 C 21.457031 -3.828125 22.414062 -4.238281 22.84375 -5.0625 C 23.28125 -5.882812 23.5 -7.21875 23.5 -9.0625 L 23.4375 -17.4375 C 23.4375 -20.019531 23.050781 -21.921875 22.28125 -23.140625 C 21.519531 -24.359375 20.316406 -24.96875 18.671875 -24.96875 C 17.722656 -24.96875 16.757812 -24.757812 15.78125 -24.34375 C 14.800781 -23.9375 13.976562 -23.421875 13.3125 -22.796875 L 13.3125 -9.484375 C 13.3125 -7.597656 13.234375 -5.867188 13.078125 -4.296875 C 14.367188 -4.410156 15.644531 -4.46875 16.90625 -4.46875 L 16.90625 0 L 1.46875 0 Z M 1.46875 -3.828125 "/></g></g></g><g fill="#ffffff" fill-opacity="1"><g transform="translate(143.767603, 304.450009)"><g><path d="M 10.71875 -35.28125 C 9.382812 -35.28125 8.285156 -35.738281 7.421875 -36.65625 C 6.554688 -37.582031 6.125 -38.710938 6.125 -40.046875 C 6.125 -41.378906 6.570312 -42.523438 7.46875 -43.484375 C 8.375 -44.453125 9.4375 -44.9375 10.65625 -44.9375 C 11.914062 -44.9375 12.96875 -44.460938 13.8125 -43.515625 C 14.65625 -42.578125 15.078125 -41.421875 15.078125 -40.046875 C 15.078125 -38.671875 14.671875 -37.53125 13.859375 -36.625 C 13.054688 -35.726562 12.007812 -35.28125 10.71875 -35.28125 Z M 2.421875 -3.828125 C 3.910156 -3.828125 4.859375 -4.238281 5.265625 -5.0625 C 5.679688 -5.882812 5.890625 -7.21875 5.890625 -9.0625 L 5.890625 -18.84375 C 5.890625 -20.6875 5.96875 -22.394531 6.125 -23.96875 L 2 -23.796875 L 2 -28.265625 C 4.476562 -28.265625 6.484375 -28.441406 8.015625 -28.796875 C 9.546875 -29.148438 10.566406 -29.5625 11.078125 -30.03125 L 14.25 -30.03125 L 14.25 -9.484375 C 14.25 -7.597656 14.171875 -5.867188 14.015625 -4.296875 C 15.273438 -4.410156 16.550781 -4.46875 17.84375 -4.46875 L 17.84375 0 L 2.421875 0 Z M 2.421875 -3.828125 "/></g></g></g><g fill="#ffffff" fill-opacity="1"><g transform="translate(164.196689, 304.450009)"><g><path d="M 2.421875 -3.828125 C 3.910156 -3.828125 4.859375 -4.238281 5.265625 -5.0625 C 5.679688 -5.882812 5.890625 -7.21875 5.890625 -9.0625 L 5.890625 -18.96875 C 5.890625 -20.726562 5.96875 -22.394531 6.125 -23.96875 L 2 -23.796875 L 2 -28.265625 C 4.476562 -28.265625 6.484375 -28.441406 8.015625 -28.796875 C 9.546875 -29.148438 10.566406 -29.5625 11.078125 -30.03125 L 13.953125 -30.03125 C 13.953125 -29.957031 14.03125 -28.976562 14.1875 -27.09375 L 14.3125 -27.09375 C 15.445312 -27.988281 16.847656 -28.757812 18.515625 -29.40625 C 20.191406 -30.0625 21.617188 -30.390625 22.796875 -30.390625 C 26.367188 -30.390625 28.921875 -29.367188 30.453125 -27.328125 C 31.984375 -25.285156 32.75 -21.96875 32.75 -17.375 L 32.75 -9.484375 C 32.75 -7.597656 32.664062 -5.867188 32.5 -4.296875 C 33.800781 -4.410156 35.078125 -4.46875 36.328125 -4.46875 L 36.328125 0 L 20.90625 0 L 20.90625 -3.828125 C 22.394531 -3.828125 23.351562 -4.238281 23.78125 -5.0625 C 24.21875 -5.882812 24.4375 -7.21875 24.4375 -9.0625 L 24.375 -17.4375 C 24.375 -20.019531 24.007812 -21.921875 23.28125 -23.140625 C 22.5625 -24.359375 21.335938 -24.96875 19.609375 -24.96875 C 18.671875 -24.96875 17.707031 -24.757812 16.71875 -24.34375 C 15.738281 -23.9375 14.914062 -23.421875 14.25 -22.796875 L 14.25 -9.484375 C 14.25 -7.597656 14.171875 -5.867188 14.015625 -4.296875 C 15.273438 -4.410156 16.550781 -4.46875 17.84375 -4.46875 L 17.84375 0 L 2.421875 0 Z M 2.421875 -3.828125 "/></g></g></g><g fill="#ffffff" fill-opacity="1"><g transform="translate(202.817303, 304.450009)"><g><path d="M 15.078125 15.953125 C 10.328125 15.953125 6.898438 15.222656 4.796875 13.765625 C 2.703125 12.316406 1.65625 10.476562 1.65625 8.25 C 1.65625 6.875 2.09375 5.585938 2.96875 4.390625 C 3.851562 3.191406 5.28125 2.21875 7.25 1.46875 C 5.71875 1.039062 4.609375 0.375 3.921875 -0.53125 C 3.234375 -1.4375 2.890625 -2.492188 2.890625 -3.703125 C 2.890625 -4.890625 3.347656 -6.085938 4.265625 -7.296875 C 5.191406 -8.515625 6.632812 -9.421875 8.59375 -10.015625 L 8.59375 -10.0625 C 6.832031 -10.769531 5.429688 -11.878906 4.390625 -13.390625 C 3.347656 -14.910156 2.828125 -16.707031 2.828125 -18.78125 C 2.828125 -20.976562 3.441406 -22.960938 4.671875 -24.734375 C 5.910156 -26.503906 7.539062 -27.890625 9.5625 -28.890625 C 11.59375 -29.890625 13.722656 -30.390625 15.953125 -30.390625 C 17.128906 -30.390625 18.363281 -30.238281 19.65625 -29.9375 C 20.957031 -29.644531 22.0625 -29.1875 22.96875 -28.5625 C 23.71875 -30.601562 24.71875 -32.300781 25.96875 -33.65625 C 27.226562 -35.007812 28.722656 -35.6875 30.453125 -35.6875 C 31.742188 -35.6875 32.742188 -35.351562 33.453125 -34.6875 C 34.160156 -34.019531 34.515625 -33.097656 34.515625 -31.921875 C 34.515625 -31.015625 34.226562 -30.1875 33.65625 -29.4375 C 33.082031 -28.695312 32.1875 -28.328125 30.96875 -28.328125 C 30.34375 -28.328125 29.722656 -28.550781 29.109375 -29 C 28.503906 -29.457031 28.144531 -30 28.03125 -30.625 C 27.519531 -30.46875 27.007812 -29.96875 26.5 -29.125 C 25.988281 -28.28125 25.695312 -27.503906 25.625 -26.796875 C 26.71875 -25.816406 27.566406 -24.675781 28.171875 -23.375 C 28.785156 -22.082031 29.09375 -20.691406 29.09375 -19.203125 C 29.09375 -17.003906 28.460938 -15.007812 27.203125 -13.21875 C 25.953125 -11.4375 24.304688 -10.039062 22.265625 -9.03125 C 20.222656 -8.03125 18.039062 -7.53125 15.71875 -7.53125 L 14.078125 -7.59375 C 13.210938 -7.675781 12.582031 -7.71875 12.1875 -7.71875 C 11.320312 -7.71875 10.59375 -7.554688 10 -7.234375 C 9.414062 -6.921875 9.125 -6.492188 9.125 -5.953125 C 9.125 -5.242188 9.660156 -4.738281 10.734375 -4.4375 C 11.816406 -4.144531 13.796875 -3.921875 16.671875 -3.765625 C 21.617188 -3.492188 25.363281 -2.671875 27.90625 -1.296875 C 30.457031 0.078125 31.734375 2.375 31.734375 5.59375 C 31.734375 7.71875 30.921875 9.5625 29.296875 11.125 C 27.671875 12.695312 25.570312 13.894531 23 14.71875 C 20.425781 15.539062 17.785156 15.953125 15.078125 15.953125 Z M 15.953125 -11.484375 C 17.453125 -11.484375 18.640625 -12.148438 19.515625 -13.484375 C 20.398438 -14.816406 20.84375 -16.367188 20.84375 -18.140625 C 20.84375 -20.378906 20.410156 -22.320312 19.546875 -23.96875 C 18.679688 -25.613281 17.46875 -26.4375 15.90625 -26.4375 C 14.40625 -26.4375 13.203125 -25.75 12.296875 -24.375 C 11.398438 -23 10.953125 -21.375 10.953125 -19.5 C 10.953125 -17.289062 11.398438 -15.398438 12.296875 -13.828125 C 13.203125 -12.265625 14.421875 -11.484375 15.953125 -11.484375 Z M 16.78125 11.890625 C 18.550781 11.890625 20.070312 11.65625 21.34375 11.1875 C 22.625 10.71875 23.597656 10.117188 24.265625 9.390625 C 24.929688 8.660156 25.265625 7.925781 25.265625 7.1875 C 25.265625 5.96875 24.566406 5.039062 23.171875 4.40625 C 21.773438 3.78125 19.644531 3.410156 16.78125 3.296875 C 16.46875 3.253906 15.957031 3.234375 15.25 3.234375 C 14.851562 3.203125 14.164062 3.15625 13.1875 3.09375 C 12.207031 3.03125 11.40625 2.941406 10.78125 2.828125 C 10.1875 3.296875 9.722656 3.898438 9.390625 4.640625 C 9.054688 5.390625 8.890625 6.140625 8.890625 6.890625 C 8.890625 8.421875 9.601562 9.632812 11.03125 10.53125 C 12.46875 11.4375 14.382812 11.890625 16.78125 11.890625 Z M 16.78125 11.890625 "/></g></g></g><g fill="#ffffff" fill-opacity="1"><g transform="translate(236.787022, 304.450009)"><g><path d="M 2.421875 -3.828125 C 3.910156 -3.828125 4.859375 -4.238281 5.265625 -5.0625 C 5.679688 -5.882812 5.890625 -7.21875 5.890625 -9.0625 L 5.890625 -18.96875 C 5.890625 -20.726562 5.96875 -22.394531 6.125 -23.96875 L 2 -23.796875 L 2 -28.265625 C 4.476562 -28.265625 6.484375 -28.441406 8.015625 -28.796875 C 9.546875 -29.148438 10.566406 -29.5625 11.078125 -30.03125 L 13.953125 -30.03125 C 14.035156 -29.445312 14.09375 -28.679688 14.125 -27.734375 C 14.164062 -26.796875 14.1875 -25.875 14.1875 -24.96875 L 14.3125 -24.96875 C 16.976562 -28.582031 19.804688 -30.390625 22.796875 -30.390625 C 24.285156 -30.390625 25.507812 -29.976562 26.46875 -29.15625 C 27.4375 -28.332031 27.921875 -27.113281 27.921875 -25.5 C 27.921875 -24.476562 27.582031 -23.535156 26.90625 -22.671875 C 26.238281 -21.804688 25.238281 -21.375 23.90625 -21.375 C 22.925781 -21.375 22.050781 -21.628906 21.28125 -22.140625 C 20.519531 -22.648438 20.082031 -23.535156 19.96875 -24.796875 C 18.863281 -24.796875 17.734375 -24.15625 16.578125 -22.875 C 15.421875 -21.601562 14.644531 -20.335938 14.25 -19.078125 L 14.25 -9.484375 C 14.25 -7.597656 14.171875 -5.867188 14.015625 -4.296875 C 15.273438 -4.410156 16.550781 -4.46875 17.84375 -4.46875 L 17.84375 0 L 2.421875 0 Z M 2.421875 -3.828125 "/></g></g></g><g fill="#ffffff" fill-opacity="1"><g transform="translate(266.223564, 304.450009)"><g><path d="M 9.78125 0.9375 C 7.300781 0.9375 5.34375 0.203125 3.90625 -1.265625 C 2.476562 -2.734375 1.765625 -4.609375 1.765625 -6.890625 C 1.765625 -10.347656 3.375 -12.96875 6.59375 -14.75 C 9.8125 -16.539062 13.679688 -17.53125 18.203125 -17.71875 L 18.203125 -20.78125 C 18.203125 -24.351562 16.863281 -26.140625 14.1875 -26.140625 C 12.457031 -26.140625 11.046875 -25.59375 9.953125 -24.5 C 10.421875 -23.945312 10.65625 -23.203125 10.65625 -22.265625 C 10.65625 -21.316406 10.332031 -20.46875 9.6875 -19.71875 C 9.039062 -18.976562 8.085938 -18.609375 6.828125 -18.609375 C 5.648438 -18.609375 4.726562 -18.988281 4.0625 -19.75 C 3.394531 -20.519531 3.0625 -21.472656 3.0625 -22.609375 C 3.0625 -24.140625 3.609375 -25.492188 4.703125 -26.671875 C 5.804688 -27.847656 7.3125 -28.757812 9.21875 -29.40625 C 11.125 -30.0625 13.210938 -30.390625 15.484375 -30.390625 C 22.753906 -30.390625 26.390625 -26.640625 26.390625 -19.140625 L 26.328125 -9.484375 C 26.328125 -7.597656 26.25 -5.867188 26.09375 -4.296875 C 27.382812 -4.410156 28.660156 -4.46875 29.921875 -4.46875 L 29.921875 0 L 18.78125 0 C 18.707031 -0.507812 18.628906 -1.410156 18.546875 -2.703125 L 18.484375 -2.703125 C 16.097656 -0.273438 13.195312 0.9375 9.78125 0.9375 Z M 13.484375 -4.828125 C 15.253906 -4.828125 16.804688 -5.535156 18.140625 -6.953125 L 18.140625 -13.546875 C 15.816406 -13.304688 13.898438 -12.710938 12.390625 -11.765625 C 10.878906 -10.828125 10.125 -9.554688 10.125 -7.953125 C 10.125 -6.890625 10.445312 -6.101562 11.09375 -5.59375 C 11.75 -5.082031 12.546875 -4.828125 13.484375 -4.828125 Z M 13.484375 -4.828125 "/></g></g></g><g fill="#ffffff" fill-opacity="1"><g transform="translate(298.250489, 304.450009)"><g><path d="M 2.421875 -3.828125 C 3.910156 -3.828125 4.859375 -4.238281 5.265625 -5.0625 C 5.679688 -5.882812 5.890625 -7.21875 5.890625 -9.0625 L 5.890625 -18.96875 C 5.890625 -20.726562 5.96875 -22.394531 6.125 -23.96875 L 2 -23.796875 L 2 -28.265625 C 4.476562 -28.265625 6.484375 -28.441406 8.015625 -28.796875 C 9.546875 -29.148438 10.566406 -29.5625 11.078125 -30.03125 L 13.953125 -30.03125 C 13.953125 -29.957031 14.03125 -28.976562 14.1875 -27.09375 L 14.3125 -27.09375 C 15.53125 -28.070312 16.90625 -28.863281 18.4375 -29.46875 C 19.96875 -30.082031 21.457031 -30.390625 22.90625 -30.390625 C 24.675781 -30.390625 26.160156 -30.0625 27.359375 -29.40625 C 28.554688 -28.757812 29.503906 -27.789062 30.203125 -26.5 C 31.617188 -27.675781 33.191406 -28.617188 34.921875 -29.328125 C 36.648438 -30.035156 38.28125 -30.390625 39.8125 -30.390625 C 43.070312 -30.390625 45.492188 -29.445312 47.078125 -27.5625 C 48.671875 -25.675781 49.46875 -22.535156 49.46875 -18.140625 L 49.46875 -9.484375 C 49.46875 -7.597656 49.390625 -5.867188 49.234375 -4.296875 C 50.484375 -4.410156 51.757812 -4.46875 53.0625 -4.46875 L 53.0625 0 L 38.15625 0 L 38.15625 -3.828125 C 39.414062 -3.828125 40.222656 -4.25 40.578125 -5.09375 C 40.929688 -5.9375 41.109375 -7.257812 41.109375 -9.0625 L 41.109375 -18.078125 C 41.066406 -20.554688 40.648438 -22.3125 39.859375 -23.34375 C 39.078125 -24.382812 37.941406 -24.90625 36.453125 -24.90625 C 34.722656 -24.90625 33.035156 -24.257812 31.390625 -22.96875 C 31.742188 -21.394531 31.921875 -19.53125 31.921875 -17.375 L 31.921875 -9.484375 C 31.921875 -7.597656 31.84375 -5.867188 31.6875 -4.296875 C 32.9375 -4.410156 34.210938 -4.46875 35.515625 -4.46875 L 35.515625 0 L 20.3125 0 L 20.3125 -3.828125 C 21.6875 -3.828125 22.570312 -4.238281 22.96875 -5.0625 C 23.363281 -5.882812 23.5625 -7.21875 23.5625 -9.0625 L 23.5 -18.25 C 23.5 -20.6875 23.144531 -22.40625 22.4375 -23.40625 C 21.726562 -24.40625 20.664062 -24.925781 19.25 -24.96875 C 17.53125 -24.96875 15.863281 -24.242188 14.25 -22.796875 L 14.25 -9.484375 C 14.25 -7.597656 14.171875 -5.867188 14.015625 -4.296875 C 15.273438 -4.410156 16.453125 -4.46875 17.546875 -4.46875 L 17.546875 0 L 2.421875 0 Z M 2.421875 -3.828125 "/></g></g></g><g fill="#ffffff" fill-opacity="1"><g transform="translate(68.004713, 354.730283)"><g><path d="M 1.59375 -0.953125 C 2.269531 -0.972656 2.75 -1.128906 3.03125 -1.421875 C 3.320312 -1.710938 3.488281 -2.050781 3.53125 -2.4375 C 3.570312 -2.832031 3.59375 -3.523438 3.59375 -4.515625 L 3.59375 -17.015625 C 3.59375 -17.828125 3.617188 -18.519531 3.671875 -19.09375 L 1.59375 -18.984375 L 1.59375 -20.25 L 8.109375 -20.25 L 8.109375 -19.296875 C 7.429688 -19.273438 6.945312 -19.117188 6.65625 -18.828125 C 6.363281 -18.546875 6.195312 -18.207031 6.15625 -17.8125 C 6.125 -17.414062 6.109375 -16.722656 6.109375 -15.734375 L 6.109375 -10.9375 L 16.46875 -10.9375 L 16.46875 -17.015625 C 16.46875 -17.828125 16.492188 -18.519531 16.546875 -19.09375 L 14.46875 -18.984375 L 14.46875 -20.25 L 20.984375 -20.25 L 20.984375 -19.296875 C 20.304688 -19.273438 19.820312 -19.117188 19.53125 -18.828125 C 19.238281 -18.546875 19.070312 -18.207031 19.03125 -17.8125 C 19 -17.414062 18.984375 -16.722656 18.984375 -15.734375 L 18.984375 -3.4375 C 18.984375 -2.414062 18.953125 -1.65625 18.890625 -1.15625 L 20.984375 -1.265625 L 20.984375 0 L 14.46875 0 L 14.46875 -0.953125 C 15.144531 -0.972656 15.625 -1.128906 15.90625 -1.421875 C 16.195312 -1.710938 16.363281 -2.050781 16.40625 -2.4375 C 16.445312 -2.832031 16.46875 -3.523438 16.46875 -4.515625 L 16.46875 -9.78125 L 6.109375 -9.671875 L 6.109375 -3.4375 C 6.109375 -2.414062 6.078125 -1.65625 6.015625 -1.15625 L 8.109375 -1.265625 L 8.109375 0 L 1.59375 0 Z M 1.59375 -0.953125 "/></g></g></g><g fill="#ffffff" fill-opacity="1"><g transform="translate(91.726425, 354.730283)"><g><path d="M 8.453125 0.46875 C 7.117188 0.46875 5.894531 0.15625 4.78125 -0.46875 C 3.675781 -1.101562 2.800781 -1.976562 2.15625 -3.09375 C 1.507812 -4.21875 1.1875 -5.484375 1.1875 -6.890625 C 1.1875 -8.390625 1.503906 -9.75 2.140625 -10.96875 C 2.773438 -12.195312 3.644531 -13.164062 4.75 -13.875 C 5.863281 -14.582031 7.097656 -14.9375 8.453125 -14.9375 C 9.785156 -14.9375 11.007812 -14.613281 12.125 -13.96875 C 13.238281 -13.320312 14.117188 -12.4375 14.765625 -11.3125 C 15.410156 -10.195312 15.734375 -8.953125 15.734375 -7.578125 C 15.734375 -6.109375 15.410156 -4.753906 14.765625 -3.515625 C 14.117188 -2.285156 13.238281 -1.3125 12.125 -0.59375 C 11.019531 0.113281 9.796875 0.46875 8.453125 0.46875 Z M 8.6875 -0.6875 C 10.09375 -0.6875 11.128906 -1.265625 11.796875 -2.421875 C 12.460938 -3.585938 12.796875 -5.03125 12.796875 -6.75 C 12.796875 -8.695312 12.429688 -10.363281 11.703125 -11.75 C 10.984375 -13.132812 9.898438 -13.828125 8.453125 -13.828125 C 7.023438 -13.828125 5.945312 -13.238281 5.21875 -12.0625 C 4.5 -10.882812 4.140625 -9.4375 4.140625 -7.71875 C 4.140625 -6.488281 4.304688 -5.335938 4.640625 -4.265625 C 4.984375 -3.191406 5.492188 -2.328125 6.171875 -1.671875 C 6.859375 -1.015625 7.695312 -0.6875 8.6875 -0.6875 Z M 8.6875 -0.6875 "/></g></g></g><g fill="#ffffff" fill-opacity="1"><g transform="translate(109.80708, 354.730283)"><g><path d="M 8.453125 0.46875 C 7.117188 0.46875 5.894531 0.15625 4.78125 -0.46875 C 3.675781 -1.101562 2.800781 -1.976562 2.15625 -3.09375 C 1.507812 -4.21875 1.1875 -5.484375 1.1875 -6.890625 C 1.1875 -8.390625 1.503906 -9.75 2.140625 -10.96875 C 2.773438 -12.195312 3.644531 -13.164062 4.75 -13.875 C 5.863281 -14.582031 7.097656 -14.9375 8.453125 -14.9375 C 9.785156 -14.9375 11.007812 -14.613281 12.125 -13.96875 C 13.238281 -13.320312 14.117188 -12.4375 14.765625 -11.3125 C 15.410156 -10.195312 15.734375 -8.953125 15.734375 -7.578125 C 15.734375 -6.109375 15.410156 -4.753906 14.765625 -3.515625 C 14.117188 -2.285156 13.238281 -1.3125 12.125 -0.59375 C 11.019531 0.113281 9.796875 0.46875 8.453125 0.46875 Z M 8.6875 -0.6875 C 10.09375 -0.6875 11.128906 -1.265625 11.796875 -2.421875 C 12.460938 -3.585938 12.796875 -5.03125 12.796875 -6.75 C 12.796875 -8.695312 12.429688 -10.363281 11.703125 -11.75 C 10.984375 -13.132812 9.898438 -13.828125 8.453125 -13.828125 C 7.023438 -13.828125 5.945312 -13.238281 5.21875 -12.0625 C 4.5 -10.882812 4.140625 -9.4375 4.140625 -7.71875 C 4.140625 -6.488281 4.304688 -5.335938 4.640625 -4.265625 C 4.984375 -3.191406 5.492188 -2.328125 6.171875 -1.671875 C 6.859375 -1.015625 7.695312 -0.6875 8.6875 -0.6875 Z M 8.6875 -0.6875 "/></g></g></g><g fill="#ffffff" fill-opacity="1"><g transform="translate(127.887733, 354.730283)"><g><path d="M 1.015625 -0.875 C 1.578125 -0.875 1.976562 -1.007812 2.21875 -1.28125 C 2.457031 -1.5625 2.59375 -1.914062 2.625 -2.34375 C 2.664062 -2.769531 2.6875 -3.457031 2.6875 -4.40625 C 2.6875 -4.59375 2.691406 -5.640625 2.703125 -7.546875 C 2.710938 -9.460938 2.71875 -12.976562 2.71875 -18.09375 C 2.71875 -18.820312 2.75 -19.445312 2.8125 -19.96875 L 0.75 -19.84375 L 0.75 -21.0625 C 1.882812 -21.0625 2.695312 -21.128906 3.1875 -21.265625 C 3.6875 -21.398438 4.070312 -21.59375 4.34375 -21.84375 L 5.1875 -21.84375 L 5.1875 -8.15625 L 6.34375 -8.15625 L 9.875 -11.859375 C 10.601562 -12.628906 11.171875 -13.140625 11.578125 -13.390625 L 9.609375 -13.3125 L 9.609375 -14.46875 L 14.875 -14.46875 L 14.875 -13.59375 C 14.019531 -13.5 13.242188 -13.191406 12.546875 -12.671875 C 11.859375 -12.148438 11.09375 -11.445312 10.25 -10.5625 L 7.984375 -8.1875 C 8.328125 -8.03125 8.628906 -7.832031 8.890625 -7.59375 C 9.148438 -7.351562 9.445312 -7.03125 9.78125 -6.625 L 11.828125 -4 C 11.867188 -3.957031 12.085938 -3.660156 12.484375 -3.109375 C 12.878906 -2.554688 13.351562 -2.046875 13.90625 -1.578125 C 14.457031 -1.109375 14.9375 -0.875 15.34375 -0.875 L 15.34375 0 L 12.703125 0 C 12.242188 0 11.8125 -0.203125 11.40625 -0.609375 C 11 -1.015625 10.410156 -1.71875 9.640625 -2.71875 L 8.5 -4.3125 C 8.082031 -4.90625 7.6875 -5.457031 7.3125 -5.96875 C 6.9375 -6.488281 6.617188 -6.863281 6.359375 -7.09375 L 5.1875 -7.03125 L 5.1875 -3.0625 C 5.1875 -2.195312 5.144531 -1.539062 5.0625 -1.09375 L 6.921875 -1.1875 L 6.921875 0 L 1.015625 0 Z M 1.015625 -0.875 "/></g></g></g><g fill="#ffffff" fill-opacity="1"><g transform="translate(144.579828, 354.730283)"><g/></g></g><g fill="#ffffff" fill-opacity="1"><g transform="translate(153.345521, 354.730283)"><g><path d="M 1.59375 -0.953125 C 2.269531 -0.972656 2.75 -1.128906 3.03125 -1.421875 C 3.320312 -1.710938 3.488281 -2.050781 3.53125 -2.4375 C 3.570312 -2.832031 3.59375 -3.523438 3.59375 -4.515625 L 3.59375 -17.015625 C 3.59375 -17.828125 3.617188 -18.519531 3.671875 -19.09375 L 1.59375 -18.984375 L 1.59375 -20.25 L 8.109375 -20.25 L 8.109375 -19.296875 C 7.429688 -19.273438 6.945312 -19.117188 6.65625 -18.828125 C 6.363281 -18.546875 6.195312 -18.207031 6.15625 -17.8125 C 6.125 -17.414062 6.109375 -16.722656 6.109375 -15.734375 L 6.109375 -3.4375 C 6.109375 -2.414062 6.078125 -1.65625 6.015625 -1.15625 L 8.109375 -1.265625 L 8.109375 0 L 1.59375 0 Z M 1.59375 -0.953125 "/></g></g></g><g fill="#ffffff" fill-opacity="1"><g transform="translate(164.194065, 354.730283)"><g><path d="M 6.71875 0.46875 C 4.070312 0.46875 2.757812 -1.304688 2.78125 -4.859375 L 2.828125 -13.25 L 0.609375 -13.21875 L 0.609375 -14.46875 C 1.535156 -14.488281 2.320312 -14.90625 2.96875 -15.71875 C 3.613281 -16.539062 4.09375 -17.472656 4.40625 -18.515625 L 5.375 -18.515625 L 5.375 -14.46875 L 10.25 -14.46875 L 10.25 -13.34375 L 5.375 -13.28125 C 5.363281 -10.332031 5.351562 -8.285156 5.34375 -7.140625 C 5.332031 -6.003906 5.328125 -5.367188 5.328125 -5.234375 C 5.328125 -3.867188 5.488281 -2.851562 5.8125 -2.1875 C 6.144531 -1.519531 6.71875 -1.1875 7.53125 -1.1875 C 8.03125 -1.1875 8.523438 -1.335938 9.015625 -1.640625 C 9.503906 -1.953125 9.929688 -2.378906 10.296875 -2.921875 L 11.078125 -2.28125 C 10.328125 -1.164062 9.582031 -0.425781 8.84375 -0.0625 C 8.113281 0.289062 7.40625 0.46875 6.71875 0.46875 Z M 6.71875 0.46875 "/></g></g></g><g fill="#ffffff" fill-opacity="1"><g transform="translate(176.546886, 354.730283)"><g><path d="M 2.640625 4.59375 C 2.960938 4.175781 3.269531 3.582031 3.5625 2.8125 C 3.851562 2.039062 4 1.273438 4 0.515625 C 4 0.285156 3.988281 0.113281 3.96875 0 C 3.71875 0.113281 3.472656 0.171875 3.234375 0.171875 C 2.847656 0.171875 2.53125 0.0351562 2.28125 -0.234375 C 2.03125 -0.503906 1.90625 -0.84375 1.90625 -1.25 C 1.90625 -1.769531 2.054688 -2.175781 2.359375 -2.46875 C 2.671875 -2.769531 3.050781 -2.921875 3.5 -2.921875 C 4.132812 -2.921875 4.632812 -2.675781 5 -2.1875 C 5.375 -1.695312 5.5625 -1.066406 5.5625 -0.296875 C 5.5625 0.492188 5.351562 1.445312 4.9375 2.5625 C 4.519531 3.6875 4.015625 4.5625 3.421875 5.1875 Z M 2.640625 4.59375 "/></g></g></g><g fill="#ffffff" fill-opacity="1"><g transform="translate(185.023308, 354.730283)"><g/></g></g><g fill="#ffffff" fill-opacity="1"><g transform="translate(193.789001, 354.730283)"><g><path d="M 1.59375 -0.953125 C 2.269531 -0.972656 2.75 -1.128906 3.03125 -1.421875 C 3.320312 -1.710938 3.488281 -2.050781 3.53125 -2.4375 C 3.570312 -2.832031 3.59375 -3.523438 3.59375 -4.515625 L 3.59375 -17.015625 C 3.59375 -17.828125 3.617188 -18.519531 3.671875 -19.09375 L 1.59375 -18.984375 L 1.59375 -20.25 L 8.109375 -20.25 L 8.109375 -19.296875 C 7.429688 -19.273438 6.945312 -19.117188 6.65625 -18.828125 C 6.363281 -18.546875 6.195312 -18.207031 6.15625 -17.8125 C 6.125 -17.414062 6.109375 -16.722656 6.109375 -15.734375 L 6.109375 -11 L 8.28125 -11 L 11.890625 -16.703125 C 12.609375 -17.773438 13.296875 -18.582031 13.953125 -19.125 L 12.1875 -19.0625 L 12.1875 -20.25 L 18.40625 -20.25 L 18.40625 -19.296875 C 17.519531 -19.222656 16.769531 -19.078125 16.15625 -18.859375 C 15.550781 -18.648438 14.957031 -18.273438 14.375 -17.734375 C 13.800781 -17.191406 13.195312 -16.410156 12.5625 -15.390625 L 9.71875 -10.875 C 10.144531 -10.601562 10.507812 -10.304688 10.8125 -9.984375 C 11.125 -9.671875 11.398438 -9.351562 11.640625 -9.03125 C 11.890625 -8.71875 12.050781 -8.515625 12.125 -8.421875 L 15.359375 -4.109375 C 16.078125 -3.160156 16.671875 -2.460938 17.140625 -2.015625 C 17.617188 -1.578125 18.03125 -1.289062 18.375 -1.15625 C 18.71875 -1.019531 19.132812 -0.953125 19.625 -0.953125 L 19.625 0 L 16.09375 0 C 15.59375 0 14.617188 -0.941406 13.171875 -2.828125 L 9.6875 -7.53125 C 9.226562 -8.125 8.828125 -8.613281 8.484375 -9 C 8.148438 -9.382812 7.832031 -9.675781 7.53125 -9.875 L 6.109375 -9.84375 L 6.109375 -3.4375 C 6.109375 -2.414062 6.078125 -1.65625 6.015625 -1.15625 L 8.109375 -1.265625 L 8.109375 0 L 1.59375 0 Z M 1.59375 -0.953125 "/></g></g></g><g fill="#ffffff" fill-opacity="1"><g transform="translate(214.704647, 354.730283)"><g><path d="M 8.28125 0.46875 C 6.945312 0.46875 5.742188 0.15625 4.671875 -0.46875 C 3.597656 -1.101562 2.753906 -2.003906 2.140625 -3.171875 C 1.523438 -4.335938 1.21875 -5.679688 1.21875 -7.203125 C 1.21875 -8.554688 1.523438 -9.828125 2.140625 -11.015625 C 2.753906 -12.203125 3.613281 -13.148438 4.71875 -13.859375 C 5.832031 -14.578125 7.09375 -14.9375 8.5 -14.9375 C 9.601562 -14.9375 10.597656 -14.691406 11.484375 -14.203125 C 12.367188 -13.722656 13.070312 -13.003906 13.59375 -12.046875 C 14.113281 -11.097656 14.375 -9.925781 14.375 -8.53125 L 4.203125 -8.359375 C 4.179688 -6.046875 4.5625 -4.242188 5.34375 -2.953125 C 6.125 -1.660156 7.332031 -1.015625 8.96875 -1.015625 C 9.851562 -1.015625 10.765625 -1.242188 11.703125 -1.703125 C 12.640625 -2.171875 13.359375 -2.742188 13.859375 -3.421875 L 14.5625 -2.828125 C 13.820312 -1.710938 12.867188 -0.882812 11.703125 -0.34375 C 10.535156 0.195312 9.394531 0.46875 8.28125 0.46875 Z M 11.65625 -9.578125 C 11.65625 -10.734375 11.394531 -11.722656 10.875 -12.546875 C 10.351562 -13.378906 9.570312 -13.796875 8.53125 -13.796875 C 6.144531 -13.796875 4.726562 -12.390625 4.28125 -9.578125 Z M 11.65625 -9.578125 "/></g></g></g><g fill="#ffffff" fill-opacity="1"><g transform="translate(231.541393, 354.730283)"><g><path d="M 8.28125 0.46875 C 6.945312 0.46875 5.742188 0.15625 4.671875 -0.46875 C 3.597656 -1.101562 2.753906 -2.003906 2.140625 -3.171875 C 1.523438 -4.335938 1.21875 -5.679688 1.21875 -7.203125 C 1.21875 -8.554688 1.523438 -9.828125 2.140625 -11.015625 C 2.753906 -12.203125 3.613281 -13.148438 4.71875 -13.859375 C 5.832031 -14.578125 7.09375 -14.9375 8.5 -14.9375 C 9.601562 -14.9375 10.597656 -14.691406 11.484375 -14.203125 C 12.367188 -13.722656 13.070312 -13.003906 13.59375 -12.046875 C 14.113281 -11.097656 14.375 -9.925781 14.375 -8.53125 L 4.203125 -8.359375 C 4.179688 -6.046875 4.5625 -4.242188 5.34375 -2.953125 C 6.125 -1.660156 7.332031 -1.015625 8.96875 -1.015625 C 9.851562 -1.015625 10.765625 -1.242188 11.703125 -1.703125 C 12.640625 -2.171875 13.359375 -2.742188 13.859375 -3.421875 L 14.5625 -2.828125 C 13.820312 -1.710938 12.867188 -0.882812 11.703125 -0.34375 C 10.535156 0.195312 9.394531 0.46875 8.28125 0.46875 Z M 11.65625 -9.578125 C 11.65625 -10.734375 11.394531 -11.722656 10.875 -12.546875 C 10.351562 -13.378906 9.570312 -13.796875 8.53125 -13.796875 C 6.144531 -13.796875 4.726562 -12.390625 4.28125 -9.578125 Z M 11.65625 -9.578125 "/></g></g></g><g fill="#ffffff" fill-opacity="1"><g transform="translate(248.378139, 354.730283)"><g><path d="M 1.015625 6.515625 C 1.578125 6.515625 1.976562 6.375 2.21875 6.09375 C 2.457031 5.8125 2.59375 5.460938 2.625 5.046875 C 2.664062 4.628906 2.695312 3.941406 2.71875 2.984375 L 2.78125 -11 C 2.78125 -11.8125 2.816406 -12.4375 2.890625 -12.875 L 0.84375 -12.765625 L 0.84375 -13.984375 C 1.976562 -13.984375 2.753906 -14.046875 3.171875 -14.171875 C 3.597656 -14.296875 3.945312 -14.492188 4.21875 -14.765625 L 5.09375 -14.765625 C 5.164062 -13.816406 5.203125 -13.296875 5.203125 -13.203125 C 5.785156 -13.722656 6.476562 -14.140625 7.28125 -14.453125 C 8.09375 -14.773438 8.894531 -14.9375 9.6875 -14.9375 C 10.832031 -14.9375 11.882812 -14.640625 12.84375 -14.046875 C 13.8125 -13.460938 14.585938 -12.625 15.171875 -11.53125 C 15.765625 -10.4375 16.0625 -9.175781 16.0625 -7.75 C 16.0625 -6.15625 15.722656 -4.734375 15.046875 -3.484375 C 14.367188 -2.242188 13.46875 -1.273438 12.34375 -0.578125 C 11.21875 0.117188 10 0.46875 8.6875 0.46875 C 7.351562 0.46875 6.191406 0.148438 5.203125 -0.484375 L 5.203125 4.3125 C 5.203125 5.175781 5.164062 5.832031 5.09375 6.28125 L 6.921875 6.1875 L 6.921875 7.375 L 1.015625 7.375 Z M 8.625 -0.6875 C 9.53125 -0.6875 10.316406 -0.96875 10.984375 -1.53125 C 11.648438 -2.09375 12.164062 -2.875 12.53125 -3.875 C 12.894531 -4.875 13.078125 -6.015625 13.078125 -7.296875 C 13.078125 -9.023438 12.707031 -10.492188 11.96875 -11.703125 C 11.226562 -12.910156 10.125 -13.515625 8.65625 -13.515625 C 8.019531 -13.515625 7.398438 -13.359375 6.796875 -13.046875 C 6.203125 -12.742188 5.679688 -12.359375 5.234375 -11.890625 C 5.253906 -11.753906 5.265625 -11.164062 5.265625 -10.125 L 5.234375 -1.828125 C 6.222656 -1.066406 7.351562 -0.6875 8.625 -0.6875 Z M 8.625 -0.6875 "/></g></g></g><g fill="#ffffff" fill-opacity="1"><g transform="translate(266.805941, 354.730283)"><g/></g></g><g fill="#ffffff" fill-opacity="1"><g transform="translate(275.571634, 354.730283)"><g><path d="M 1.59375 -0.953125 C 2.269531 -0.972656 2.75 -1.128906 3.03125 -1.421875 C 3.320312 -1.710938 3.488281 -2.050781 3.53125 -2.4375 C 3.570312 -2.832031 3.59375 -3.523438 3.59375 -4.515625 L 3.59375 -17.015625 C 3.59375 -17.828125 3.617188 -18.519531 3.671875 -19.09375 L 1.59375 -18.984375 L 1.59375 -20.25 L 8.109375 -20.25 L 8.109375 -19.296875 C 7.429688 -19.273438 6.945312 -19.117188 6.65625 -18.828125 C 6.363281 -18.546875 6.195312 -18.207031 6.15625 -17.8125 C 6.125 -17.414062 6.109375 -16.722656 6.109375 -15.734375 L 6.109375 -3.4375 C 6.109375 -2.414062 6.078125 -1.65625 6.015625 -1.15625 L 8.109375 -1.265625 L 8.109375 0 L 1.59375 0 Z M 1.59375 -0.953125 "/></g></g></g><g fill="#ffffff" fill-opacity="1"><g transform="translate(286.420178, 354.730283)"><g><path d="M 6.71875 0.46875 C 4.070312 0.46875 2.757812 -1.304688 2.78125 -4.859375 L 2.828125 -13.25 L 0.609375 -13.21875 L 0.609375 -14.46875 C 1.535156 -14.488281 2.320312 -14.90625 2.96875 -15.71875 C 3.613281 -16.539062 4.09375 -17.472656 4.40625 -18.515625 L 5.375 -18.515625 L 5.375 -14.46875 L 10.25 -14.46875 L 10.25 -13.34375 L 5.375 -13.28125 C 5.363281 -10.332031 5.351562 -8.285156 5.34375 -7.140625 C 5.332031 -6.003906 5.328125 -5.367188 5.328125 -5.234375 C 5.328125 -3.867188 5.488281 -2.851562 5.8125 -2.1875 C 6.144531 -1.519531 6.71875 -1.1875 7.53125 -1.1875 C 8.03125 -1.1875 8.523438 -1.335938 9.015625 -1.640625 C 9.503906 -1.953125 9.929688 -2.378906 10.296875 -2.921875 L 11.078125 -2.28125 C 10.328125 -1.164062 9.582031 -0.425781 8.84375 -0.0625 C 8.113281 0.289062 7.40625 0.46875 6.71875 0.46875 Z M 6.71875 0.46875 "/></g></g></g></svg>