<svg xmlns="http://www.w3.org/2000/svg" xmlns:xlink="http://www.w3.org/1999/xlink" width="500" zoomAndPan="magnify" viewBox="0 0 375 374.999991" height="500" preserveAspectRatio="xMidYMid meet" version="1.0"><defs><clipPath id="0d2c5d8f4f"><path d="M 24.105469 16.628906 L 358.605469 16.628906 L 358.605469 351 L 24.105469 351 Z M 24.105469 16.628906 " clip-rule="nonzero"/></clipPath><clipPath id="700ad3345b"><path d="M 191.234375 16.628906 C 98.933594 16.628906 24.105469 91.453125 24.105469 183.753906 C 24.105469 276.054688 98.933594 350.882812 191.234375 350.882812 C 283.535156 350.882812 358.359375 276.054688 358.359375 183.753906 C 358.359375 91.453125 283.535156 16.628906 191.234375 16.628906 Z M 191.234375 16.628906 " clip-rule="nonzero"/></clipPath><clipPath id="3aa9ad3a6c"><path d="M 12.328125 4.847656 L 370.078125 4.847656 L 370.078125 362.597656 L 12.328125 362.597656 Z M 12.328125 4.847656 " clip-rule="nonzero"/></clipPath></defs><g clip-path="url(#0d2c5d8f4f)"><g clip-path="url(#700ad3345b)"><path stroke-linecap="butt" transform="matrix(0.75, 0, 0, 0.75, 24.107065, 16.627675)" fill="none" stroke-linejoin="miter" d="M 222.836443 0.00164222 C 99.768718 0.00164222 -0.00212801 99.76728 -0.00212801 222.835004 C -0.00212801 345.902729 99.768718 445.673575 222.836443 445.673575 C 345.904167 445.673575 445.669805 345.902729 445.669805 222.835004 C 445.669805 99.76728 345.904167 0.00164222 222.836443 0.00164222 Z M 222.836443 0.00164222 " stroke="#111827" stroke-width="18" stroke-opacity="1" stroke-miterlimit="4"/></g></g><g clip-path="url(#3aa9ad3a6c)"><path fill="#111827" d="M 128.242188 150.167969 C 110.851562 162.484375 100.625 178.53125 95.25 196.445312 C 91.816406 207.941406 90.324219 220.179688 90.324219 232.570312 C 88.085938 227.867188 86.070312 223.015625 84.503906 218.015625 C 81.070312 207.269531 79.203125 195.699219 79.203125 183.757812 C 79.203125 152.78125 91.742188 124.792969 112.042969 104.492188 C 132.347656 84.1875 160.335938 71.648438 191.3125 71.648438 C 207.136719 71.648438 222.210938 74.933594 235.796875 80.828125 C 246.617188 85.53125 256.546875 91.800781 265.277344 99.488281 C 269.609375 103.296875 270.652344 107.550781 268.339844 112.027344 C 263.785156 120.835938 255.648438 129.792969 244.007812 136.734375 C 230.945312 144.570312 213.554688 149.871094 191.832031 149.796875 L 191.757812 149.796875 C 186.609375 149.796875 182.429688 148.378906 179.292969 146.066406 C 176.53125 143.976562 174.441406 141.136719 173.097656 137.929688 C 171.679688 134.496094 170.933594 130.613281 170.933594 126.582031 C 170.933594 119.417969 173.175781 111.953125 177.578125 106.058594 C 179.21875 103.894531 178.773438 100.832031 176.609375 99.265625 C 174.441406 97.625 171.382812 98.070312 169.816406 100.234375 C 164.144531 107.847656 161.230469 117.402344 161.230469 126.582031 C 161.230469 131.882812 162.203125 137.109375 164.21875 141.734375 C 165.933594 145.839844 168.472656 149.496094 171.757812 152.410156 C 158.320312 155.992188 146.304688 163.082031 136.75 172.636719 C 123.914062 185.472656 115.476562 202.863281 114.132812 222.121094 L 114.132812 227.792969 C 114.132812 249.289062 122.867188 268.769531 136.972656 282.878906 C 151.082031 296.984375 170.5625 305.71875 192.058594 305.71875 C 225.71875 305.71875 256.171875 292.058594 278.191406 270.039062 C 300.210938 248.023438 313.867188 217.496094 313.867188 183.90625 C 313.867188 183.757812 313.867188 183.609375 313.867188 183.457031 C 313.867188 179.503906 313.792969 173.90625 313.792969 166.664062 C 313.792969 160.542969 313.792969 155.617188 313.792969 151.886719 C 313.792969 151.066406 313.792969 150.320312 313.792969 149.5 C 313.792969 146.8125 311.628906 144.648438 308.941406 144.648438 C 306.253906 144.648438 304.089844 146.8125 304.089844 149.5 L 304.089844 152.109375 C 303.71875 171.292969 298.195312 187.414062 287.519531 200.550781 C 277.59375 212.71875 263.039062 222.421875 244.082031 229.511719 C 241.394531 230.257812 238.707031 231.226562 235.871094 232.347656 C 233.484375 233.242188 232.214844 235.855469 233.035156 238.320312 C 233.855469 240.855469 236.542969 242.273438 239.15625 241.453125 L 239.453125 241.378906 C 241.992188 240.558594 244.453125 239.738281 246.84375 238.839844 C 251.023438 237.648438 254.902344 236.824219 258.488281 236.527344 C 263.933594 236.078125 268.5625 236.601562 272.292969 238.167969 C 274.757812 239.214844 277.59375 238.019531 278.640625 235.558594 C 279.683594 233.09375 278.488281 230.257812 276.027344 229.210938 C 274.308594 228.539062 272.59375 227.945312 270.726562 227.570312 C 280.503906 221.597656 288.640625 214.734375 295.132812 206.746094 C 298.417969 202.714844 301.328125 198.386719 303.792969 193.832031 C 301.480469 220.851562 289.535156 245.183594 271.398438 263.25 C 251.097656 283.550781 223.109375 296.089844 192.132812 296.089844 C 173.324219 296.089844 156.304688 288.476562 143.914062 276.160156 C 131.601562 263.84375 123.988281 246.753906 123.988281 227.945312 L 123.988281 224.359375 C 124.882812 206.96875 132.347656 191.296875 143.839844 179.726562 C 156.15625 167.410156 173.175781 159.796875 192.058594 159.796875 L 192.207031 159.796875 C 215.867188 159.871094 234.976562 153.976562 249.378906 145.394531 C 267.742188 134.421875 278.566406 118.820312 281.773438 105.085938 L 281.773438 104.9375 C 281.921875 104.265625 281.921875 103.59375 281.773438 102.996094 L 281.773438 102.847656 C 281.550781 101.953125 281.175781 101.207031 280.503906 100.535156 C 269.234375 88.519531 255.5 78.816406 240.125 72.171875 C 225.273438 65.753906 208.925781 62.171875 191.757812 62.171875 C 171.234375 62.171875 151.902344 67.246094 134.957031 76.203125 C 127.046875 80.53125 119.433594 85.679688 112.121094 91.875 C 109.878906 93.816406 107.714844 95.832031 105.625 97.921875 C 97.863281 105.609375 91.21875 114.417969 85.773438 123.972656 C 84.203125 126.882812 82.710938 129.792969 81.292969 132.628906 C 73.980469 148.230469 69.949219 165.695312 69.949219 184.054688 C 69.949219 197.042969 71.964844 209.507812 75.769531 221.300781 C 79.652344 233.46875 85.472656 244.8125 92.714844 254.964844 C 94.28125 257.128906 97.339844 257.648438 99.503906 256.082031 C 101.074219 254.964844 101.746094 253.097656 101.445312 251.304688 C 99.730469 233.46875 100.25 215.628906 105.101562 199.429688 C 109.878906 183.535156 118.984375 169.203125 134.363281 158.304688 C 136.527344 156.738281 137.046875 153.753906 135.480469 151.511719 C 133.464844 149.125 130.40625 148.675781 128.242188 150.167969 Z M 313.121094 61.945312 C 344.320312 93.144531 363.578125 136.210938 363.578125 183.832031 C 363.578125 231.453125 344.320312 274.519531 313.121094 305.71875 C 281.921875 336.917969 238.855469 356.175781 191.238281 356.175781 C 143.617188 356.175781 100.550781 336.917969 69.351562 305.71875 C 38.226562 274.445312 18.894531 231.378906 18.894531 183.757812 C 18.894531 136.136719 38.152344 93.070312 69.351562 61.871094 C 100.550781 30.746094 143.691406 11.414062 191.238281 11.414062 C 238.855469 11.414062 281.921875 30.746094 313.121094 61.945312 Z M 191.238281 4.847656 C 240.648438 4.847656 285.355469 24.851562 317.75 57.242188 C 350.144531 89.636719 370.148438 134.347656 370.148438 183.757812 C 370.148438 233.167969 350.144531 277.878906 317.75 310.269531 C 285.355469 342.664062 240.648438 362.667969 191.238281 362.667969 C 141.824219 362.667969 97.117188 342.664062 64.722656 310.269531 C 32.328125 277.953125 12.328125 233.167969 12.328125 183.757812 C 12.328125 134.347656 32.328125 89.636719 64.722656 57.242188 C 97.117188 24.851562 141.824219 4.847656 191.238281 4.847656 Z M 306.40625 68.664062 C 281.101562 43.359375 247.589844 26.417969 210.195312 22.089844 L 210.195312 17.910156 C 248.707031 22.238281 283.265625 39.703125 309.316406 65.753906 C 335.363281 91.800781 352.832031 126.359375 357.160156 164.875 L 353.054688 164.875 C 348.652344 127.480469 331.632812 93.890625 306.40625 68.664062 Z M 357.160156 202.714844 C 352.832031 241.230469 335.363281 275.789062 309.316406 301.835938 C 283.265625 327.886719 248.707031 345.351562 210.195312 349.679688 L 210.195312 345.5 C 247.589844 341.171875 281.101562 324.152344 306.40625 298.925781 C 331.707031 273.621094 348.652344 240.109375 352.980469 202.714844 Z M 172.351562 22.089844 C 134.957031 26.417969 101.445312 43.4375 76.144531 68.664062 C 50.839844 93.890625 33.898438 127.480469 29.492188 164.875 L 25.3125 164.875 C 29.644531 126.359375 47.109375 91.800781 73.15625 65.753906 C 99.207031 39.703125 133.765625 22.238281 172.277344 17.910156 L 172.277344 22.089844 Z M 29.566406 202.714844 C 33.898438 240.109375 50.914062 273.621094 76.144531 298.925781 C 101.445312 324.226562 134.957031 341.171875 172.351562 345.5 L 172.351562 349.679688 C 133.839844 345.351562 99.28125 327.886719 73.230469 301.835938 C 47.183594 275.789062 29.71875 241.230469 25.386719 202.714844 Z M 281.328125 104.640625 Z M 191.609375 159.574219 Z M 238.632812 241.230469 Z M 220.421875 267.578125 C 229.824219 264.292969 238.558594 259.515625 246.320312 253.320312 C 248.410156 251.679688 251.46875 252.050781 253.113281 254.140625 C 254.753906 256.230469 254.382812 259.292969 252.292969 260.933594 C 243.632812 267.800781 233.929688 273.101562 223.554688 276.757812 C 213.253906 280.339844 202.359375 282.207031 191.160156 282.207031 C 176.085938 282.207031 162.5 276.085938 152.648438 266.234375 C 142.796875 256.382812 136.675781 242.722656 136.675781 227.71875 C 136.675781 225.03125 138.839844 222.867188 141.527344 222.867188 C 144.214844 222.867188 146.378906 225.03125 146.378906 227.71875 C 146.378906 240.109375 151.378906 251.304688 159.515625 259.367188 C 167.574219 267.429688 178.773438 272.503906 191.160156 272.503906 C 201.386719 272.503906 211.238281 270.785156 220.421875 267.578125 Z M 244.15625 115.761719 C 239.976562 115.761719 236.617188 112.402344 236.617188 108.222656 C 236.617188 104.042969 239.976562 100.683594 244.15625 100.683594 C 248.335938 100.683594 251.695312 104.042969 251.695312 108.222656 C 251.695312 112.402344 248.335938 115.761719 244.15625 115.761719 Z M 244.15625 115.761719 " fill-opacity="1" fill-rule="evenodd"/></g></svg>