<svg xmlns="http://www.w3.org/2000/svg" xmlns:xlink="http://www.w3.org/1999/xlink" width="500" zoomAndPan="magnify" viewBox="0 0 375 374.999991" height="500" preserveAspectRatio="xMidYMid meet" version="1.0"><defs><clipPath id="8bfd756002"><path d="M 5.789062 3 L 369.539062 3 L 369.539062 372 L 5.789062 372 Z M 5.789062 3 " clip-rule="nonzero"/></clipPath><clipPath id="091d82610a"><path d="M 242.171875 17.207031 C 246.324219 18.925781 250.390625 20.855469 254.332031 22.988281 C 256.875 24.359375 259.398438 25.839844 261.851562 27.390625 L 285.546875 42.324219 L 284.773438 42.933594 C 280.683594 46.164062 275.777344 48.105469 270.566406 48.554688 C 265.382812 49.011719 260.210938 47.933594 255.613281 45.445312 C 245.390625 39.914062 240.09375 28.328125 242.171875 17.207031 Z M 284.972656 26.441406 C 291.566406 18.289062 299.640625 11.335938 309.070312 5.710938 L 301 4.449219 C 286.007812 2.109375 271.898438 4.914062 261.589844 12 C 264.054688 13.355469 266.507812 14.796875 268.882812 16.304688 Z M 324.921875 131.027344 C 326.773438 137.246094 330.617188 142.519531 335.882812 146.15625 L 336.53125 141.035156 C 338.285156 127.191406 336.769531 113.347656 332.164062 100.359375 L 327.167969 109.566406 C 323.570312 116.183594 322.773438 123.808594 324.921875 131.027344 Z M 152.957031 15.925781 C 152.683594 15.007812 152.976562 14.257812 153.171875 13.894531 C 153.371094 13.53125 153.835938 12.886719 154.753906 12.613281 C 171.363281 7.6875 189.074219 6.128906 206.332031 8.015625 C 204.671875 29.214844 194.132812 48.609375 177.234375 61.570312 C 166.242188 48.167969 157.890625 32.503906 152.957031 15.925781 Z M 182.496094 16.894531 C 182.496094 20.519531 185.445312 23.457031 189.074219 23.457031 C 192.707031 23.457031 195.648438 20.519531 195.648438 16.894531 C 195.648438 13.269531 192.707031 10.332031 189.074219 10.332031 L 189.066406 10.332031 C 185.4375 10.332031 182.496094 13.269531 182.496094 16.894531 Z M 168.710938 42.277344 C 168.710938 45.902344 171.660156 48.839844 175.289062 48.839844 C 178.921875 48.839844 181.863281 45.902344 181.863281 42.277344 C 181.863281 38.652344 178.921875 35.714844 175.289062 35.714844 L 175.28125 35.714844 C 171.652344 35.714844 168.710938 38.652344 168.710938 42.277344 Z M 218.332031 109.363281 C 215.753906 108.183594 213.230469 106.925781 210.742188 105.609375 C 210.421875 118.105469 215.773438 131.4375 225.914062 142.695312 L 231.386719 148.765625 C 230.960938 137.828125 232.386719 127.277344 235.632812 117.289062 Z M 269.175781 97.152344 C 264.554688 93.730469 258.683594 92.476562 253.066406 93.71875 C 247.453125 94.960938 242.660156 98.566406 239.921875 103.613281 L 239.398438 104.574219 L 250.832031 109.8125 C 252.777344 110.695312 254.765625 111.6875 256.886719 112.832031 C 263.015625 116.148438 268.757812 120.070312 274.039062 124.519531 L 275.644531 120.699219 C 277.371094 116.585938 277.664062 112.125 276.480469 107.804688 C 275.316406 103.5625 272.71875 99.777344 269.175781 97.152344 Z M 186.09375 71.324219 C 197.03125 82.195312 209.6875 90.964844 223.808594 97.433594 L 227.421875 99.089844 L 228.359375 97.359375 C 232.921875 88.964844 240.890625 82.96875 250.226562 80.90625 C 259.5625 78.839844 269.328125 80.921875 277.007812 86.613281 C 282.90625 90.980469 287.21875 97.277344 289.160156 104.339844 C 291.097656 111.421875 290.601562 119.027344 287.769531 125.773438 L 284.179688 134.316406 C 299.207031 150.984375 308.363281 172.316406 310.050781 194.824219 L 313.507812 241.066406 C 317.035156 240.019531 320.582031 239.34375 324.113281 238.984375 L 334.089844 160.308594 L 332.269531 159.324219 C 312.207031 148.46875 304.730469 123.339844 315.605469 103.3125 L 325.292969 85.476562 C 323.339844 82.113281 321.160156 78.851562 318.78125 75.761719 L 309.691406 63.964844 C 305.828125 58.957031 301.4375 54.386719 296.613281 50.316406 L 292.929688 53.226562 C 286.820312 58.054688 279.480469 60.960938 271.707031 61.628906 C 270.550781 61.730469 269.394531 61.78125 268.238281 61.78125 C 261.664062 61.78125 255.195312 60.144531 249.347656 56.980469 C 233.445312 48.378906 225.519531 29.96875 229.6875 12.757812 C 226.28125 11.734375 222.832031 10.855469 219.351562 10.113281 C 217.167969 34.253906 205.179688 56.320312 186.09375 71.324219 Z M 317.253906 253.648438 C 296.25 259.898438 283.378906 280.488281 286.167969 301.519531 C 299.324219 295.957031 310.128906 286.179688 317.023438 273.445312 L 317.855469 271.90625 C 318.6875 270.375 320.089844 269.234375 321.761719 268.738281 C 323.433594 268.242188 325.234375 268.429688 326.765625 269.253906 L 328.308594 270.089844 C 341.0625 276.972656 355.46875 279.246094 369.527344 276.707031 C 360.320312 257.585938 338.253906 247.398438 317.253906 253.648438 Z M 90.441406 348.304688 C 83.847656 356.457031 75.773438 363.414062 66.34375 369.039062 L 74.414062 370.300781 C 89.40625 372.640625 103.515625 369.832031 113.824219 362.746094 C 111.359375 361.390625 108.90625 359.949219 106.53125 358.445312 Z M 50.492188 243.71875 C 48.640625 237.5 44.796875 232.230469 39.53125 228.59375 L 38.882812 233.714844 C 37.128906 247.554688 38.644531 261.398438 43.25 274.386719 L 48.246094 265.179688 C 51.84375 258.5625 52.636719 250.9375 50.492188 243.71875 Z M 58.160156 121.097656 C 79.164062 114.847656 92.035156 94.257812 89.246094 73.226562 C 76.089844 78.789062 65.285156 88.566406 58.390625 101.300781 L 57.554688 102.839844 C 56.726562 104.371094 55.324219 105.511719 53.652344 106.007812 C 51.980469 106.503906 50.179688 106.320312 48.648438 105.492188 L 47.105469 104.65625 C 34.347656 97.773438 19.945312 95.5 5.886719 98.039062 C 15.09375 117.160156 37.160156 127.347656 58.160156 121.097656 Z M 119.800781 329.300781 C 115.203125 326.8125 110.03125 325.738281 104.84375 326.191406 C 99.636719 326.640625 94.726562 328.585938 90.640625 331.8125 L 89.867188 332.421875 L 113.5625 347.355469 C 116.011719 348.910156 118.539062 350.386719 121.082031 351.757812 C 125.019531 353.890625 129.09375 355.824219 133.242188 357.542969 C 135.320312 346.417969 130.023438 334.832031 119.800781 329.300781 Z M 157.082031 265.382812 C 159.65625 266.5625 162.183594 267.820312 164.671875 269.136719 C 164.992188 256.644531 159.640625 243.308594 149.5 232.050781 L 144.027344 225.980469 C 144.453125 236.917969 143.023438 247.46875 139.78125 257.457031 Z M 189.316406 303.425781 C 178.382812 292.554688 165.726562 283.78125 151.601562 277.3125 L 147.992188 275.660156 L 147.050781 277.386719 C 142.492188 285.78125 134.523438 291.78125 125.1875 293.84375 C 122.824219 294.363281 120.433594 294.621094 118.054688 294.621094 C 111.039062 294.621094 104.140625 292.382812 98.402344 288.132812 C 92.507812 283.765625 88.191406 277.46875 86.25 270.40625 C 84.316406 263.328125 84.8125 255.71875 87.644531 248.972656 L 91.234375 240.429688 C 76.207031 223.761719 67.050781 202.433594 65.359375 179.925781 L 61.902344 133.679688 C 58.378906 134.726562 54.832031 135.414062 51.300781 135.769531 L 41.324219 214.4375 L 43.140625 215.421875 C 63.207031 226.277344 70.683594 251.40625 59.804688 271.433594 L 50.117188 289.269531 C 52.070312 292.636719 54.25 295.894531 56.632812 298.984375 L 65.722656 310.78125 C 69.585938 315.789062 73.976562 320.359375 78.800781 324.429688 L 82.480469 321.523438 C 88.59375 316.695312 95.929688 313.789062 103.703125 313.117188 C 111.460938 312.441406 119.195312 314.046875 126.066406 317.765625 C 141.964844 326.371094 149.890625 344.777344 145.722656 361.988281 C 149.128906 363.011719 152.582031 363.890625 156.0625 364.636719 C 158.246094 340.496094 170.234375 318.425781 189.316406 303.425781 Z M 222.457031 358.820312 C 222.730469 359.738281 222.4375 360.488281 222.242188 360.851562 C 222.042969 361.214844 221.578125 361.863281 220.660156 362.132812 C 204.050781 367.058594 186.339844 368.617188 169.082031 366.734375 C 170.742188 345.53125 181.277344 326.136719 198.179688 313.175781 C 209.171875 326.582031 217.523438 342.246094 222.457031 358.820312 Z M 192.945312 357.851562 C 192.945312 354.230469 190 351.289062 186.371094 351.289062 L 186.363281 351.289062 C 182.730469 351.289062 179.792969 354.230469 179.792969 357.851562 C 179.792969 361.476562 182.738281 364.414062 186.371094 364.414062 C 190.003906 364.414062 192.945312 361.476562 192.945312 357.851562 Z M 206.730469 332.46875 C 206.730469 328.847656 203.785156 325.90625 200.15625 325.90625 L 200.148438 325.90625 C 196.515625 325.90625 193.578125 328.847656 193.578125 332.46875 C 193.578125 336.09375 196.523438 339.03125 200.15625 339.03125 C 203.789062 339.03125 206.730469 336.09375 206.730469 332.46875 Z M 118.527344 261.917969 C 112.398438 258.597656 106.65625 254.679688 101.375 250.230469 L 99.769531 254.046875 C 98.042969 258.164062 97.753906 262.621094 98.933594 266.945312 C 100.097656 271.183594 102.691406 274.96875 106.238281 277.597656 C 110.859375 281.019531 116.730469 282.269531 122.347656 281.03125 C 127.960938 279.789062 132.753906 276.183594 135.492188 271.136719 L 136.015625 270.171875 L 124.582031 264.9375 C 122.636719 264.050781 120.648438 263.058594 118.527344 261.917969 Z M 279.742188 180.8125 C 276.109375 180.8125 273.167969 183.75 273.167969 187.375 C 273.167969 208.03125 265.675781 227.957031 252.074219 243.488281 C 238.597656 258.878906 220.078125 268.9375 199.925781 271.8125 C 196.328125 272.328125 193.832031 275.652344 194.347656 279.238281 C 194.816406 282.511719 197.628906 284.871094 200.847656 284.871094 C 201.15625 284.871094 201.46875 284.851562 201.785156 284.804688 C 225.050781 281.484375 246.425781 269.878906 261.972656 252.128906 C 277.667969 234.203125 286.3125 211.207031 286.3125 187.375 C 286.3125 183.75 283.371094 180.8125 279.742188 180.8125 Z M 95.671875 193.933594 C 99.304688 193.933594 102.246094 190.996094 102.246094 187.375 C 102.246094 166.71875 109.738281 146.789062 123.339844 131.257812 C 136.816406 115.871094 155.335938 105.8125 175.488281 102.933594 C 179.082031 102.421875 181.578125 99.09375 181.066406 95.507812 C 180.550781 91.921875 177.21875 89.421875 173.628906 89.941406 C 150.363281 93.265625 128.988281 104.867188 113.441406 122.621094 C 97.746094 140.542969 89.097656 163.539062 89.097656 187.375 C 89.097656 190.996094 92.042969 193.933594 95.671875 193.933594 Z M 95.671875 193.933594 " clip-rule="nonzero"/></clipPath><linearGradient x1="32.466491" gradientTransform="matrix(0.821729, 0, 0, 0.820235, -22.655679, -22.606599)" y1="479.5335" x2="479.568005" gradientUnits="userSpaceOnUse" y2="32.431986" id="4725ad70b9"><stop stop-opacity="1" stop-color="rgb(36.898804%, 73.699951%, 89.7995%)" offset="0"/><stop stop-opacity="1" stop-color="rgb(36.898804%, 73.699951%, 89.7995%)" offset="0.0625"/><stop stop-opacity="1" stop-color="rgb(36.898804%, 73.699951%, 89.7995%)" offset="0.078125"/><stop stop-opacity="1" stop-color="rgb(36.898804%, 73.699951%, 89.7995%)" offset="0.0859375"/><stop stop-opacity="1" stop-color="rgb(37.174988%, 73.486328%, 89.802551%)" offset="0.0898437"/><stop stop-opacity="1" stop-color="rgb(37.451172%, 73.272705%, 89.805603%)" offset="0.09375"/><stop stop-opacity="1" stop-color="rgb(37.776184%, 73.022461%, 89.808655%)" offset="0.0976562"/><stop stop-opacity="1" stop-color="rgb(38.101196%, 72.772217%, 89.813232%)" offset="0.101562"/><stop stop-opacity="1" stop-color="rgb(38.426208%, 72.520447%, 89.816284%)" offset="0.105469"/><stop stop-opacity="1" stop-color="rgb(38.752747%, 72.270203%, 89.820862%)" offset="0.109375"/><stop stop-opacity="1" stop-color="rgb(39.077759%, 72.019958%, 89.823914%)" offset="0.113281"/><stop stop-opacity="1" stop-color="rgb(39.402771%, 71.769714%, 89.828491%)" offset="0.117188"/><stop stop-opacity="1" stop-color="rgb(39.727783%, 71.517944%, 89.831543%)" offset="0.121094"/><stop stop-opacity="1" stop-color="rgb(40.052795%, 71.2677%, 89.836121%)" offset="0.125"/><stop stop-opacity="1" stop-color="rgb(40.377808%, 71.017456%, 89.839172%)" offset="0.128906"/><stop stop-opacity="1" stop-color="rgb(40.70282%, 70.767212%, 89.84375%)" offset="0.132812"/><stop stop-opacity="1" stop-color="rgb(41.027832%, 70.515442%, 89.846802%)" offset="0.136719"/><stop stop-opacity="1" stop-color="rgb(41.352844%, 70.265198%, 89.851379%)" offset="0.140625"/><stop stop-opacity="1" stop-color="rgb(41.677856%, 70.013428%, 89.854431%)" offset="0.144531"/><stop stop-opacity="1" stop-color="rgb(42.002869%, 69.763184%, 89.859009%)" offset="0.148438"/><stop stop-opacity="1" stop-color="rgb(42.327881%, 69.512939%, 89.862061%)" offset="0.152344"/><stop stop-opacity="1" stop-color="rgb(42.654419%, 69.262695%, 89.866638%)" offset="0.15625"/><stop stop-opacity="1" stop-color="rgb(42.979431%, 69.010925%, 89.86969%)" offset="0.160156"/><stop stop-opacity="1" stop-color="rgb(43.304443%, 68.760681%, 89.872742%)" offset="0.164062"/><stop stop-opacity="1" stop-color="rgb(43.629456%, 68.510437%, 89.875793%)" offset="0.167969"/><stop stop-opacity="1" stop-color="rgb(43.954468%, 68.260193%, 89.880371%)" offset="0.171875"/><stop stop-opacity="1" stop-color="rgb(44.27948%, 68.008423%, 89.883423%)" offset="0.175781"/><stop stop-opacity="1" stop-color="rgb(44.604492%, 67.758179%, 89.888%)" offset="0.179687"/><stop stop-opacity="1" stop-color="rgb(44.929504%, 67.507935%, 89.891052%)" offset="0.183594"/><stop stop-opacity="1" stop-color="rgb(45.254517%, 67.25769%, 89.89563%)" offset="0.1875"/><stop stop-opacity="1" stop-color="rgb(45.579529%, 67.00592%, 89.898682%)" offset="0.191406"/><stop stop-opacity="1" stop-color="rgb(45.904541%, 66.755676%, 89.903259%)" offset="0.195312"/><stop stop-opacity="1" stop-color="rgb(46.229553%, 66.503906%, 89.906311%)" offset="0.199219"/><stop stop-opacity="1" stop-color="rgb(46.554565%, 66.253662%, 89.910889%)" offset="0.203125"/><stop stop-opacity="1" stop-color="rgb(46.879578%, 66.003418%, 89.91394%)" offset="0.207031"/><stop stop-opacity="1" stop-color="rgb(47.206116%, 65.753174%, 89.918518%)" offset="0.210937"/><stop stop-opacity="1" stop-color="rgb(47.531128%, 65.501404%, 89.92157%)" offset="0.214844"/><stop stop-opacity="1" stop-color="rgb(47.85614%, 65.25116%, 89.926147%)" offset="0.21875"/><stop stop-opacity="1" stop-color="rgb(48.181152%, 65.000916%, 89.929199%)" offset="0.222656"/><stop stop-opacity="1" stop-color="rgb(48.506165%, 64.750671%, 89.933777%)" offset="0.226562"/><stop stop-opacity="1" stop-color="rgb(48.831177%, 64.498901%, 89.936829%)" offset="0.230469"/><stop stop-opacity="1" stop-color="rgb(49.156189%, 64.248657%, 89.941406%)" offset="0.234375"/><stop stop-opacity="1" stop-color="rgb(49.481201%, 63.998413%, 89.944458%)" offset="0.238281"/><stop stop-opacity="1" stop-color="rgb(49.806213%, 63.748169%, 89.949036%)" offset="0.242187"/><stop stop-opacity="1" stop-color="rgb(50.131226%, 63.496399%, 89.952087%)" offset="0.246094"/><stop stop-opacity="1" stop-color="rgb(50.456238%, 63.246155%, 89.956665%)" offset="0.25"/><stop stop-opacity="1" stop-color="rgb(50.78125%, 62.994385%, 89.959717%)" offset="0.253906"/><stop stop-opacity="1" stop-color="rgb(51.107788%, 62.744141%, 89.964294%)" offset="0.257812"/><stop stop-opacity="1" stop-color="rgb(51.4328%, 62.493896%, 89.967346%)" offset="0.261719"/><stop stop-opacity="1" stop-color="rgb(51.757812%, 62.243652%, 89.971924%)" offset="0.265625"/><stop stop-opacity="1" stop-color="rgb(52.082825%, 61.991882%, 89.974976%)" offset="0.269531"/><stop stop-opacity="1" stop-color="rgb(52.407837%, 61.741638%, 89.979553%)" offset="0.273438"/><stop stop-opacity="1" stop-color="rgb(52.732849%, 61.491394%, 89.982605%)" offset="0.277344"/><stop stop-opacity="1" stop-color="rgb(53.057861%, 61.24115%, 89.987183%)" offset="0.28125"/><stop stop-opacity="1" stop-color="rgb(53.382874%, 60.98938%, 89.990234%)" offset="0.285156"/><stop stop-opacity="1" stop-color="rgb(53.707886%, 60.739136%, 89.994812%)" offset="0.289062"/><stop stop-opacity="1" stop-color="rgb(54.032898%, 60.488892%, 89.997864%)" offset="0.292969"/><stop stop-opacity="1" stop-color="rgb(54.35791%, 60.238647%, 90.000916%)" offset="0.296875"/><stop stop-opacity="1" stop-color="rgb(54.682922%, 59.986877%, 90.003967%)" offset="0.300781"/><stop stop-opacity="1" stop-color="rgb(55.007935%, 59.736633%, 90.008545%)" offset="0.304688"/><stop stop-opacity="1" stop-color="rgb(55.332947%, 59.484863%, 90.011597%)" offset="0.308594"/><stop stop-opacity="1" stop-color="rgb(55.659485%, 59.234619%, 90.016174%)" offset="0.3125"/><stop stop-opacity="1" stop-color="rgb(55.984497%, 58.984375%, 90.019226%)" offset="0.316406"/><stop stop-opacity="1" stop-color="rgb(56.309509%, 58.734131%, 90.023804%)" offset="0.320312"/><stop stop-opacity="1" stop-color="rgb(56.634521%, 58.482361%, 90.026855%)" offset="0.324219"/><stop stop-opacity="1" stop-color="rgb(56.959534%, 58.232117%, 90.031433%)" offset="0.328125"/><stop stop-opacity="1" stop-color="rgb(57.284546%, 57.981873%, 90.034485%)" offset="0.332031"/><stop stop-opacity="1" stop-color="rgb(57.609558%, 57.731628%, 90.039062%)" offset="0.335937"/><stop stop-opacity="1" stop-color="rgb(57.93457%, 57.479858%, 90.042114%)" offset="0.339844"/><stop stop-opacity="1" stop-color="rgb(58.259583%, 57.229614%, 90.046692%)" offset="0.34375"/><stop stop-opacity="1" stop-color="rgb(58.584595%, 56.97937%, 90.049744%)" offset="0.347656"/><stop stop-opacity="1" stop-color="rgb(58.909607%, 56.729126%, 90.054321%)" offset="0.351562"/><stop stop-opacity="1" stop-color="rgb(59.234619%, 56.477356%, 90.057373%)" offset="0.355469"/><stop stop-opacity="1" stop-color="rgb(59.559631%, 56.227112%, 90.061951%)" offset="0.359375"/><stop stop-opacity="1" stop-color="rgb(59.884644%, 55.975342%, 90.065002%)" offset="0.363281"/><stop stop-opacity="1" stop-color="rgb(60.211182%, 55.725098%, 90.06958%)" offset="0.367187"/><stop stop-opacity="1" stop-color="rgb(60.536194%, 55.474854%, 90.072632%)" offset="0.371094"/><stop stop-opacity="1" stop-color="rgb(60.861206%, 55.224609%, 90.077209%)" offset="0.375"/><stop stop-opacity="1" stop-color="rgb(61.186218%, 54.972839%, 90.080261%)" offset="0.378906"/><stop stop-opacity="1" stop-color="rgb(61.51123%, 54.722595%, 90.084839%)" offset="0.382812"/><stop stop-opacity="1" stop-color="rgb(61.836243%, 54.472351%, 90.087891%)" offset="0.386719"/><stop stop-opacity="1" stop-color="rgb(62.161255%, 54.222107%, 90.092468%)" offset="0.390625"/><stop stop-opacity="1" stop-color="rgb(62.486267%, 53.970337%, 90.09552%)" offset="0.394531"/><stop stop-opacity="1" stop-color="rgb(62.811279%, 53.720093%, 90.100098%)" offset="0.398438"/><stop stop-opacity="1" stop-color="rgb(63.136292%, 53.469849%, 90.103149%)" offset="0.402344"/><stop stop-opacity="1" stop-color="rgb(63.461304%, 53.219604%, 90.107727%)" offset="0.40625"/><stop stop-opacity="1" stop-color="rgb(63.786316%, 52.967834%, 90.110779%)" offset="0.410156"/><stop stop-opacity="1" stop-color="rgb(64.112854%, 52.71759%, 90.115356%)" offset="0.414062"/><stop stop-opacity="1" stop-color="rgb(64.437866%, 52.46582%, 90.118408%)" offset="0.417969"/><stop stop-opacity="1" stop-color="rgb(64.762878%, 52.215576%, 90.122986%)" offset="0.421875"/><stop stop-opacity="1" stop-color="rgb(65.087891%, 51.965332%, 90.126038%)" offset="0.425781"/><stop stop-opacity="1" stop-color="rgb(65.412903%, 51.715088%, 90.129089%)" offset="0.429688"/><stop stop-opacity="1" stop-color="rgb(65.737915%, 51.463318%, 90.132141%)" offset="0.433594"/><stop stop-opacity="1" stop-color="rgb(66.062927%, 51.213074%, 90.136719%)" offset="0.4375"/><stop stop-opacity="1" stop-color="rgb(66.387939%, 50.96283%, 90.139771%)" offset="0.441406"/><stop stop-opacity="1" stop-color="rgb(66.712952%, 50.712585%, 90.144348%)" offset="0.445312"/><stop stop-opacity="1" stop-color="rgb(67.037964%, 50.460815%, 90.1474%)" offset="0.449219"/><stop stop-opacity="1" stop-color="rgb(67.362976%, 50.210571%, 90.151978%)" offset="0.453125"/><stop stop-opacity="1" stop-color="rgb(67.687988%, 49.960327%, 90.155029%)" offset="0.457031"/><stop stop-opacity="1" stop-color="rgb(68.013%, 49.710083%, 90.159607%)" offset="0.460937"/><stop stop-opacity="1" stop-color="rgb(68.338013%, 49.458313%, 90.162659%)" offset="0.464844"/><stop stop-opacity="1" stop-color="rgb(68.664551%, 49.208069%, 90.167236%)" offset="0.46875"/><stop stop-opacity="1" stop-color="rgb(68.989563%, 48.956299%, 90.170288%)" offset="0.472656"/><stop stop-opacity="1" stop-color="rgb(69.314575%, 48.706055%, 90.174866%)" offset="0.476562"/><stop stop-opacity="1" stop-color="rgb(69.639587%, 48.455811%, 90.177917%)" offset="0.480469"/><stop stop-opacity="1" stop-color="rgb(69.9646%, 48.205566%, 90.182495%)" offset="0.484375"/><stop stop-opacity="1" stop-color="rgb(70.289612%, 47.953796%, 90.185547%)" offset="0.488281"/><stop stop-opacity="1" stop-color="rgb(70.614624%, 47.703552%, 90.190125%)" offset="0.492187"/><stop stop-opacity="1" stop-color="rgb(70.939636%, 47.453308%, 90.193176%)" offset="0.496094"/><stop stop-opacity="1" stop-color="rgb(71.264648%, 47.203064%, 90.197754%)" offset="0.5"/><stop stop-opacity="1" stop-color="rgb(71.466064%, 47.062683%, 89.79187%)" offset="0.503906"/><stop stop-opacity="1" stop-color="rgb(71.66748%, 46.922302%, 89.385986%)" offset="0.507812"/><stop stop-opacity="1" stop-color="rgb(71.835327%, 46.809387%, 88.873291%)" offset="0.511719"/><stop stop-opacity="1" stop-color="rgb(72.0047%, 46.697998%, 88.362122%)" offset="0.515625"/><stop stop-opacity="1" stop-color="rgb(72.172546%, 46.585083%, 87.849426%)" offset="0.519531"/><stop stop-opacity="1" stop-color="rgb(72.341919%, 46.473694%, 87.336731%)" offset="0.523438"/><stop stop-opacity="1" stop-color="rgb(72.511292%, 46.362305%, 86.824036%)" offset="0.527344"/><stop stop-opacity="1" stop-color="rgb(72.680664%, 46.250916%, 86.31134%)" offset="0.53125"/><stop stop-opacity="1" stop-color="rgb(72.848511%, 46.138%, 85.798645%)" offset="0.535156"/><stop stop-opacity="1" stop-color="rgb(73.017883%, 46.026611%, 85.287476%)" offset="0.539062"/><stop stop-opacity="1" stop-color="rgb(73.18573%, 45.913696%, 84.77478%)" offset="0.542969"/><stop stop-opacity="1" stop-color="rgb(73.355103%, 45.802307%, 84.262085%)" offset="0.546875"/><stop stop-opacity="1" stop-color="rgb(73.522949%, 45.690918%, 83.74939%)" offset="0.550781"/><stop stop-opacity="1" stop-color="rgb(73.692322%, 45.579529%, 83.23822%)" offset="0.554687"/><stop stop-opacity="1" stop-color="rgb(73.861694%, 45.466614%, 82.725525%)" offset="0.558594"/><stop stop-opacity="1" stop-color="rgb(74.031067%, 45.355225%, 82.21283%)" offset="0.5625"/><stop stop-opacity="1" stop-color="rgb(74.198914%, 45.24231%, 81.700134%)" offset="0.566406"/><stop stop-opacity="1" stop-color="rgb(74.368286%, 45.13092%, 81.188965%)" offset="0.570312"/><stop stop-opacity="1" stop-color="rgb(74.536133%, 45.019531%, 80.67627%)" offset="0.574219"/><stop stop-opacity="1" stop-color="rgb(74.705505%, 44.908142%, 80.163574%)" offset="0.578125"/><stop stop-opacity="1" stop-color="rgb(74.874878%, 44.795227%, 79.650879%)" offset="0.582031"/><stop stop-opacity="1" stop-color="rgb(75.04425%, 44.683838%, 79.139709%)" offset="0.585937"/><stop stop-opacity="1" stop-color="rgb(75.212097%, 44.570923%, 78.627014%)" offset="0.589844"/><stop stop-opacity="1" stop-color="rgb(75.38147%, 44.459534%, 78.114319%)" offset="0.59375"/><stop stop-opacity="1" stop-color="rgb(75.549316%, 44.348145%, 77.601624%)" offset="0.597656"/><stop stop-opacity="1" stop-color="rgb(75.718689%, 44.236755%, 77.090454%)" offset="0.601562"/><stop stop-opacity="1" stop-color="rgb(75.886536%, 44.12384%, 76.577759%)" offset="0.605469"/><stop stop-opacity="1" stop-color="rgb(76.055908%, 44.012451%, 76.065063%)" offset="0.609375"/><stop stop-opacity="1" stop-color="rgb(76.225281%, 43.899536%, 75.552368%)" offset="0.613281"/><stop stop-opacity="1" stop-color="rgb(76.394653%, 43.788147%, 75.039673%)" offset="0.617187"/><stop stop-opacity="1" stop-color="rgb(76.5625%, 43.676758%, 74.526978%)" offset="0.621094"/><stop stop-opacity="1" stop-color="rgb(76.731873%, 43.565369%, 74.015808%)" offset="0.625"/><stop stop-opacity="1" stop-color="rgb(76.899719%, 43.452454%, 73.503113%)" offset="0.628906"/><stop stop-opacity="1" stop-color="rgb(77.069092%, 43.341064%, 72.990417%)" offset="0.632812"/><stop stop-opacity="1" stop-color="rgb(77.236938%, 43.228149%, 72.477722%)" offset="0.636719"/><stop stop-opacity="1" stop-color="rgb(77.406311%, 43.11676%, 71.966553%)" offset="0.640625"/><stop stop-opacity="1" stop-color="rgb(77.575684%, 43.005371%, 71.453857%)" offset="0.644531"/><stop stop-opacity="1" stop-color="rgb(77.745056%, 42.893982%, 70.941162%)" offset="0.648437"/><stop stop-opacity="1" stop-color="rgb(77.912903%, 42.781067%, 70.428467%)" offset="0.652344"/><stop stop-opacity="1" stop-color="rgb(78.082275%, 42.669678%, 69.917297%)" offset="0.65625"/><stop stop-opacity="1" stop-color="rgb(78.250122%, 42.556763%, 69.404602%)" offset="0.660156"/><stop stop-opacity="1" stop-color="rgb(78.419495%, 42.445374%, 68.891907%)" offset="0.664062"/><stop stop-opacity="1" stop-color="rgb(78.588867%, 42.333984%, 68.379211%)" offset="0.667969"/><stop stop-opacity="1" stop-color="rgb(78.75824%, 42.222595%, 67.868042%)" offset="0.671875"/><stop stop-opacity="1" stop-color="rgb(78.926086%, 42.10968%, 67.355347%)" offset="0.675781"/><stop stop-opacity="1" stop-color="rgb(79.095459%, 41.998291%, 66.842651%)" offset="0.679687"/><stop stop-opacity="1" stop-color="rgb(79.263306%, 41.885376%, 66.329956%)" offset="0.683594"/><stop stop-opacity="1" stop-color="rgb(79.432678%, 41.773987%, 65.818787%)" offset="0.6875"/><stop stop-opacity="1" stop-color="rgb(79.600525%, 41.662598%, 65.306091%)" offset="0.691406"/><stop stop-opacity="1" stop-color="rgb(79.769897%, 41.551208%, 64.793396%)" offset="0.695312"/><stop stop-opacity="1" stop-color="rgb(79.93927%, 41.438293%, 64.280701%)" offset="0.699219"/><stop stop-opacity="1" stop-color="rgb(80.108643%, 41.326904%, 63.769531%)" offset="0.703125"/><stop stop-opacity="1" stop-color="rgb(80.276489%, 41.213989%, 63.256836%)" offset="0.707031"/><stop stop-opacity="1" stop-color="rgb(80.445862%, 41.1026%, 62.744141%)" offset="0.710937"/><stop stop-opacity="1" stop-color="rgb(80.613708%, 40.991211%, 62.231445%)" offset="0.714844"/><stop stop-opacity="1" stop-color="rgb(80.783081%, 40.879822%, 61.71875%)" offset="0.71875"/><stop stop-opacity="1" stop-color="rgb(80.950928%, 40.766907%, 61.206055%)" offset="0.722656"/><stop stop-opacity="1" stop-color="rgb(81.1203%, 40.655518%, 60.694885%)" offset="0.726562"/><stop stop-opacity="1" stop-color="rgb(81.289673%, 40.542603%, 60.18219%)" offset="0.730469"/><stop stop-opacity="1" stop-color="rgb(81.459045%, 40.431213%, 59.669495%)" offset="0.734375"/><stop stop-opacity="1" stop-color="rgb(81.626892%, 40.319824%, 59.156799%)" offset="0.738281"/><stop stop-opacity="1" stop-color="rgb(81.796265%, 40.208435%, 58.64563%)" offset="0.742188"/><stop stop-opacity="1" stop-color="rgb(81.964111%, 40.09552%, 58.132935%)" offset="0.746094"/><stop stop-opacity="1" stop-color="rgb(82.133484%, 39.984131%, 57.620239%)" offset="0.75"/><stop stop-opacity="1" stop-color="rgb(82.302856%, 39.871216%, 57.107544%)" offset="0.753906"/><stop stop-opacity="1" stop-color="rgb(82.472229%, 39.759827%, 56.596375%)" offset="0.757812"/><stop stop-opacity="1" stop-color="rgb(82.640076%, 39.648438%, 56.083679%)" offset="0.761719"/><stop stop-opacity="1" stop-color="rgb(82.809448%, 39.537048%, 55.570984%)" offset="0.765625"/><stop stop-opacity="1" stop-color="rgb(82.977295%, 39.424133%, 55.058289%)" offset="0.769531"/><stop stop-opacity="1" stop-color="rgb(83.146667%, 39.312744%, 54.547119%)" offset="0.773438"/><stop stop-opacity="1" stop-color="rgb(83.314514%, 39.201355%, 54.034424%)" offset="0.777344"/><stop stop-opacity="1" stop-color="rgb(83.483887%, 39.089966%, 53.521729%)" offset="0.78125"/><stop stop-opacity="1" stop-color="rgb(83.653259%, 38.977051%, 53.009033%)" offset="0.785156"/><stop stop-opacity="1" stop-color="rgb(83.822632%, 38.865662%, 52.497864%)" offset="0.789063"/><stop stop-opacity="1" stop-color="rgb(83.990479%, 38.752747%, 51.985168%)" offset="0.792969"/><stop stop-opacity="1" stop-color="rgb(84.159851%, 38.641357%, 51.472473%)" offset="0.796875"/><stop stop-opacity="1" stop-color="rgb(84.327698%, 38.529968%, 50.959778%)" offset="0.800781"/><stop stop-opacity="1" stop-color="rgb(84.49707%, 38.418579%, 50.447083%)" offset="0.804688"/><stop stop-opacity="1" stop-color="rgb(84.664917%, 38.305664%, 49.934387%)" offset="0.808594"/><stop stop-opacity="1" stop-color="rgb(84.83429%, 38.194275%, 49.423218%)" offset="0.8125"/><stop stop-opacity="1" stop-color="rgb(85.003662%, 38.08136%, 48.910522%)" offset="0.816406"/><stop stop-opacity="1" stop-color="rgb(85.173035%, 37.969971%, 48.397827%)" offset="0.820313"/><stop stop-opacity="1" stop-color="rgb(85.340881%, 37.858582%, 47.885132%)" offset="0.824219"/><stop stop-opacity="1" stop-color="rgb(85.510254%, 37.747192%, 47.373962%)" offset="0.828125"/><stop stop-opacity="1" stop-color="rgb(85.678101%, 37.634277%, 46.861267%)" offset="0.832031"/><stop stop-opacity="1" stop-color="rgb(85.847473%, 37.522888%, 46.348572%)" offset="0.835938"/><stop stop-opacity="1" stop-color="rgb(86.016846%, 37.409973%, 45.835876%)" offset="0.839844"/><stop stop-opacity="1" stop-color="rgb(86.186218%, 37.298584%, 45.324707%)" offset="0.84375"/><stop stop-opacity="1" stop-color="rgb(86.354065%, 37.187195%, 44.812012%)" offset="0.847656"/><stop stop-opacity="1" stop-color="rgb(86.523438%, 37.075806%, 44.299316%)" offset="0.851563"/><stop stop-opacity="1" stop-color="rgb(86.691284%, 36.962891%, 43.786621%)" offset="0.855469"/><stop stop-opacity="1" stop-color="rgb(86.860657%, 36.851501%, 43.275452%)" offset="0.859375"/><stop stop-opacity="1" stop-color="rgb(87.028503%, 36.738586%, 42.762756%)" offset="0.863281"/><stop stop-opacity="1" stop-color="rgb(87.197876%, 36.627197%, 42.250061%)" offset="0.867188"/><stop stop-opacity="1" stop-color="rgb(87.367249%, 36.515808%, 41.737366%)" offset="0.871094"/><stop stop-opacity="1" stop-color="rgb(87.536621%, 36.404419%, 41.226196%)" offset="0.875"/><stop stop-opacity="1" stop-color="rgb(87.704468%, 36.291504%, 40.713501%)" offset="0.878906"/><stop stop-opacity="1" stop-color="rgb(87.87384%, 36.180115%, 40.200806%)" offset="0.882813"/><stop stop-opacity="1" stop-color="rgb(88.041687%, 36.0672%, 39.68811%)" offset="0.886719"/><stop stop-opacity="1" stop-color="rgb(88.21106%, 35.955811%, 39.176941%)" offset="0.890625"/><stop stop-opacity="1" stop-color="rgb(88.380432%, 35.844421%, 38.664246%)" offset="0.894531"/><stop stop-opacity="1" stop-color="rgb(88.549805%, 35.733032%, 38.15155%)" offset="0.898438"/><stop stop-opacity="1" stop-color="rgb(88.574219%, 35.716248%, 38.075256%)" offset="0.90625"/><stop stop-opacity="1" stop-color="rgb(88.598633%, 35.699463%, 37.998962%)" offset="0.9375"/><stop stop-opacity="1" stop-color="rgb(88.598633%, 35.699463%, 37.998962%)" offset="1"/></linearGradient></defs><rect x="-37.5" width="450" fill="#ffffff" y="-37.499999" height="449.999989" fill-opacity="1"/><rect x="-37.5" width="450" fill="#545454" y="-37.499999" height="449.999989" fill-opacity="1"/><g clip-path="url(#8bfd756002)"><g clip-path="url(#091d82610a)"><path fill="url(#4725ad70b9)" d="M 5.886719 2.109375 L 5.886719 372.582031 L 369.527344 372.582031 L 369.527344 2.109375 Z M 5.886719 2.109375 " fill-rule="nonzero"/></g></g></svg>