<svg xmlns="http://www.w3.org/2000/svg" xmlns:xlink="http://www.w3.org/1999/xlink" width="500" zoomAndPan="magnify" viewBox="0 0 375 374.999991" height="500" preserveAspectRatio="xMidYMid meet" version="1.0"><defs><clipPath id="fd0bd0e562"><path d="M 4.683594 0 L 371.433594 0 L 371.433594 374.25 L 4.683594 374.25 Z M 4.683594 0 " clip-rule="nonzero"/></clipPath></defs><rect x="-37.5" width="450" fill="#ffffff" y="-37.499999" height="449.999989" fill-opacity="1"/><rect x="-37.5" width="450" fill="#545454" y="-37.499999" height="449.999989" fill-opacity="1"/><g clip-path="url(#fd0bd0e562)"><path fill="#000000" d="M 214.777344 0.300781 C 215.140625 0.167969 215.558594 0.0195312 215.949219 0.179688 C 216.703125 0.824219 216.136719 1.847656 215.90625 2.613281 C 215.121094 4.992188 213.183594 6.664062 211.597656 8.511719 C 209.824219 10.445312 208.078125 12.40625 206.273438 14.316406 C 204.4375 16.367188 202.4375 18.300781 200.933594 20.621094 C 200.609375 21.128906 200.3125 21.878906 200.828125 22.367188 C 202.136719 23.769531 203.96875 24.730469 204.824219 26.515625 C 205.71875 28.445312 206.222656 30.527344 206.625 32.605469 C 207.007812 34.871094 207.304688 37.269531 206.507812 39.484375 C 205.53125 42.199219 203.582031 44.417969 201.5625 46.417969 C 200.429688 47.554688 198.820312 47.96875 197.558594 48.914062 C 196.019531 50.195312 194.964844 52.042969 194.652344 54.023438 C 194.382812 55.972656 195.347656 57.976562 194.707031 59.878906 C 193.660156 61.445312 191.601562 61.6875 190.0625 62.5625 C 189.550781 63.707031 190.589844 65.21875 189.84375 66.289062 C 188.253906 66.472656 187.511719 68.164062 185.984375 68.464844 C 185.089844 68.726562 183.910156 68.757812 183.433594 69.703125 C 183.082031 70.640625 183.132812 71.734375 182.476562 72.546875 C 181.398438 73.972656 180.140625 75.496094 178.339844 75.980469 C 175.285156 76.484375 173.324219 72.722656 170.238281 73.496094 C 169.132812 74.296875 168.777344 75.769531 168.59375 77.054688 C 168.371094 78.914062 170.085938 80.089844 170.78125 81.632812 C 173.273438 86.855469 175.808594 92.148438 177.007812 97.84375 C 178.085938 103.164062 177.035156 108.566406 176.6875 113.902344 C 176.671875 116.378906 177.578125 118.742188 178.464844 121.019531 C 178.960938 122.105469 179.347656 123.335938 180.273438 124.140625 C 181.152344 123.976562 181.941406 123.519531 182.753906 123.167969 C 186.21875 121.546875 189.609375 119.769531 192.992188 117.976562 C 194.6875 117.054688 196.402344 116.152344 197.964844 115.015625 C 200.09375 113.421875 201.417969 111.070312 203.003906 108.988281 C 204.175781 107.472656 205.875 106.480469 207.636719 105.78125 C 210.640625 104.582031 213.402344 102.851562 216.367188 101.558594 C 218.046875 100.777344 219.785156 103.453125 218.320312 104.636719 C 216.53125 106.179688 214.53125 107.46875 212.761719 109.039062 C 212.214844 109.378906 212.636719 110.101562 213.035156 110.351562 C 213.609375 110.3125 214.140625 110.082031 214.671875 109.875 C 215.957031 109.300781 217.324219 108.816406 218.445312 107.945312 C 218.488281 107.199219 218.0625 106.332031 218.628906 105.703125 C 218.964844 105.226562 219.542969 105.03125 220.046875 104.785156 C 220.703125 105.257812 221.191406 105.910156 221.785156 106.453125 C 222.15625 106.851562 222.664062 106.46875 223.074219 106.34375 C 224.878906 105.542969 226.683594 104.730469 228.46875 103.878906 C 238.351562 99.191406 248.207031 94.441406 258.207031 90.011719 C 265.410156 86.691406 272.789062 83.785156 280.152344 80.835938 C 291.535156 76.386719 302.972656 72.085938 314.496094 68.007812 C 323.71875 64.832031 332.964844 61.628906 342.507812 59.535156 C 349.949219 57.875 357.433594 56.394531 364.960938 55.167969 C 366.671875 54.945312 368.378906 54.523438 370.113281 54.578125 C 370.953125 55 371.425781 55.945312 371.40625 56.867188 C 368.976562 57.980469 366.304688 58.390625 363.734375 59.054688 C 363.757812 59.214844 363.804688 59.523438 363.828125 59.679688 C 363.378906 59.652344 362.929688 59.621094 362.496094 59.589844 C 362.511719 81.109375 362.578125 102.628906 362.539062 124.152344 C 362.511719 131.464844 362.289062 138.773438 362.257812 146.085938 C 362.132812 152.316406 361.96875 158.539062 362.003906 164.765625 C 361.9375 180.546875 362.019531 196.332031 362.148438 212.113281 C 362.273438 226.019531 361.988281 239.925781 361.5 253.820312 C 361.417969 260.582031 361.164062 267.347656 361.191406 274.113281 C 361.125 281.773438 360.984375 289.429688 360.9375 297.09375 C 360.941406 304.761719 360.746094 312.429688 360.664062 320.09375 C 360.710938 320.191406 360.808594 320.386719 360.859375 320.480469 C 360.339844 321.730469 360.488281 323.132812 360.460938 324.457031 C 360.402344 325.445312 361.199219 326.136719 361.792969 326.820312 C 362.785156 327.972656 364.117188 328.9375 364.597656 330.445312 C 365.09375 332.042969 364.320312 333.65625 364.359375 335.265625 C 364.515625 336.140625 365.347656 336.773438 365.394531 337.691406 C 365.503906 339.34375 365.058594 341.320312 363.453125 342.140625 C 360.753906 343.507812 357.554688 342.90625 354.835938 341.898438 C 353.824219 341.464844 352.59375 341.011719 352.179688 339.890625 C 351.847656 338.308594 352.953125 336.910156 352.960938 335.375 C 352.5 334.679688 351.492188 334.378906 351.359375 333.46875 C 351.011719 331.742188 350.796875 329.65625 351.957031 328.183594 C 353.628906 326.671875 356.277344 327.046875 357.933594 325.507812 C 358.941406 324.09375 358.582031 322.257812 358.703125 320.632812 C 358.636719 320.175781 359.019531 319.910156 359.375 319.734375 C 359.214844 319.238281 359.027344 318.746094 358.984375 318.230469 C 358.894531 312.632812 359.089844 307.03125 359.097656 301.433594 C 359.144531 293.21875 359.191406 285.003906 359.242188 276.789062 C 359.34375 270.484375 359.402344 264.175781 359.417969 257.867188 C 359.527344 242.617188 359.710938 227.371094 359.789062 212.125 C 359.96875 204.367188 359.894531 196.609375 360.003906 188.847656 C 360.1875 174.597656 360.203125 160.34375 360.417969 146.089844 C 360.460938 131.832031 360.6875 117.582031 360.761719 103.324219 C 360.925781 88.734375 360.984375 74.148438 361.160156 59.558594 C 357.898438 59.957031 354.6875 60.675781 351.464844 61.292969 C 344.78125 62.65625 338.121094 64.164062 331.519531 65.890625 C 320.515625 68.878906 309.824219 72.882812 299.261719 77.160156 C 286.578125 82.121094 274.066406 87.515625 261.519531 92.8125 C 253.792969 96.167969 246.027344 99.445312 238.347656 102.90625 C 233.871094 104.914062 229.347656 106.828125 225.019531 109.140625 C 224.683594 109.355469 224.128906 109.582031 224.253906 110.082031 C 224.527344 111.671875 226.050781 112.945312 225.707031 114.660156 C 225.257812 116.285156 223.703125 117.175781 222.550781 118.265625 C 220.597656 120.03125 219.964844 122.699219 218.515625 124.816406 C 217.644531 126.148438 216.789062 127.640625 215.273438 128.324219 C 213.625 129.027344 211.832031 129.273438 210.082031 129.617188 C 207.722656 129.988281 205.371094 130.550781 202.96875 130.507812 C 201.332031 130.492188 199.664062 130.632812 198.144531 131.265625 C 196.429688 131.921875 194.976562 133.074219 193.601562 134.265625 C 189.914062 137.574219 185.695312 140.234375 182.082031 143.621094 C 180.898438 144.667969 180.347656 146.234375 180.101562 147.75 C 180.042969 148.238281 179.929688 148.835938 180.320312 149.226562 C 181.148438 149.605469 182.226562 149.449219 182.894531 150.171875 C 183.882812 151.292969 184.414062 152.757812 185.484375 153.832031 C 186.972656 155.328125 188.847656 156.371094 190.742188 157.277344 C 193.707031 158.773438 197.050781 159.207031 200.167969 160.285156 C 208.210938 163.171875 216.101562 166.445312 223.945312 169.808594 C 229.503906 172.207031 234.945312 174.867188 240.429688 177.417969 C 244.632812 179.480469 248.84375 181.535156 252.867188 183.929688 C 255.054688 185.277344 257.015625 186.972656 258.929688 188.679688 C 261.78125 191.238281 263.734375 194.949219 263.582031 198.839844 C 263.449219 205.554688 262.140625 212.183594 261.929688 218.894531 C 261.457031 236.300781 260.953125 253.710938 260.773438 271.121094 C 260.65625 277.617188 261.621094 284.09375 263.359375 290.347656 C 265.183594 297.316406 267.203125 304.238281 269.070312 311.199219 C 269.722656 313.445312 270.277344 315.75 271.304688 317.863281 C 272.136719 319.609375 273.644531 320.972656 274.328125 322.789062 C 274.316406 324.417969 272.726562 326.085938 271.027344 325.582031 C 269.703125 324.910156 268.617188 323.851562 267.296875 323.167969 C 267.445312 324.316406 267.882812 325.40625 268.402344 326.4375 C 268.824219 327.292969 270.035156 327.65625 270.039062 328.738281 C 270.179688 329.929688 270.101562 331.699219 268.703125 332.097656 C 266.453125 332.726562 264.042969 332.738281 261.757812 332.265625 C 259.273438 331.660156 257.125 330.175781 255.125 328.640625 C 253.667969 327.484375 252.183594 326.351562 250.882812 325.019531 C 249.261719 323.382812 248.046875 321.390625 246.386719 319.785156 C 242.417969 315.910156 237.851562 312.71875 233.296875 309.574219 C 231.230469 308.199219 229.214844 306.738281 227.035156 305.535156 C 226.597656 305.207031 226.476562 304.617188 226.253906 304.144531 C 225.570312 302.253906 224.851562 300.1875 225.40625 298.167969 C 226 295.796875 227.019531 293.554688 228.136719 291.386719 C 228.628906 290.382812 229.605469 289.757812 230.238281 288.859375 C 230.714844 288.179688 230.652344 287.3125 230.695312 286.53125 C 230.765625 282.371094 230.476562 278.21875 230.089844 274.082031 C 229.75 271.050781 229.464844 267.996094 228.652344 265.046875 C 227.847656 261.972656 226.699219 259.003906 225.667969 256.003906 C 223.804688 250.707031 222.277344 245.109375 222.824219 239.449219 C 223.1875 233.636719 224.90625 228.035156 226.304688 222.417969 C 226.804688 220.566406 226.664062 218.628906 226.59375 216.738281 C 226.539062 215.328125 226.183594 213.792969 225.09375 212.8125 C 224.277344 212.214844 223.273438 211.976562 222.328125 211.679688 C 218.109375 210.535156 213.78125 209.878906 209.484375 209.097656 C 206.839844 208.691406 204.25 208.015625 201.742188 207.085938 C 199.902344 206.375 197.921875 205.90625 196.304688 204.726562 C 196.324219 205.5625 196.4375 206.414062 196.273438 207.246094 C 196.03125 208.234375 194.828125 207.929688 194.078125 208.085938 C 183.414062 208.488281 172.738281 208.496094 162.070312 208.5625 C 158.035156 208.722656 153.996094 208.625 149.957031 208.683594 C 149.347656 241.328125 148.3125 273.964844 146.554688 306.570312 C 145.746094 320.519531 144.878906 334.472656 143.433594 348.375 C 142.648438 355.320312 141.878906 362.304688 140.132812 369.085938 C 139.582031 370.890625 139.128906 372.871094 137.734375 374.234375 L 92.902344 374.234375 C 91.949219 368.144531 91.996094 361.960938 91.960938 355.816406 C 91.988281 341.285156 92.734375 326.773438 93.492188 312.261719 C 94.824219 287.71875 96.652344 263.203125 98.023438 238.660156 C 98.453125 229.546875 99.058594 220.429688 98.800781 211.300781 C 98.679688 210.179688 98.753906 208.960938 98.238281 207.933594 C 96.90625 206.304688 94.761719 205.617188 92.738281 205.390625 C 89.304688 205.097656 85.875 205.539062 82.457031 205.773438 C 78.9375 206.105469 75.410156 205.699219 71.882812 205.789062 C 58.609375 205.972656 45.332031 206.507812 32.050781 206.457031 C 24.636719 206.445312 17.207031 206.382812 9.824219 205.601562 C 8.09375 205.40625 6.371094 205.140625 4.679688 204.707031 L 4.679688 180.117188 C 5.085938 179.066406 5.429688 177.992188 5.902344 176.96875 C 6 176.976562 6.191406 176.988281 6.289062 176.992188 C 6.402344 177.648438 5.976562 178.300781 5.867188 178.960938 C 8.71875 179.199219 11.585938 179.066406 14.441406 179.101562 C 19.769531 179.09375 25.09375 179.078125 30.421875 179.117188 C 36.566406 179.296875 42.699219 179.777344 48.832031 180.175781 C 60.925781 180.984375 73.015625 181.839844 85.125 182.347656 C 89.097656 182.542969 93.082031 182.609375 97.054688 182.492188 C 97.996094 182.449219 99.375 182.449219 99.53125 181.234375 C 99.929688 178.511719 98.4375 175.894531 98.824219 173.167969 C 98.933594 172.398438 99.402344 171.660156 100.144531 171.375 C 101.140625 170.976562 102.226562 170.894531 103.285156 170.8125 C 109.671875 170.523438 116.03125 171.3125 122.390625 171.722656 C 123.609375 171.78125 124.871094 172.347656 126.066406 171.863281 C 124.886719 167.851562 123.214844 164.003906 121.851562 160.054688 C 119.800781 154.289062 118.023438 148.386719 117.148438 142.320312 C 116.265625 136.457031 116.96875 130.507812 117.8125 124.683594 C 118.933594 117.324219 120.578125 110.050781 122.65625 102.90625 C 123.957031 98.472656 125.320312 94.039062 127.164062 89.796875 C 129.285156 84.8125 132.792969 80.570312 136.570312 76.746094 C 139.664062 73.511719 143.113281 70.652344 146.464844 67.691406 C 147.640625 66.414062 149.085938 65.355469 150.003906 63.863281 C 149.078125 63.269531 147.84375 62.835938 146.816406 63.453125 C 143.753906 64.980469 140.753906 66.625 137.738281 68.25 C 135.835938 69.246094 133.972656 70.351562 131.9375 71.0625 C 131.21875 70.242188 132.148438 69.390625 132.578125 68.6875 C 134.386719 66.414062 135.679688 63.796875 137.070312 61.253906 C 138.933594 57.628906 140.636719 53.820312 141.183594 49.746094 C 141.746094 43.066406 139.253906 36.628906 139.132812 29.980469 C 139.097656 25.824219 139.140625 21.65625 139.476562 17.507812 C 139.667969 15.625 139.875 13.722656 140.488281 11.921875 C 141.476562 9.296875 143.097656 6.832031 145.4375 5.226562 C 149.398438 2.257812 154.550781 1.652344 159.359375 1.773438 C 164.066406 1.941406 168.398438 3.945312 172.871094 5.175781 C 176.40625 6.023438 179.890625 7.148438 183.503906 7.625 C 186.730469 8.09375 189.949219 8.855469 193.226562 8.691406 C 195.195312 8.636719 197.144531 8.238281 198.980469 7.550781 C 204.460938 5.621094 209.433594 2.546875 214.777344 0.300781 M 361.773438 61.109375 C 361.765625 63.078125 361.851562 65.054688 361.667969 67.019531 C 361.535156 76.863281 361.460938 86.710938 361.425781 96.558594 C 361.210938 112.066406 361.179688 127.574219 360.972656 143.082031 C 360.949219 156.355469 360.667969 169.625 360.667969 182.898438 C 360.429688 197.238281 360.441406 211.574219 360.242188 225.917969 C 360.136719 233.492188 360.203125 241.074219 360.054688 248.648438 C 359.996094 255.769531 359.914062 262.898438 359.890625 270.023438 C 359.902344 276.980469 359.710938 283.929688 359.703125 290.886719 C 359.625 299.996094 359.636719 309.109375 359.582031 318.21875 C 359.554688 318.792969 359.835938 319.300781 360.097656 319.800781 C 360.539062 294.644531 360.398438 269.472656 361.203125 244.316406 C 361.683594 229.980469 361.601562 215.632812 361.476562 201.289062 C 361.445312 187.125 361.296875 172.960938 361.460938 158.800781 C 361.625 144.542969 361.980469 130.285156 361.980469 116.027344 C 362.007812 100.695312 361.957031 85.363281 361.910156 70.027344 C 361.871094 66.492188 362.027344 62.953125 361.921875 59.417969 C 361.667969 59.945312 361.792969 60.542969 361.773438 61.109375 Z M 361.773438 61.109375 " fill-opacity="1" fill-rule="nonzero"/></g></svg>