<svg xmlns="http://www.w3.org/2000/svg" xmlns:xlink="http://www.w3.org/1999/xlink" width="500" zoomAndPan="magnify" viewBox="0 0 375 374.999991" height="500" preserveAspectRatio="xMidYMid meet" version="1.0"><rect x="-37.5" width="450" fill="#ffffff" y="-37.499999" height="449.999989" fill-opacity="1"/><rect x="-37.5" width="450" fill="#111827" y="-37.499999" height="449.999989" fill-opacity="1"/><path fill="#6b7280" d="M 187.5 0 C 84.117188 0 0 84.117188 0 187.5 C 0 290.882812 84.117188 375 187.5 375 C 290.882812 375 375 290.882812 375 187.5 C 375 84.117188 290.882812 0 187.5 0 Z M 82.195312 313.136719 C 83.941406 256.5 130.441406 210.9375 187.5 210.9375 C 244.558594 210.9375 291.058594 256.5 292.804688 313.136719 C 264.28125 337.078125 227.566406 351.5625 187.5 351.5625 C 147.433594 351.5625 110.71875 337.078125 82.195312 313.136719 Z M 128.90625 128.90625 C 128.90625 96.597656 155.191406 70.3125 187.5 70.3125 C 219.808594 70.3125 246.09375 96.597656 246.09375 128.90625 C 246.09375 161.214844 219.808594 187.5 187.5 187.5 C 155.191406 187.5 128.90625 161.214844 128.90625 128.90625 Z M 313.992188 291.855469 C 305.507812 248.050781 274.78125 212.191406 234.082031 196.335938 C 255.46875 181.523438 269.53125 156.832031 269.53125 128.90625 C 269.53125 83.683594 232.722656 46.875 187.5 46.875 C 142.277344 46.875 105.46875 83.683594 105.46875 128.90625 C 105.46875 156.832031 119.53125 181.523438 140.917969 196.347656 C 100.21875 212.203125 69.492188 248.0625 60.996094 291.867188 C 37.546875 263.484375 23.4375 227.109375 23.4375 187.5 C 23.4375 97.03125 97.03125 23.4375 187.5 23.4375 C 277.96875 23.4375 351.5625 97.03125 351.5625 187.5 C 351.5625 227.109375 337.453125 263.484375 313.992188 291.855469 Z M 313.992188 291.855469 " fill-opacity="1" fill-rule="nonzero"/></svg>